<svg xmlns="http://www.w3.org/2000/svg" width="110.219mm" height="13.463mm" viewBox="0 0 312.433 38.164">
  <g>
    <g style="isolation: isolate">
      <path d="M143.45,27.135c1.835,0,3,1.511,3,3.693s-1.163,3.67-3,3.67c-1.811,0-2.962-1.5-2.962-3.67S141.639,27.135,143.45,27.135Zm0,6.116c.9,0,1.547-.911,1.547-2.434s-.648-2.435-1.547-2.435c-.864,0-1.487.924-1.487,2.435S142.586,33.251,143.45,33.251Zm4.629-6.836h1.488V37.233h-1.488Z" fill="#696969"/>
      <path d="M151.239,32.892V31.68H161.41v1.212Zm5.9-6.261v.42c0,1.6,2.027,2.674,3.682,2.83-.132.252-.491.96-.624,1.2-1.559-.227-3.3-1.115-3.873-2.339-.576,1.224-2.231,2.076-3.874,2.327-.12-.251-.492-.947-.612-1.187,1.823-.2,3.682-1.235,3.682-2.83v-.42Zm-.8,11.189c-2.147,0-3.634-.791-3.634-2.182,0-1.367,1.439-2.219,3.61-2.219,2.218,0,3.634.852,3.634,2.219C159.947,37.029,158.46,37.82,156.337,37.82Zm-.024-3.19c-1.26,0-2.111.4-2.111,1.02,0,.6.851.983,2.111.983s2.134-.384,2.134-.983C158.447,35.026,157.584,34.63,156.313,34.63Z" fill="#696969"/>
      <path d="M162.783,32.783V27.158h1.488v1.7h2.374V27.147h1.5v5.636Zm3.862-2.734h-2.374v1.523h2.374ZM164.5,37.437V33.683h1.488v2.554h5.937v1.2Zm5.709-2.939V26.415H171.7V34.5Z" fill="#696969"/>
    </g>
    <g>
      <g style="isolation: isolate">
        <path d="M159.771,10.685V3.129h1.968V5.435h3.169V3.114h1.969v7.571ZM164.908,7h-3.169V9.117h3.169Zm-3.041,9.924V11.95h1.985v3.377h7.715v1.6Zm9.316-9.012v5.042H169.2V2.217h1.985V6.251h2.241V7.915Z" fill="#696969"/>
        <path d="M182.686,12.829a38.157,38.157,0,0,1-7.955.449V7.211h4.609V4.89h-4.626v-1.6h6.595V8.8h-4.594v2.865a26.442,26.442,0,0,0,5.731-.464Zm2.049,3.826V10.508h-2.626V8.892h2.626V6.971h-2.626V5.338h2.626V2.217h1.984V16.655Z" fill="#696969"/>
        <path d="M189.5,4.874h8.051V6.491h-2.9c.337,1.649,1.761,2.529,3.3,2.962l-.945,1.552a5.886,5.886,0,0,1-3.441-2.641A5.99,5.99,0,0,1,190,11.341l-.977-1.553c1.761-.56,3.122-1.585,3.41-3.3H189.5Zm1.808-2.417h4.482V4.074h-4.482Zm.544,14.743V11.822h9.588V17.2Zm7.588-3.827h-5.587v2.242h5.587Zm0-2.3V2.234h2v8.835Z" fill="#696969"/>
        <path d="M210.541,12.526a27.875,27.875,0,0,1-6.547.448V3.69h5.7V5.307c-.768,0-2.961-.017-3.713-.017v6.035a20.851,20.851,0,0,0,4.37-.369Zm3.985,4.129V9.1H213.15v6.915h-1.889V2.457h1.889V7.484h1.376V2.217h1.921V16.655Z" fill="#696969"/>
        <path d="M226.492,12.013V10.3c-1.249.049-2.546.08-3.57.08l-.256-1.68c1.473.016,3.361,0,4.914-.064,1.937-.08,3.746-.177,4.914-.32l.144,1.5c-1.056.16-2.689.3-4.162.383v1.809ZM224.283,7.5V2.665h6.883V4.3h-4.914V5.883h4.978V7.5Zm6.418,10c-2.961,0-4.721-1.1-4.721-2.817,0-1.681,1.792-2.833,4.737-2.833s4.706,1.152,4.706,2.833C235.423,16.4,233.63,17.5,230.7,17.5Zm0-4.033c-1.713,0-2.689.5-2.689,1.216,0,.705.976,1.217,2.689,1.217,1.729,0,2.674-.512,2.674-1.217C233.375,13.966,232.43,13.47,230.7,13.47ZM233.39,2.217h1.985v9.7H233.39Z" fill="#696969"/>
        <path d="M243.292,17.072V11.036h-5.778V9.42h9.316a22.211,22.211,0,0,0,.4-4.849h-7.939V2.921h9.923a31.121,31.121,0,0,1-.512,6.5h2.385v1.616h-5.81v6.036Z" fill="#696969"/>
        <path d="M261.662,12.734a43.8,43.8,0,0,1-8.532.464V7.211h4.851v-2.3h-4.915v-1.6h6.9V8.8h-4.85v2.785a34.6,34.6,0,0,0,6.339-.464ZM262.75,2.217h1.985V16.655H262.75Z" fill="#696969"/>
      </g>
      <g>
        <circle cx="57.533" cy="9.86" r="9.858" fill="#696969"/>
        <g style="isolation: isolate">
          <path d="M55.754,11.6a1.588,1.588,0,0,0,1.653,1.527,1.508,1.508,0,1,0-.042-3.012,1.857,1.857,0,0,0-1.4.617c-.182-.071-1.569-.546-1.765-.6l1.078-4.664H60.4V7.13h-3.81l-.448,2a2.5,2.5,0,0,1,1.638-.561,2.865,2.865,0,0,1,3.11,3.04,3.214,3.214,0,0,1-3.487,3.165A3.28,3.28,0,0,1,53.947,12Z" fill="#fff"/>
        </g>
      </g>
      <g>
        <g>
          <path d="M85.808,18.717a.082.082,0,0,1-.082.082h0A8.939,8.939,0,0,1,85.457.923c.089,0,.179,0,.268,0a.082.082,0,0,1,.083.08V2.994a.082.082,0,0,1-.08.081A7.033,7.033,0,0,0,79.021,9.86a7.033,7.033,0,0,0,6.706,6.786.08.08,0,0,1,.08.081Z" fill="#696969"/>
          <path d="M141.526,18.717a.082.082,0,0,0,.082.082h0a8.939,8.939,0,0,0,0-17.878.077.077,0,0,0-.059.024.078.078,0,0,0-.024.058V2.994a.081.081,0,0,0,.081.081,7.035,7.035,0,0,1,6.706,6.786,7.035,7.035,0,0,1-6.706,6.785.081.081,0,0,0-.081.081v1.99Z" fill="#696969"/>
        </g>
        <g style="isolation: isolate">
          <path d="M95.99,3.21c2.448,0,4,2.016,4,4.93,0,2.9-1.553,4.9-4,4.9-2.417,0-3.954-2-3.954-4.9C92.036,5.226,93.573,3.21,95.99,3.21Zm0,8.163c1.2,0,2.065-1.217,2.065-3.25,0-2.017-.865-3.249-2.065-3.249-1.153,0-1.985,1.232-1.985,3.249C94.005,10.156,94.837,11.373,95.99,11.373Zm6.178-9.124h1.985V16.686h-1.985Z" fill="#696969"/>
          <path d="M106.372,10.892V9.276h13.573v1.616Zm7.875-8.355V3.1c0,2.128,2.7,3.569,4.914,3.777-.176.336-.657,1.28-.832,1.6-2.081-.3-4.4-1.488-5.171-3.121-.768,1.633-2.977,2.769-5.17,3.106-.16-.337-.656-1.265-.816-1.585,2.433-.273,4.914-1.649,4.914-3.777V2.537Zm-1.073,14.935c-2.865,0-4.85-1.057-4.85-2.914,0-1.825,1.921-2.961,4.819-2.961,2.961,0,4.849,1.136,4.849,2.961C117.992,16.415,116.007,17.472,113.174,17.472Zm-.031-4.258c-1.681,0-2.818.528-2.818,1.36,0,.8,1.137,1.313,2.818,1.313,1.7,0,2.849-.513,2.849-1.313C115.992,13.742,114.839,13.214,113.143,13.214Z" fill="#696969"/>
          <path d="M121.428,10.717V3.161H123.4V5.467h3.169V3.145h1.969v7.572Zm5.138-3.682H123.4V9.148h3.169Zm-3.041,9.924V11.981h1.985v3.377h7.715v1.6Zm9.316-9.012v5.042h-1.985V2.249h1.985V6.283h2.241V7.947Z" fill="#696969"/>
        </g>
      </g>
    </g>
  </g>
</svg>
