<svg xmlns="http://www.w3.org/2000/svg" width="59.778mm" height="10.899mm" viewBox="0 0 169.448 30.896">
  <g style="isolation: isolate">
    <g style="isolation: isolate">
      <path d="M39.237,15.005a9.235,9.235,0,0,1,9.283-9.62c4.68,0,7.463,2.756,8.295,5.979l-2.939.989A5.114,5.114,0,0,0,48.52,8.322c-3.042,0-6.084,2.21-6.084,6.683,0,4.315,2.964,6.6,6.11,6.6a5.5,5.5,0,0,0,5.486-4.056l2.86.935A8.271,8.271,0,0,1,48.546,24.6C43.58,24.6,39.237,21.011,39.237,15.005Z" fill="#fff"/>
      <path d="M65.5,16.929H63.21v7.28H60.064V5.774h7.072a5.441,5.441,0,0,1,5.772,5.59,5.2,5.2,0,0,1-4.16,5.253l4.16,7.592H69.372Zm1.066-2.756c1.924,0,3.172-1.118,3.172-2.809,0-1.716-1.248-2.834-3.172-2.834H63.21v5.643Z" fill="#fff"/>
      <path d="M76.236,24.209V5.774H87.624V8.686H79.356v4.888h7.488v2.834H79.356V21.3h8.268v2.912Z" fill="#fff"/>
      <path d="M91.367,24.209V5.774h6.526c5.018,0,8.97,3.329,8.97,9.256,0,5.9-4,9.179-9,9.179Zm6.4-2.86c3.2,0,5.85-2.054,5.85-6.319,0-4.315-2.626-6.395-5.824-6.395h-3.3V21.349Z" fill="#fff"/>
      <path d="M110.139,24.209V5.774h3.172V24.209Z" fill="#fff"/>
      <path d="M124.959,8.713v15.5h-3.12V8.713h-5.98V5.774h15.106V8.713Z" fill="#fff"/>
    </g>
  </g>
  <g>
    <g>
      <path d="M15.582,29.764a.134.134,0,0,1-.133.133h0a14.45,14.45,0,0,1,0-28.9.133.133,0,0,1,.134.132V4.351a.132.132,0,0,1-.13.131A11.367,11.367,0,0,0,4.614,15.449,11.368,11.368,0,0,0,15.452,26.416a.131.131,0,0,1,.13.131Z" fill="none"/>
      <path d="M15.449,29.9a.137.137,0,0,0,.094-.038.134.134,0,0,0,.039-.095V26.546a.13.13,0,0,0-.13-.13A11.369,11.369,0,0,1,4.614,15.448,11.367,11.367,0,0,1,15.453,4.482a.131.131,0,0,0,.129-.131V1.134A.133.133,0,0,0,15.449,1h0a14.448,14.448,0,0,0,0,28.9h0m0,1h0A15.447,15.447,0,0,1,4.525,4.525,15.346,15.346,0,0,1,15.448,0a1.134,1.134,0,0,1,1.134,1.136V4.351a1.133,1.133,0,0,1-1.118,1.13A10.018,10.018,0,0,0,8.6,8.55a9.976,9.976,0,0,0-2.987,6.9,9.978,9.978,0,0,0,2.987,6.9,10.018,10.018,0,0,0,6.862,3.069,1.134,1.134,0,0,1,1.119,1.13v3.217a1.139,1.139,0,0,1-.335.8A1.126,1.126,0,0,1,15.449,30.9Z" fill="#fff"/>
    </g>
    <g>
      <path d="M154,29.762a.133.133,0,0,0,.133.133h0a14.449,14.449,0,0,0,0-28.9.133.133,0,0,0-.134.133V4.349a.131.131,0,0,0,.131.131h0a11.368,11.368,0,0,1,10.838,10.967,11.367,11.367,0,0,1-10.838,10.967.131.131,0,0,0-.13.131Z" fill="none"/>
      <path d="M154.133,29.9h0a14.449,14.449,0,0,0,0-28.9h0a.133.133,0,0,0-.133.133V4.35a.131.131,0,0,0,.131.13,11.369,11.369,0,0,1,10.838,10.968,11.37,11.37,0,0,1-10.838,10.967.13.13,0,0,0-.13.13v3.217a.133.133,0,0,0,.133.133m.006,1h-.006a1.127,1.127,0,0,1-.8-.329,1.14,1.14,0,0,1-.335-.8V26.545a1.134,1.134,0,0,1,1.119-1.13,10.018,10.018,0,0,0,6.862-3.069,9.976,9.976,0,0,0,2.987-6.9,9.978,9.978,0,0,0-2.987-6.9A10.018,10.018,0,0,0,154.12,5.48,1.131,1.131,0,0,1,153,4.35V1.132a1.14,1.14,0,0,1,.334-.8,1.126,1.126,0,0,1,.8-.33h.011a15.449,15.449,0,0,1,0,30.9Z" fill="#fff"/>
    </g>
  </g>
</svg>
