<svg xmlns="http://www.w3.org/2000/svg" xmlns:xlink="http://www.w3.org/1999/xlink" width="33.784mm" height="32.537mm" viewBox="0 0 95.766 92.23">
  <defs>
    <clipPath id="a">
      <rect width="95.766" height="92.23" fill="none"/>
    </clipPath>
    <clipPath id="b">
      <rect y="-0.004" width="95.763" height="92.234" fill="none"/>
    </clipPath>
  </defs>
  <g clip-path="url(#a)">
    <g clip-path="url(#b)">
      <path d="M95.765,92.126V.1c-.576.5-.964.8-1.314,1.139-4.281,4.093-8.6,8.16-12.791,12.34A4.533,4.533,0,0,0,80.472,16.5c-.088,12.239-.063,24.479-.063,36.718v2.04H78.156c-12.74,0-25.492-.025-38.232.038a4.674,4.674,0,0,0-2.854,1.089c-4.393,4.079-8.685,8.259-13,12.414-.338.326-.6.726-1.189,1.427H80.509v21.9ZM15.319,15.485c.226-.125.463-.25.689-.375C26.67,25.4,37.333,35.684,47.783,45.771c3.592-3.467,7.158-6.908,10.775-10.387a4.057,4.057,0,0,0-.363-.413Q40.4,17.888,22.553.843a3.825,3.825,0,0,0-2.4-.8C14.168-.021,8.186,0,2.2,0H0V92.226C4.819,87.6,9.325,83.19,13.918,78.86a4.108,4.108,0,0,0,1.439-3.266q-.075-29.041-.038-58.081V15.485" fill="#fff"/>
    </g>
  </g>
</svg>
