<svg xmlns="http://www.w3.org/2000/svg" width="140.174mm" height="32.607mm" viewBox="0 0 397.343 92.429">
  <g>
    <path d="M109.924,55.482C103.1,41.026,88.953,35.256,74.737,40.626c-13.246,5-20.057,19.4-15.845,33.493,4.034,13.5,17.615,21.41,31.727,18.484,12.559-2.6,21.919-13.34,20.536-23.943l-8.669-.973C97.5,80.793,93,84.541,83.5,83.812a16.666,16.666,0,0,1-15.208-13.69c-1.6-8.939,1.893-16.86,8.944-20.288,6.72-3.267,13.67-2.146,18.633,3.28l-25.2,14.148,4.22,7.695Zm278.67,12.2c-6.636,14.1-10.793,17.359-20.212,16.026a16.584,16.584,0,0,1-14.258-14.136c-1.314-9.19,2.286-16.73,9.532-19.961,6.767-3.017,13.5-1.775,18.055,3.549L356.545,67.279l4.257,7.675L395.588,55.6c-4.874-13.074-18.6-19.609-32.477-15.816-13.7,3.746-21.68,17.078-19.038,31.823,2.461,13.735,15.282,22.765,30.327,21.359,12.681-1.185,23.176-12.044,22.939-24.191ZM44.339,91.989c0-9.831.006-19.28,0-28.728a42.541,42.541,0,0,0-.127-5.041c-1.322-11-9.689-18.919-20.413-19.393C11.826,38.3,1.589,44.876.573,55.707-.546,67.635.318,79.749.318,91.774H9.406c0-1.238,0-2.141,0-3.043.013-9.175-.171-18.356.1-27.524.22-7.465,5.561-12.945,12.158-13.148,6.687-.206,12.162,4.861,12.71,12.436.451,6.237.249,12.523.3,18.788.034,4.2.006,8.4.006,12.706Zm285.74-.1c0-11.485.635-22.8-.178-34.014-.82-11.31-9.887-18.844-21.021-19.058-11.753-.225-21.516,6.43-22.476,17.242-1.047,11.792-.238,23.748-.238,35.748H295.3c0-9.45-.041-18.6.031-27.754a25.991,25.991,0,0,1,.695-6.335c1.567-5.977,6.753-9.921,12.362-9.673a12.219,12.219,0,0,1,11.7,10.98c.6,7.139.384,14.35.48,21.529.05,3.763.009,7.527.009,11.335ZM226.206,39.971c0,10.74-.1,21.256.026,31.77.134,11.41,8.5,20.481,19.379,21.275,13.01.95,23.49-6.107,24.522-18.107.988-11.5.213-23.14.213-34.915h-9.522c0,2.061,0,3.871,0,5.681-.013,8.568.163,17.143-.1,25.7a12.627,12.627,0,0,1-10.419,12.3,11.91,11.91,0,0,1-12.8-6.846,24.8,24.8,0,0,1-1.716-8.868c-.212-9.277-.078-18.561-.078-27.993Zm-100.875-.078c-.112,1.051-.229,1.645-.23,2.24-.012,9.937-.15,19.875.026,29.809a21.165,21.165,0,0,0,19.132,21.043c12.655,1.179,23.41-5.568,24.605-17.337,1.191-11.736.261-23.687.261-35.668h-9.11v4.7c0,7.949.034,15.9-.015,23.847-.029,4.73-1.043,9.186-4.906,12.345-3.7,3.026-7.925,3.921-12.438,1.956-5.57-2.425-7.855-7.132-8.008-12.839-.213-7.944-.061-15.9-.065-23.846,0-2.063,0-4.126,0-6.251Zm70.71,9.126h18.07V39.581H195.768V27.148h-9.595c0,17.229-.25,34.2.136,51.146.135,5.966,3.238,11.378,9.506,12.7,5.972,1.263,12.262,1.018,18.362,1.433V82.764c-4.006,0-7.8.086-11.583-.026-3.042-.09-6.348-.728-6.458-4.417C195.851,68.737,196.041,59.14,196.041,49.019Z" fill="#fff"/>
    <path d="M109.924,55.482,74.888,74.957l-4.22-7.695,25.2-14.148c-4.963-5.426-11.913-6.547-18.633-3.28-7.051,3.428-10.543,11.349-8.944,20.288A16.666,16.666,0,0,0,83.5,83.812c9.5.729,14-3.019,18.986-16.125l8.669.973C112.538,79.263,103.178,90,90.619,92.6c-14.112,2.926-27.693-4.987-31.727-18.484-4.212-14.093,2.6-28.489,15.845-33.493C88.953,35.256,103.1,41.026,109.924,55.482Z" fill="#fff"/>
    <path d="M388.594,67.677l8.745,1.1c.237,12.147-10.258,23.006-22.939,24.191-15.045,1.406-27.866-7.624-30.327-21.359-2.642-14.745,5.334-28.077,19.038-31.823,13.877-3.793,27.6,2.742,32.477,15.816L360.8,74.954l-4.257-7.675,25.166-14.124c-4.557-5.324-11.288-6.566-18.055-3.549-7.246,3.231-10.846,10.771-9.532,19.961A16.584,16.584,0,0,0,368.382,83.7C377.8,85.036,381.958,81.774,388.594,67.677Z" fill="#fff"/>
    <path d="M44.339,91.989H34.681c0-4.3.028-8.506-.006-12.706-.052-6.265.15-12.551-.3-18.788-.548-7.575-6.023-12.642-12.71-12.436-6.6.2-11.938,5.683-12.158,13.148-.271,9.168-.087,18.349-.1,27.524,0,.9,0,1.805,0,3.043H.318c0-12.025-.864-24.139.255-36.067C1.589,44.876,11.826,38.3,23.794,38.827c10.724.474,19.091,8.391,20.413,19.393a42.541,42.541,0,0,1,.127,5.041C44.345,72.709,44.339,82.158,44.339,91.989Z" fill="#fff"/>
    <path d="M330.079,91.893h-9.5c0-3.808.041-7.572-.009-11.335-.1-7.179.123-14.39-.48-21.529a12.219,12.219,0,0,0-11.7-10.98c-5.609-.248-10.8,3.7-12.362,9.673a25.991,25.991,0,0,0-.695,6.335c-.072,9.152-.031,18.3-.031,27.754h-9.137c0-12-.809-23.956.238-35.748.96-10.812,10.723-17.467,22.476-17.242,11.134.214,20.2,7.748,21.021,19.058C330.714,69.091,330.079,80.408,330.079,91.893Z" fill="#fff"/>
    <path d="M226.206,39.971h9.5c0,9.432-.134,18.716.078,27.993a24.8,24.8,0,0,0,1.716,8.868,11.91,11.91,0,0,0,12.8,6.846,12.627,12.627,0,0,0,10.419-12.3c.266-8.56.09-17.135.1-25.7,0-1.81,0-3.62,0-5.681h9.522c0,11.775.775,23.42-.213,34.915-1.032,12-11.512,19.057-24.522,18.107-10.881-.794-19.245-9.865-19.379-21.275C226.108,61.227,226.206,50.711,226.206,39.971Z" fill="#fff"/>
    <path d="M125.331,39.893h9.252c0,2.125,0,4.188,0,6.251,0,7.949-.148,15.9.065,23.846.153,5.707,2.438,10.414,8.008,12.839,4.513,1.965,8.738,1.07,12.438-1.956,3.863-3.159,4.877-7.615,4.906-12.345.049-7.949.014-15.9.015-23.847v-4.7h9.11c0,11.981.93,23.932-.261,35.668-1.195,11.769-11.95,18.516-24.605,17.337a21.165,21.165,0,0,1-19.132-21.043c-.176-9.934-.038-19.872-.026-29.809C125.1,41.538,125.219,40.944,125.331,39.893Z" fill="#fff"/>
    <path d="M196.041,49.019c0,10.121-.19,19.718.095,29.3.11,3.689,3.416,4.327,6.458,4.417,3.786.112,7.577.026,11.583.026v9.665c-6.1-.415-12.39-.17-18.362-1.433-6.268-1.324-9.371-6.736-9.506-12.7-.386-16.951-.136-33.917-.136-51.146h9.595V39.581h18.343v9.438Z" fill="#fff"/>
  </g>
</svg>
