<svg xmlns="http://www.w3.org/2000/svg" xmlns:xlink="http://www.w3.org/1999/xlink" width="133.128mm" height="32.537mm" viewBox="0 0 377.372 92.23">
  <defs>
    <clipPath id="a">
      <rect y="14.573" width="377.372" height="77.657" fill="none"/>
    </clipPath>
    <clipPath id="b">
      <rect y="14.575" width="377.372" height="77.654" fill="none"/>
    </clipPath>
  </defs>
  <g clip-path="url(#a)">
    <g clip-path="url(#b)">
      <path d="M319.631,24.4V82.322c-3.041.313-5.732.6-8.51.888v7.334h30.186V83.235c-2.654-.325-5.182-.625-8.223-1V14.567c-7.721.6-14.867,1.138-21.926,1.689v7.271c2.9.3,5.595.576,8.473.876M136.564,82.272c0-9.712-.05-19.248.088-28.772a3.189,3.189,0,0,1,1.927-2.365c4.2-1.064,8.485-2.39,12.778-2.541,4.442-.15,7.584,2.679,7.759,6.909.375,8.873.113,17.783.113,26.756-2.353.363-4.481.689-6.533,1v7.259h26.756V83.3c-2.265-.388-4.405-.751-6.783-1.151,0-9.024.076-17.822-.012-26.607-.125-12.765-7.634-19.41-20.987-17.658-5.432.713-10.575,3.379-15.832,5.156-.15-.826-.438-2.5-.813-4.681-6.5.664-12.778,1.3-19.073,1.94v6.871c2.553.375,4.831.713,7.146,1.063V82.272c-2.29.338-4.317.625-6.507.951v7.208h26.356c.7-7.158.7-7.158-6.383-8.159" fill="#fff"/>
      <path d="M224.563,64.159c0-3.855.088-7.7-.05-11.539a3.85,3.85,0,0,0-1.264-2.79c-9.035-5.82-21.588-.764-23.265,9.511a35.122,35.122,0,0,0,.075,10.675c1.427,9.449,11.464,14.054,20.475,9.762,2.853-1.352,4.442-3.029,4.1-6.32-.312-3.067-.062-6.195-.075-9.3M207.03,92.23c-1.489-.363-2.978-.714-4.455-1.1-7.96-2.115-13-7.083-15.218-14.554a36.648,36.648,0,0,1,.475-23.766c4.731-12.7,20.312-18.96,33.34-13.516.913.388,1.84.751,3.066,1.239V24.475c-2.828-.313-5.507-.614-8.535-.964V16.252c7.183-.538,14.342-1.076,22.126-1.664V82.255c2.365.388,4.38.726,6.52,1.077v7.083H227.6c-.6-1.527-1.276-3.241-1.764-4.48-4.768,2.127-9.449,4.2-14.117,6.3Z" fill="#fff"/>
      <path d="M88.347,69.515C81.8,68,75.507,68.276,72.04,70.1c-2.6,1.376-4.505,3.529-3.779,6.269.525,1.99,2.152,4.481,3.98,5.244,5.281,2.215,10.374.563,15-2.34a2.535,2.535,0,0,0,1.051-1.8c.113-2.691.05-5.382.05-7.96M70.288,92.23c-1.114-.288-2.227-.613-3.354-.851-6.62-1.427-11.251-6.02-12.152-12.09-1-6.808,1.577-12.026,7.747-15.33,6.383-3.4,13.353-3.8,20.449-3.329,1.652.112,3.292.25,5.194.388,0-2.778.3-5.269-.063-7.672-.8-5.143-6.72-8.21-12.827-6.282a20.446,20.446,0,0,0-8.035,4.881c-2.628,2.628-4.856.976-7,.125-1.038-.413-2.027-2.328-2.015-3.555.025-7.946-1.677-6.307,6.583-8.76a47.158,47.158,0,0,1,23.128-1.189c8.9,1.84,13.215,6.683,13.5,15.356.263,8.059.113,16.119.138,24.191.012,1.339,0,2.678,0,4.155,2.4.313,4.418.576,6.382.838,1.59,7.91.451,7.66-6.332,8.36-5.169.526-10.075.075-11.927-5.256-4.468,2.04-8.823,4.03-13.178,6.02Z" fill="#fff"/>
      <path d="M292.526,64.86c-.325-2.315-.5-4.418-.913-6.483-1.314-6.695-4.781-9.874-11.226-10.4-6.783-.563-11.989,2.553-14.292,8.6-1.977,5.219-1.689,10.512-.25,15.744,1.727,6.232,6.27,9.536,12.677,9.523,6.57-.012,11.226-3.491,12.853-9.836.613-2.391.8-4.881,1.151-7.146m-18.3,27.37c-.313-.2-.626-.551-.951-.588-14.167-1.252-21.151-10.613-22.1-23.253-.513-6.821.388-13.4,4.168-19.36,5.844-9.224,17.871-13.4,30.9-10.876,11.088,2.165,17.633,9.174,19.285,20.6,1.327,9.211.138,17.833-6.508,25.142-4,4.405-9.21,6.733-15.205,7.584a16.954,16.954,0,0,0-2.553.751Z" fill="#fff"/>
      <path d="M17.935,92.23Q10.408,90.5,2.892,88.763C.665,88.25-.149,86.974.026,84.733c.213-2.966.05-5.944.05-9.323,2.353-.551,4.681-1.089,7.322-1.715,3.116,6.984,8.835,9.937,16.469,9.474,2.027-.125,4.4-.425,5.894-1.539,1.54-1.127,3.042-3.367,2.992-5.069a6.805,6.805,0,0,0-3.292-4.843c-2.29-1.2-5.194-1.339-7.847-1.9-3.679-.776-7.446-1.264-11.025-2.316C4.457,65.686.577,61.794.164,55.436c-.426-6.495,2.027-11.726,8.16-14.917,7.734-4,15.969-3.893,24.3-2.191a35.558,35.558,0,0,1,3.755,1.027c7.046,2.152,8.122,3.729,6.758,10.75A4.125,4.125,0,0,1,40.4,52.483c-2.04.475-4.217,2.152-6.257-.563-3.342-4.443-8.223-5.87-13.792-5.232-3.279.376-6.257,1.352-6.582,5.106-.313,3.567,2.215,5.094,5.368,5.782,3.292.726,6.633,1.227,9.937,1.865,1.777.35,3.567.688,5.306,1.176C40.787,62.394,45.23,65.9,45.668,72.744c.438,6.746-1.852,12.452-8.26,15.644-3.8,1.9-8.272,2.6-12.44,3.842Z" fill="#fff"/>
      <path d="M377.372,90.739H346.811V83.33c2.778-.35,5.544-.713,8.547-1.1V24.411c-2.853-.3-5.531-.576-8.46-.889V16.251c7.121-.538,14.267-1.089,21.826-1.664v67.58c3.079.4,5.869.763,8.648,1.126Z" fill="#fff"/>
      <path d="M136.564,82.272c7.084,1,7.084,1,6.383,8.159H116.591V83.223c2.19-.326,4.217-.613,6.507-.951V48.231c-2.315-.35-4.593-.688-7.146-1.063V40.3c6.3-.638,12.578-1.276,19.073-1.94.375,2.178.663,3.855.813,4.681,5.257-1.777,10.4-4.443,15.832-5.156,13.353-1.752,20.862,4.893,20.987,17.658.088,8.785.012,17.583.012,26.607,2.378.4,4.518.763,6.783,1.151v7.221H152.7V83.26c2.052-.312,4.18-.638,6.533-1,0-8.973.262-17.883-.113-26.756-.175-4.23-3.317-7.059-7.759-6.909-4.293.151-8.573,1.477-12.778,2.541a3.189,3.189,0,0,0-1.927,2.365c-.138,9.524-.088,19.06-.088,28.772" fill="#fff"/>
      <path d="M319.635,24.4c-2.891-.3-5.569-.575-8.473-.876V16.257c7.058-.55,14.2-1.088,21.926-1.689V82.235c3.029.376,5.569.676,8.222,1v7.308H311.125V83.212c2.778-.288,5.456-.576,8.51-.889Z" fill="#fff"/>
    </g>
  </g>
</svg>
