<svg xmlns="http://www.w3.org/2000/svg" width="85.266mm" height="31.575mm" viewBox="0 0 241.698 89.504">
  <path d="M206.093,58.723c-1.357-3.433-.51-6.313-.553-9.119-.14-9-.089-17.995.015-26.992.053-4.627,2.91-7.435,7.043-7.2,2.031.116,4.054.413,6.086.477,3.033.1,5.375,1.91,5.65,4.441.5,4.559,3.157,4.7,6.532,4.551,2.45-.112,4.908-.046,7.362-.057,1.888-.009,3.158-.731,3.288-2.806.361-5.781.763-11.534-4.953-15.415a17.941,17.941,0,0,1-3.471-3.455,8.845,8.845,0,0,0-7.53-3.273c-7.087.146-14.18.041-21.271.051-1.5,0-3.07-.111-4.331.873-7.026,5.483-12.749,11.317-11.969,21.565,1.18,15.492.791,31.053.1,46.59a116.83,116.83,0,0,0,.075,15.53c.321,3.619,1.75,5.5,5.664,5.084a36.223,36.223,0,0,1,6.946-.008c3.407.3,5.516-1.056,7.245-4.025,6.928-11.892,14.068-23.661,21.121-35.48,3.282-5.5,6.531-11.019,9.823-16.513,1.419-2.367.916-3.51-1.96-3.446-2.726.06-5.466.169-8.178-.037a6.958,6.958,0,0,0-7.066,3.8q-4.921,8.255-10,16.414C210.055,53,208.855,56.088,206.093,58.723ZM90.948,89.521a24.332,24.332,0,0,1,2.859.016c4.2.5,6.323-1.357,6.88-5.522.413-3.093,1.149-6.15,1.866-9.193q8.324-35.35,16.712-70.685c.658-2.772-.171-4.224-3.151-4.2a66.421,66.421,0,0,1-7.757-.069c-4.144-.454-5.621,1.431-6.507,5.323-5.8,25.463-11.815,50.877-17.83,76.291C82.108,89.561,82.011,89.538,90.948,89.521ZM47.16.007c-1.908,0-3.817-.041-5.724.013A3.024,3.024,0,0,0,38.347,2.7c-2.143,9.123-4.381,18.224-6.516,27.349-4.3,18.387-8.541,36.788-12.855,55.172-.641,2.73.019,4.283,3.049,4.277,3-.006,6-.038,9,0,2.579.035,3.98-1.151,4.577-3.688,2.274-9.659,4.719-19.279,6.975-28.942,3.771-16.147,7.533-32.3,11.127-48.484C55.592-.129,58.088-.137,47.16.007ZM173.193,89.521c2.068,0,3.159,0,4.249,0,5.965-.025,6.021-.078,6.045-5.862q.011-2.658-.006-5.316c-.032-5.362-.175-5.693-5.475-5.556-3.573.091-5.766-1.209-7.555-4.31-5.717-9.914-12.283-19.385-17.362-29.6-3.795-7.634-8.989-9.915-16.887-8.935-4.689.582-5.085.862-2.617,5,9.424,15.8,18.962,31.526,28.17,47.447C164.661,87.409,167.606,91.342,173.193,89.521ZM156.391-.085c-1.364,0-2.729-.051-4.089.01-3.526.159-7.239-.824-10.548.509-6.946,2.8-12.775,13.805-11.853,21.339.274,2.239,1.39,3.086,3.483,3.076,3.271-.015,6.544-.058,9.813.017,2.57.059,4.059-.762,4.331-3.626.351-3.691,2.593-5.511,6.374-5.375,2.178.078,4.362.011,6.541.064,2.976.072,5.307,1.747,5.641,4.43.554,4.447,3.2,4.714,6.606,4.536,2.447-.128,4.905-.037,7.359-.057,1.272-.01,2.435-.228,3.1-1.527,1.259-2.457.065-11.555-1.773-13.686-5.724-6.636-12.109-11.737-21.721-9.739A16.386,16.386,0,0,1,156.391-.085ZM79.711,77.647c2.036-8.655,3.872-16.043,5.49-23.478,1.062-4.882,3.307-9.69,2.13-14.818-2.8-12.193-5.821-24.335-8.715-36.507a3.235,3.235,0,0,0-3.4-2.868c-3.68-.021-7.36-.031-11.039-.008-2.143.013-2.908,1.018-2.345,3.167.828,3.16,1.513,6.357,2.255,9.539,3.487,14.965,6.86,29.959,10.514,44.883C76.147,63.872,77.048,70.365,79.711,77.647ZM5.314-.069v.051C3.542-.018,1.768-.082,0,0-1.873.087-2.938,1.2-2.246,2.979c1.164,2.987,1,6.167,1.749,9.2,2.058,8.319,3.975,16.673,6,25,2.863,11.758,6.118,23.423,8.33,35.335.155.833.5,1.67,1.533,1.56.772-.082.943-.825,1.1-1.518,1.605-6.877,3.542-13.7,4.732-20.643.68-3.971,2.818-7.839,1.705-12.021-3.22-12.088-5.076-24.5-8.853-36.462C13.267.932,12-.242,9.4-.083,8.044,0,6.677-.069,5.314-.069Z" fill="#fff"/>
</svg>
