<svg xmlns="http://www.w3.org/2000/svg" width="115.006mm" height="10.9mm" viewBox="0 0 326 30.897">
  <g style="isolation: isolate">
    <g style="isolation: isolate">
      <path d="M49.941,6.565c3.536,0,5.616,2.08,5.616,4.966a4.1,4.1,0,0,1-2.73,3.978,4.414,4.414,0,0,1,3.3,4.395c0,2.963-2.288,5.095-5.72,5.095H43.6V6.565Zm-.416,7.8c1.82,0,2.912-1.041,2.912-2.575,0-1.559-1.092-2.573-2.99-2.573H46.691v5.148Zm.338,7.982c1.872,0,3.094-1.014,3.094-2.652,0-1.586-1.066-2.7-2.99-2.7H46.691v5.356Z" fill="#fff"/>
      <path d="M59.378,25V6.565H62.5v15.47h8.451V25Z" fill="#fff"/>
      <path d="M85.014,20.371h-7.8L75.5,25H72.2L79.372,6.565h3.614L90.162,25H86.757Zm-6.708-2.886h5.616l-2.808-7.54Z" fill="#fff"/>
      <path d="M104.852,25l-9.1-13.963V25h-3.12V6.565H96.61l8.372,13.078V6.565h3.12V25Z" fill="#fff"/>
      <path d="M118.086,17.017,115.642,19.7V25h-3.12V6.565h3.12v8.84l7.93-8.84h4.108L120.218,14.7,127.759,25h-3.927Z" fill="#fff"/>
      <path d="M145.021,6.175a9.248,9.248,0,0,1,9.387,9.594,9.377,9.377,0,1,1-18.747,0A9.228,9.228,0,0,1,145.021,6.175Zm0,16.25c3.12,0,6.189-2.21,6.189-6.656s-3.069-6.656-6.189-6.656c-3.093,0-6.162,2.21-6.162,6.656S141.928,22.425,145.021,22.425Z" fill="#fff"/>
      <path d="M157.5,18.577V6.565H160.6V18.4c0,2.6,1.43,4.03,3.77,4.03,2.366,0,3.77-1.43,3.77-4.03V6.565h3.12V18.577c0,4.446-3.016,6.812-6.89,6.812C160.517,25.389,157.5,23.023,157.5,18.577Z" fill="#fff"/>
      <path d="M180.9,17.719h-2.288V25h-3.146V6.565h7.072a5.441,5.441,0,0,1,5.773,5.59,5.2,5.2,0,0,1-4.16,5.252L188.312,25h-3.536Zm1.067-2.756c1.923,0,3.171-1.118,3.171-2.808,0-1.716-1.248-2.834-3.171-2.834h-3.355v5.642Z" fill="#fff"/>
      <path d="M209.865,25V17.121h-8.658V25h-3.12V6.565h3.12v7.618h8.658V6.565h3.147V25Z" fill="#fff"/>
      <path d="M225.673,6.175a9.248,9.248,0,0,1,9.386,9.594,9.377,9.377,0,1,1-18.747,0A9.229,9.229,0,0,1,225.673,6.175Zm0,16.25c3.12,0,6.188-2.21,6.188-6.656s-3.068-6.656-6.188-6.656c-3.094,0-6.162,2.21-6.162,6.656S222.579,22.425,225.673,22.425Z" fill="#fff"/>
      <path d="M238.152,18.577V6.565h3.094V18.4c0,2.6,1.431,4.03,3.77,4.03,2.367,0,3.771-1.43,3.771-4.03V6.565h3.12V18.577c0,4.446-3.017,6.812-6.891,6.812C241.168,25.389,238.152,23.023,238.152,18.577Z" fill="#fff"/>
      <path d="M265.427,11.765a3.4,3.4,0,0,0-3.615-2.834,2.912,2.912,0,0,0-3.172,2.652,2.387,2.387,0,0,0,2.158,2.365l2.652.547c3.25.65,4.993,2.7,4.993,5.3,0,2.86-2.314,5.59-6.527,5.59-4.68,0-6.838-3.016-7.124-5.668l2.912-.832a3.962,3.962,0,0,0,4.212,3.692c2.21,0,3.354-1.118,3.354-2.548,0-1.2-.883-2.158-2.469-2.5l-2.6-.546c-2.808-.572-4.68-2.418-4.68-5.174,0-3.094,2.834-5.642,6.266-5.642,4.343,0,6.033,2.651,6.449,4.706Z" fill="#fff"/>
      <path d="M271.692,25V6.565h11.389V9.477h-8.269v4.888H282.3V17.2h-7.489v4.889h8.269V25Z" fill="#fff"/>
    </g>
  </g>
  <g>
    <g>
      <path d="M15.582,29.764a.134.134,0,0,1-.133.133h0a14.45,14.45,0,0,1,0-28.9.134.134,0,0,1,.134.132V4.351a.131.131,0,0,1-.13.131A11.368,11.368,0,0,0,4.614,15.449,11.368,11.368,0,0,0,15.452,26.416a.131.131,0,0,1,.13.131Z" fill="none"/>
      <path d="M15.449,29.9a.133.133,0,0,0,.133-.133V26.547a.131.131,0,0,0-.13-.131A11.368,11.368,0,0,1,4.614,15.449,11.369,11.369,0,0,1,15.453,4.482a.131.131,0,0,0,.129-.131V1.134a.136.136,0,0,0-.039-.095A.133.133,0,0,0,15.449,1h0a14.449,14.449,0,0,0,0,28.9h0m0,1h0A15.448,15.448,0,0,1,4.525,4.525,15.346,15.346,0,0,1,15.448,0a1.134,1.134,0,0,1,1.134,1.137V4.351a1.134,1.134,0,0,1-1.118,1.131A10.014,10.014,0,0,0,8.6,8.551a9.974,9.974,0,0,0-2.987,6.9,9.974,9.974,0,0,0,2.987,6.9,10.013,10.013,0,0,0,6.862,3.069,1.135,1.135,0,0,1,1.119,1.131v3.217A1.134,1.134,0,0,1,15.449,30.9Z" fill="#fff"/>
    </g>
    <g>
      <path d="M310.552,29.763a.134.134,0,0,0,.133.133h0a14.449,14.449,0,0,0,0-28.9.133.133,0,0,0-.134.133V4.35a.131.131,0,0,0,.131.131h0a11.368,11.368,0,0,1,10.838,10.967,11.368,11.368,0,0,1-10.838,10.967.131.131,0,0,0-.13.131Z" fill="none"/>
      <path d="M310.685,29.9h0a14.448,14.448,0,0,0,0-28.895h0a.133.133,0,0,0-.133.133V4.35a.131.131,0,0,0,.131.131,11.368,11.368,0,0,1,10.838,10.967,11.368,11.368,0,0,1-10.838,10.967.131.131,0,0,0-.13.131v3.217a.131.131,0,0,0,.133.132m.006,1h-.006a1.126,1.126,0,0,1-.8-.328,1.142,1.142,0,0,1-.335-.8V26.546a1.135,1.135,0,0,1,1.119-1.131,10.013,10.013,0,0,0,6.862-3.069,9.974,9.974,0,0,0,2.987-6.9,9.976,9.976,0,0,0-2.987-6.9,10.014,10.014,0,0,0-6.862-3.069,1.133,1.133,0,0,1-1.12-1.131V1.133A1.132,1.132,0,0,1,310.685,0h.011a15.442,15.442,0,0,1,10.825,26.316A15.37,15.37,0,0,1,310.7,30.9Z" fill="#fff"/>
    </g>
  </g>
</svg>
