<svg xmlns="http://www.w3.org/2000/svg" width="69.303mm" height="10.9mm" viewBox="0 0 196.448 30.897">
  <g style="isolation: isolate">
    <g style="isolation: isolate">
      <path d="M43.2,18.16v7.2h-3.12V6.928H46.92A5.506,5.506,0,0,1,52.8,12.544c0,3.25-2.341,5.616-5.877,5.616Zm3.25-2.756c1.976,0,3.172-1.092,3.172-2.835,0-1.767-1.2-2.885-3.172-2.885H43.2V15.4Z" fill="#fff"/>
      <path d="M55.681,25.362V6.928H67.07V9.84H58.8v4.888H66.29v2.834H58.8V22.45H67.07v2.912Z" fill="#fff"/>
      <path d="M76.248,18.082H73.96v7.28H70.813V6.928h7.072a5.441,5.441,0,0,1,5.773,5.59,5.2,5.2,0,0,1-4.16,5.253l4.16,7.591H80.122Zm1.066-2.756c1.923,0,3.172-1.118,3.172-2.808,0-1.716-1.249-2.834-3.172-2.834H73.96v5.642Z" fill="#fff"/>
      <path d="M96.294,12.128a3.4,3.4,0,0,0-3.615-2.834,2.912,2.912,0,0,0-3.172,2.652,2.388,2.388,0,0,0,2.158,2.366l2.653.546c3.25.65,4.992,2.7,4.992,5.3,0,2.86-2.314,5.59-6.527,5.59-4.68,0-6.838-3.016-7.124-5.668l2.912-.832a3.963,3.963,0,0,0,4.212,3.692c2.21,0,3.354-1.118,3.354-2.547,0-1.2-.883-2.159-2.469-2.5l-2.6-.545c-2.808-.573-4.68-2.419-4.68-5.175,0-3.094,2.834-5.642,6.266-5.642,4.343,0,6.033,2.651,6.449,4.706Z" fill="#fff"/>
      <path d="M110.723,6.538a9.248,9.248,0,0,1,9.387,9.594,9.377,9.377,0,1,1-18.747,0A9.228,9.228,0,0,1,110.723,6.538Zm0,16.25c3.12,0,6.189-2.21,6.189-6.656s-3.069-6.656-6.189-6.656c-3.093,0-6.162,2.21-6.162,6.656S107.63,22.788,110.723,22.788Z" fill="#fff"/>
      <path d="M135.632,25.362l-9.1-13.963V25.362h-3.12V6.928h3.978l8.372,13.078V6.928h3.121V25.362Z" fill="#fff"/>
      <path d="M154.17,20.734h-7.8l-1.716,4.628h-3.3l7.176-18.434h3.614l7.177,18.434h-3.406Zm-6.709-2.886h5.616l-2.808-7.54Z" fill="#fff"/>
    </g>
  </g>
  <g>
    <g>
      <path d="M15.582,29.764a.133.133,0,0,1-.133.133h0a14.45,14.45,0,0,1,0-28.9.134.134,0,0,1,.134.132V4.351a.131.131,0,0,1-.13.131A11.368,11.368,0,0,0,4.614,15.449,11.368,11.368,0,0,0,15.452,26.416a.131.131,0,0,1,.13.131Z" fill="none"/>
      <path d="M15.449,29.9a.133.133,0,0,0,.133-.133V26.547a.131.131,0,0,0-.13-.131A11.368,11.368,0,0,1,4.614,15.449,11.369,11.369,0,0,1,15.453,4.482a.131.131,0,0,0,.129-.131V1.134A.131.131,0,0,0,15.449,1h0a14.448,14.448,0,0,0,0,28.9h0m0,1h0A15.448,15.448,0,0,1,4.525,4.525,15.345,15.345,0,0,1,15.448,0a1.134,1.134,0,0,1,1.134,1.136V4.351a1.134,1.134,0,0,1-1.118,1.131A10.014,10.014,0,0,0,8.6,8.551a9.974,9.974,0,0,0-2.987,6.9,9.974,9.974,0,0,0,2.987,6.9,10.013,10.013,0,0,0,6.862,3.069,1.135,1.135,0,0,1,1.119,1.131v3.217A1.134,1.134,0,0,1,15.449,30.9Z" fill="#fff"/>
    </g>
    <g>
      <path d="M181,29.763a.134.134,0,0,0,.133.133h0a14.449,14.449,0,0,0,0-28.9.133.133,0,0,0-.134.133V4.35a.131.131,0,0,0,.131.131h0a11.368,11.368,0,0,1,10.838,10.967,11.368,11.368,0,0,1-10.838,10.967.131.131,0,0,0-.13.131Z" fill="none"/>
      <path d="M181.133,29.9h0a14.448,14.448,0,0,0,0-28.895h0a.133.133,0,0,0-.133.133V4.35a.131.131,0,0,0,.131.131,11.368,11.368,0,0,1,10.838,10.967,11.368,11.368,0,0,1-10.838,10.967.131.131,0,0,0-.13.131v3.217a.131.131,0,0,0,.133.132m.006,1h-.006a1.126,1.126,0,0,1-.8-.328,1.142,1.142,0,0,1-.335-.8V26.546a1.135,1.135,0,0,1,1.119-1.131,10.013,10.013,0,0,0,6.862-3.069,9.974,9.974,0,0,0,2.987-6.9,9.976,9.976,0,0,0-2.987-6.9,10.014,10.014,0,0,0-6.862-3.069A1.133,1.133,0,0,1,180,4.35V1.133A1.132,1.132,0,0,1,181.133,0h.011a15.442,15.442,0,0,1,10.825,26.316A15.37,15.37,0,0,1,181.144,30.9Z" fill="#fff"/>
    </g>
  </g>
</svg>
