<svg xmlns="http://www.w3.org/2000/svg" width="71.067mm" height="10.9mm" viewBox="0 0 201.448 30.897">
  <g style="isolation: isolate">
    <g style="isolation: isolate">
      <path d="M38.013,16.158A9.3,9.3,0,0,1,47.4,6.538c5.1,0,7.722,3.119,8.45,6.109l-3.38,1.067A4.82,4.82,0,0,0,47.4,10c-2.756,0-5.668,1.976-5.668,6.162a5.685,5.685,0,0,0,5.72,6.084,5.12,5.12,0,0,0,5.174-3.77l3.354,1.014a8.383,8.383,0,0,1-8.528,6.266A9.2,9.2,0,0,1,38.013,16.158Z" fill="#fff"/>
      <path d="M67.159,6.538a9.3,9.3,0,0,1,9.491,9.62,9.478,9.478,0,1,1-18.955,0A9.29,9.29,0,0,1,67.159,6.538Zm0,15.731c2.86,0,5.772-1.977,5.772-6.137S70.019,10,67.159,10c-2.834,0-5.746,1.976-5.746,6.136S64.325,22.269,67.159,22.269Z" fill="#fff"/>
      <path d="M91.729,25.362,83.357,12.284V25.362H79.769V6.928h4.472l7.67,12.194V6.928H95.5V25.362Z" fill="#fff"/>
      <path d="M98.619,16.158a9.3,9.3,0,0,1,9.386-9.62c5.1,0,7.722,3.119,8.45,6.109l-3.38,1.067A4.82,4.82,0,0,0,108.005,10c-2.756,0-5.668,1.976-5.668,6.162a5.685,5.685,0,0,0,5.72,6.084,5.121,5.121,0,0,0,5.174-3.77l3.355,1.014a8.386,8.386,0,0,1-8.529,6.266A9.2,9.2,0,0,1,98.619,16.158Z" fill="#fff"/>
      <path d="M119.574,25.362V6.928h11.545v3.38h-7.956V14.52h7.2v3.2h-7.2v4.264h7.956v3.38Z" fill="#fff"/>
      <path d="M138.294,18.42v6.942h-3.588V6.928h6.89c3.64,0,6.058,2.418,6.058,5.746,0,3.354-2.418,5.746-6.058,5.746Zm2.86-3.094A2.575,2.575,0,0,0,144.04,12.7a2.567,2.567,0,0,0-2.886-2.652H138.32v5.278Z" fill="#fff"/>
      <path d="M158.21,10.334V25.362H154.6V10.334h-5.824V6.928h15.262v3.406Z" fill="#fff"/>
    </g>
  </g>
  <g>
    <g>
      <path d="M15.582,29.764a.133.133,0,0,1-.133.133h0a14.45,14.45,0,0,1,0-28.9.134.134,0,0,1,.134.132V4.351a.131.131,0,0,1-.13.131A11.368,11.368,0,0,0,4.614,15.449,11.368,11.368,0,0,0,15.452,26.416a.131.131,0,0,1,.13.131Z" fill="none"/>
      <path d="M15.449,29.9a.133.133,0,0,0,.133-.133V26.547a.131.131,0,0,0-.13-.131A11.368,11.368,0,0,1,4.614,15.449,11.369,11.369,0,0,1,15.453,4.482a.131.131,0,0,0,.129-.131V1.134A.131.131,0,0,0,15.449,1h0a14.448,14.448,0,0,0,0,28.9h0m0,1h0A15.448,15.448,0,0,1,4.525,4.525,15.345,15.345,0,0,1,15.448,0a1.134,1.134,0,0,1,1.134,1.136V4.351a1.134,1.134,0,0,1-1.118,1.131A10.014,10.014,0,0,0,8.6,8.551a9.974,9.974,0,0,0-2.987,6.9,9.974,9.974,0,0,0,2.987,6.9,10.013,10.013,0,0,0,6.862,3.069,1.135,1.135,0,0,1,1.119,1.131v3.217A1.134,1.134,0,0,1,15.449,30.9Z" fill="#fff"/>
    </g>
    <g>
      <path d="M186,29.763a.134.134,0,0,0,.133.133h0a14.449,14.449,0,0,0,0-28.9.133.133,0,0,0-.134.133V4.35a.131.131,0,0,0,.131.131h0a11.368,11.368,0,0,1,10.838,10.967,11.368,11.368,0,0,1-10.838,10.967.131.131,0,0,0-.13.131Z" fill="none"/>
      <path d="M186.133,29.9h0a14.448,14.448,0,0,0,0-28.895h0a.133.133,0,0,0-.133.133V4.35a.131.131,0,0,0,.131.131,11.368,11.368,0,0,1,10.838,10.967,11.368,11.368,0,0,1-10.838,10.967.131.131,0,0,0-.13.131v3.217a.131.131,0,0,0,.133.132m.006,1h-.006a1.126,1.126,0,0,1-.8-.328,1.147,1.147,0,0,1-.335-.8V26.546a1.135,1.135,0,0,1,1.119-1.131,10.013,10.013,0,0,0,6.862-3.069,9.974,9.974,0,0,0,2.987-6.9,9.979,9.979,0,0,0-2.986-6.9,10.018,10.018,0,0,0-6.863-3.069A1.133,1.133,0,0,1,185,4.35V1.133a1.141,1.141,0,0,1,.335-.8,1.125,1.125,0,0,1,.8-.329h.011a15.442,15.442,0,0,1,10.825,26.316A15.37,15.37,0,0,1,186.144,30.9Z" fill="#fff"/>
    </g>
  </g>
</svg>
