<svg xmlns="http://www.w3.org/2000/svg" width="61.189mm" height="10.899mm" viewBox="0 0 173.448 30.896">
  <g style="isolation: isolate">
    <g style="isolation: isolate">
      <path d="M52.718,20.378h-8.4L42.47,25.362H38.914L46.642,5.511h3.892l7.728,19.851H54.594ZM45.494,17.27h6.048L48.518,9.15Z" fill="#fff"/>
      <path d="M66.775,17.522H64.311v7.84H60.923V5.511h7.616a5.859,5.859,0,0,1,6.216,6.019,5.6,5.6,0,0,1-4.48,5.656l4.48,8.176H70.946Zm1.148-2.967c2.072,0,3.416-1.2,3.416-3.025,0-1.847-1.344-3.052-3.416-3.052H64.311v6.077Z" fill="#fff"/>
      <path d="M86.122,8.675V25.362h-3.36V8.675h-6.44V5.511H92.59V8.675Z" fill="#fff"/>
      <path d="M95.334,25.362V5.511H98.75V25.362Z" fill="#fff"/>
      <path d="M113.534,11.11a3.663,3.663,0,0,0-3.892-3.051,3.135,3.135,0,0,0-3.416,2.855,2.571,2.571,0,0,0,2.324,2.548l2.856.589c3.5.7,5.376,2.911,5.376,5.712,0,3.08-2.492,6.019-7.028,6.019-5.04,0-7.364-3.248-7.672-6.1l3.136-.9a4.268,4.268,0,0,0,4.536,3.977c2.38,0,3.612-1.2,3.612-2.744,0-1.288-.952-2.325-2.66-2.689l-2.8-.588c-3.024-.616-5.04-2.6-5.04-5.572,0-3.332,3.052-6.075,6.748-6.075,4.676,0,6.5,2.855,6.944,5.067Z" fill="#fff"/>
      <path d="M127.982,8.675V25.362h-3.36V8.675h-6.44V5.511H134.45V8.675Z" fill="#fff"/>
    </g>
  </g>
  <g>
    <g>
      <path d="M15.582,29.764a.134.134,0,0,1-.133.133h0a14.45,14.45,0,0,1,0-28.9.133.133,0,0,1,.134.132V4.351a.132.132,0,0,1-.13.131A11.367,11.367,0,0,0,4.614,15.449,11.368,11.368,0,0,0,15.452,26.416a.131.131,0,0,1,.13.131Z" fill="none"/>
      <path d="M15.449,29.9a.137.137,0,0,0,.094-.038.134.134,0,0,0,.039-.095V26.546a.13.13,0,0,0-.13-.13A11.369,11.369,0,0,1,4.614,15.448,11.367,11.367,0,0,1,15.453,4.482a.131.131,0,0,0,.129-.131V1.134A.133.133,0,0,0,15.449,1h0a14.448,14.448,0,0,0,0,28.9h0m0,1h0A15.447,15.447,0,0,1,4.525,4.525,15.346,15.346,0,0,1,15.448,0a1.134,1.134,0,0,1,1.134,1.136V4.351a1.133,1.133,0,0,1-1.118,1.13A10.018,10.018,0,0,0,8.6,8.55a9.976,9.976,0,0,0-2.987,6.9,9.978,9.978,0,0,0,2.987,6.9,10.018,10.018,0,0,0,6.862,3.069,1.134,1.134,0,0,1,1.119,1.13v3.217a1.139,1.139,0,0,1-.335.8A1.126,1.126,0,0,1,15.449,30.9Z" fill="#fff"/>
    </g>
    <g>
      <path d="M158,29.762a.133.133,0,0,0,.133.133h0a14.449,14.449,0,0,0,0-28.9.133.133,0,0,0-.134.133V4.349a.131.131,0,0,0,.131.131h0a11.368,11.368,0,0,1,10.838,10.967,11.367,11.367,0,0,1-10.838,10.967.131.131,0,0,0-.13.131Z" fill="none"/>
      <path d="M158.133,29.9h0a14.449,14.449,0,0,0,0-28.9h0a.133.133,0,0,0-.133.133V4.35a.131.131,0,0,0,.131.13,11.369,11.369,0,0,1,10.838,10.968,11.37,11.37,0,0,1-10.838,10.967.13.13,0,0,0-.13.13v3.217a.133.133,0,0,0,.133.133m.006,1h-.006a1.127,1.127,0,0,1-.8-.329,1.14,1.14,0,0,1-.335-.8V26.545a1.134,1.134,0,0,1,1.119-1.13,10.018,10.018,0,0,0,6.862-3.069,9.976,9.976,0,0,0,2.987-6.9,9.978,9.978,0,0,0-2.987-6.9A10.018,10.018,0,0,0,158.12,5.48,1.131,1.131,0,0,1,157,4.35V1.132a1.14,1.14,0,0,1,.334-.8,1.126,1.126,0,0,1,.8-.33h.011a15.449,15.449,0,0,1,0,30.9Z" fill="#fff"/>
    </g>
  </g>
</svg>
