<svg xmlns="http://www.w3.org/2000/svg" width="70.361mm" height="10.899mm" viewBox="0 0 199.448 30.895">
  <g style="isolation: isolate">
    <g style="isolation: isolate">
      <path d="M51.251,20.378h-8.4L41,25.363H37.446L45.174,5.511h3.893L56.8,25.363H53.127Zm-7.224-3.107h6.047L47.05,9.151Z" fill="#fff"/>
      <path d="M59.455,25.363V5.511h7.028c5.4,0,9.66,3.584,9.66,9.968,0,6.356-4.312,9.884-9.688,9.884Zm6.888-3.08c3.444,0,6.3-2.212,6.3-6.8,0-4.648-2.828-6.888-6.272-6.888H62.815V22.283Z" fill="#fff"/>
      <path d="M91.627,5.511h3.555l-7.5,19.852H84.262L76.87,5.511h3.64l5.544,15.456Z" fill="#fff"/>
      <path d="M97.842,25.363V5.511h3.416V25.363Z" fill="#fff"/>
      <path d="M116.042,11.111a3.663,3.663,0,0,0-3.892-3.052,3.136,3.136,0,0,0-3.416,2.856,2.571,2.571,0,0,0,2.324,2.547l2.856.589c3.5.7,5.376,2.911,5.376,5.712,0,3.08-2.492,6.02-7.028,6.02-5.04,0-7.364-3.248-7.672-6.1l3.136-.9a4.267,4.267,0,0,0,4.536,3.976c2.38,0,3.612-1.2,3.612-2.744,0-1.288-.952-2.324-2.66-2.688l-2.8-.588c-3.024-.616-5.04-2.6-5.04-5.572,0-3.332,3.052-6.076,6.748-6.076,4.676,0,6.5,2.856,6.944,5.068Z" fill="#fff"/>
      <path d="M131.582,5.091A9.959,9.959,0,0,1,141.69,15.422a10.1,10.1,0,1,1-20.188,0A9.937,9.937,0,0,1,131.582,5.091Zm0,17.5c3.36,0,6.664-2.38,6.664-7.168s-3.3-7.168-6.664-7.168c-3.332,0-6.636,2.381-6.636,7.168S128.25,22.59,131.582,22.59Z" fill="#fff"/>
      <path d="M151.1,17.523h-2.464v7.84h-3.388V5.511h7.616a5.859,5.859,0,0,1,6.216,6.02,5.6,5.6,0,0,1-4.48,5.656l4.48,8.176H155.27Zm1.148-2.968c2.072,0,3.416-1.2,3.416-3.024,0-1.848-1.344-3.052-3.416-3.052h-3.612v6.076Z" fill="#fff"/>
    </g>
  </g>
  <g>
    <g>
      <path d="M15.582,29.764a.133.133,0,0,1-.133.133h0a14.45,14.45,0,0,1,0-28.9.134.134,0,0,1,.134.132V4.351a.131.131,0,0,1-.13.131A11.368,11.368,0,0,0,4.614,15.449,11.368,11.368,0,0,0,15.452,26.416a.131.131,0,0,1,.13.131Z" fill="none"/>
      <path d="M15.449,29.9a.133.133,0,0,0,.133-.133V26.547a.131.131,0,0,0-.13-.131A11.368,11.368,0,0,1,4.614,15.449,11.369,11.369,0,0,1,15.453,4.482a.131.131,0,0,0,.129-.131V1.134A.131.131,0,0,0,15.449,1h0a14.448,14.448,0,0,0,0,28.9h0m0,1h0A15.448,15.448,0,0,1,4.525,4.525,15.345,15.345,0,0,1,15.448,0a1.134,1.134,0,0,1,1.134,1.136V4.351a1.134,1.134,0,0,1-1.118,1.131A10.014,10.014,0,0,0,8.6,8.551a9.974,9.974,0,0,0-2.987,6.9,9.974,9.974,0,0,0,2.987,6.9,10.013,10.013,0,0,0,6.862,3.069,1.135,1.135,0,0,1,1.119,1.131v3.217A1.134,1.134,0,0,1,15.449,30.9Z" fill="#fff"/>
    </g>
    <g>
      <path d="M184,29.763a.134.134,0,0,0,.133.133h0a14.449,14.449,0,0,0,0-28.9.133.133,0,0,0-.134.133V4.35a.131.131,0,0,0,.131.131h0a11.368,11.368,0,0,1,10.838,10.967,11.368,11.368,0,0,1-10.838,10.967.131.131,0,0,0-.13.131Z" fill="none"/>
      <path d="M184.133,29.9h0a14.448,14.448,0,0,0,0-28.895h0a.133.133,0,0,0-.133.133V4.35a.131.131,0,0,0,.131.131,11.368,11.368,0,0,1,10.838,10.967,11.368,11.368,0,0,1-10.838,10.967.131.131,0,0,0-.13.131v3.217a.131.131,0,0,0,.133.132m.006,1h-.006a1.126,1.126,0,0,1-.8-.328,1.147,1.147,0,0,1-.335-.8V26.546a1.135,1.135,0,0,1,1.119-1.131,10.013,10.013,0,0,0,6.862-3.069,9.974,9.974,0,0,0,2.987-6.9,9.979,9.979,0,0,0-2.986-6.9,10.018,10.018,0,0,0-6.863-3.069A1.133,1.133,0,0,1,183,4.35V1.133a1.144,1.144,0,0,1,.334-.8,1.129,1.129,0,0,1,.8-.329h.011a15.442,15.442,0,0,1,10.825,26.316A15.37,15.37,0,0,1,184.144,30.9Z" fill="#fff"/>
    </g>
  </g>
</svg>
