<svg xmlns="http://www.w3.org/2000/svg" width="127mm" height="10.9mm" viewBox="0 0 360 30.897">
  <g style="isolation: isolate">
    <g style="isolation: isolate">
      <path d="M50.328,4.938A9.96,9.96,0,0,1,60.436,15.27a10.1,10.1,0,1,1-20.188,0A9.938,9.938,0,0,1,50.328,4.938Zm0,17.5c3.36,0,6.664-2.379,6.664-7.167S53.688,8.1,50.328,8.1c-3.332,0-6.636,2.38-6.636,7.168S47,22.437,50.328,22.437Z" fill="#fff"/>
      <path d="M63.992,25.21V5.358H76.341V8.522H67.352v5.572h8.064V17.2H67.352V25.21Z" fill="#fff"/>
      <path d="M79.588,25.21V5.358H91.936V8.522H82.948v5.572h8.064V17.2H82.948V25.21Z" fill="#fff"/>
      <path d="M95.183,25.21V5.358h3.361v16.66h9.1V25.21Z" fill="#fff"/>
      <path d="M110.723,25.21V5.358h3.416V25.21Z" fill="#fff"/>
      <path d="M132.059,25.21l-9.8-15.036V25.21H118.9V5.358h4.284L132.2,19.442V5.358h3.36V25.21Z" fill="#fff"/>
      <path d="M140.319,25.21V5.358h12.264V8.494h-8.9v5.264h8.064V16.81h-8.064v5.264h8.9V25.21Z" fill="#fff"/>
      <path d="M163.558,25.21V5.358h12.264V8.494h-8.9v5.264h8.064V16.81h-8.064v5.264h8.9V25.21Z" fill="#fff"/>
      <path d="M188.59,15.3l6.58,9.912h-4.032l-4.621-7.252-4.675,7.252h-3.949l6.637-9.94-6.58-9.912h4.032l4.619,7.28,4.649-7.28H195.2Z" fill="#fff"/>
      <path d="M210.681,25.21V16.726h-9.324V25.21H198V5.358h3.359v8.2h9.324v-8.2h3.389V25.21Z" fill="#fff"/>
      <path d="M218.829,25.21V5.358h3.416V25.21Z" fill="#fff"/>
      <path d="M233.837,5.358c3.808,0,6.048,2.24,6.048,5.348a4.42,4.42,0,0,1-2.94,4.284,4.754,4.754,0,0,1,3.556,4.732c0,3.192-2.464,5.488-6.16,5.488h-7.336V5.358Zm-.448,8.4c1.96,0,3.136-1.12,3.136-2.772,0-1.68-1.176-2.772-3.22-2.772h-2.968v5.544Zm.364,8.6c2.016,0,3.332-1.091,3.332-2.855,0-1.708-1.148-2.912-3.22-2.912h-3.528v5.767Z" fill="#fff"/>
      <path d="M244,25.21V5.358h3.416V25.21Z" fill="#fff"/>
      <path d="M259.961,8.522V25.21H256.6V8.522h-6.44V5.358h16.268V8.522Z" fill="#fff"/>
      <path d="M269.173,25.21V5.358h3.416V25.21Z" fill="#fff"/>
      <path d="M286.224,4.938A9.96,9.96,0,0,1,296.333,15.27a10.1,10.1,0,1,1-20.189,0A9.938,9.938,0,0,1,286.224,4.938Zm0,17.5c3.361,0,6.664-2.379,6.664-7.167s-3.3-7.168-6.664-7.168c-3.332,0-6.635,2.38-6.635,7.168S282.892,22.437,286.224,22.437Z" fill="#fff"/>
      <path d="M313.049,25.21l-9.8-15.036V25.21h-3.36V5.358h4.285l9.015,14.084V5.358h3.361V25.21Z" fill="#fff"/>
    </g>
  </g>
  <g>
    <g>
      <path d="M15.582,29.764a.134.134,0,0,1-.133.133h0a14.45,14.45,0,0,1,0-28.9.134.134,0,0,1,.134.132V4.351a.131.131,0,0,1-.13.131A11.368,11.368,0,0,0,4.614,15.449,11.368,11.368,0,0,0,15.452,26.416a.131.131,0,0,1,.13.131Z" fill="none"/>
      <path d="M15.449,29.9a.133.133,0,0,0,.133-.133V26.547a.131.131,0,0,0-.13-.131A11.368,11.368,0,0,1,4.614,15.449,11.369,11.369,0,0,1,15.453,4.482a.131.131,0,0,0,.129-.131V1.134a.136.136,0,0,0-.039-.095A.133.133,0,0,0,15.449,1h0a14.449,14.449,0,0,0,0,28.9h0m0,1h0A15.448,15.448,0,0,1,4.525,4.525,15.346,15.346,0,0,1,15.448,0a1.134,1.134,0,0,1,1.134,1.137V4.351a1.134,1.134,0,0,1-1.118,1.131A10.014,10.014,0,0,0,8.6,8.551a9.974,9.974,0,0,0-2.987,6.9,9.974,9.974,0,0,0,2.987,6.9,10.013,10.013,0,0,0,6.862,3.069,1.135,1.135,0,0,1,1.119,1.131v3.217A1.134,1.134,0,0,1,15.449,30.9Z" fill="#fff"/>
    </g>
    <g>
      <path d="M344.552,29.763a.134.134,0,0,0,.133.133h0a14.449,14.449,0,0,0,0-28.9.133.133,0,0,0-.134.133V4.35a.131.131,0,0,0,.131.131h0a11.368,11.368,0,0,1,10.838,10.967,11.368,11.368,0,0,1-10.838,10.967.131.131,0,0,0-.13.131Z" fill="none"/>
      <path d="M344.685,29.9h0a14.448,14.448,0,0,0,0-28.895h0a.133.133,0,0,0-.133.133V4.35a.131.131,0,0,0,.131.131,11.368,11.368,0,0,1,10.838,10.967,11.368,11.368,0,0,1-10.838,10.967.131.131,0,0,0-.13.131v3.217a.131.131,0,0,0,.133.132m.006,1h-.006a1.126,1.126,0,0,1-.8-.328,1.147,1.147,0,0,1-.335-.8V26.546a1.135,1.135,0,0,1,1.119-1.131,10.013,10.013,0,0,0,6.862-3.069,9.974,9.974,0,0,0,2.987-6.9,9.979,9.979,0,0,0-2.986-6.9,10.018,10.018,0,0,0-6.863-3.069,1.133,1.133,0,0,1-1.12-1.131V1.133a1.141,1.141,0,0,1,.335-.8,1.125,1.125,0,0,1,.8-.329h.011a15.442,15.442,0,0,1,10.825,26.316A15.37,15.37,0,0,1,344.7,30.9Z" fill="#fff"/>
    </g>
  </g>
</svg>
