<svg xmlns="http://www.w3.org/2000/svg" width="75.653mm" height="10.9mm" viewBox="0 0 214.448 30.897">
  <g style="isolation: isolate">
    <g style="isolation: isolate">
      <path d="M40.286,15.3a9.945,9.945,0,0,1,10-10.359c5.04,0,8.036,2.968,8.932,6.439L56.05,12.442A5.509,5.509,0,0,0,50.282,8.1c-3.276,0-6.552,2.381-6.552,7.2,0,4.649,3.192,7.113,6.58,7.113a5.926,5.926,0,0,0,5.908-4.368l3.08,1.007A8.907,8.907,0,0,1,50.31,25.63C44.962,25.63,40.286,21.766,40.286,15.3Z" fill="#fff"/>
      <path d="M71.366,4.938A9.959,9.959,0,0,1,81.474,15.269a10.1,10.1,0,1,1-20.188,0A9.937,9.937,0,0,1,71.366,4.938Zm0,17.5c3.36,0,6.664-2.381,6.664-7.169S74.726,8.1,71.366,8.1c-3.332,0-6.636,2.381-6.636,7.168S68.034,22.438,71.366,22.438Z" fill="#fff"/>
      <path d="M98.19,25.21l-9.8-15.037V25.21H85.03V5.358h4.284L98.33,19.442V5.358h3.36V25.21Z" fill="#fff"/>
      <path d="M114.234,8.522V25.21h-3.36V8.522h-6.44V5.358H120.7V8.522Z" fill="#fff"/>
      <path d="M133.33,20.225h-8.4l-1.848,4.985h-3.556l7.728-19.852h3.892l7.728,19.852h-3.668Zm-7.224-3.107h6.048L129.13,9Z" fill="#fff"/>
      <path d="M139.49,15.3a9.945,9.945,0,0,1,10-10.359c5.04,0,8.036,2.968,8.932,6.439l-3.164,1.065A5.509,5.509,0,0,0,149.486,8.1c-3.276,0-6.552,2.381-6.552,7.2,0,4.649,3.192,7.113,6.58,7.113a5.926,5.926,0,0,0,5.908-4.368l3.08,1.007a8.907,8.907,0,0,1-8.988,6.581C144.166,25.63,139.49,21.766,139.49,15.3Z" fill="#fff"/>
      <path d="M169.507,8.522V25.21h-3.36V8.522h-6.441V5.358h16.268V8.522Z" fill="#fff"/>
    </g>
  </g>
  <g>
    <g>
      <path d="M15.582,29.764a.133.133,0,0,1-.133.133h0a14.45,14.45,0,0,1,0-28.9.134.134,0,0,1,.134.132V4.351a.131.131,0,0,1-.13.131A11.368,11.368,0,0,0,4.614,15.449,11.368,11.368,0,0,0,15.452,26.416a.131.131,0,0,1,.13.131Z" fill="none"/>
      <path d="M15.449,29.9a.133.133,0,0,0,.133-.133V26.547a.131.131,0,0,0-.13-.131A11.368,11.368,0,0,1,4.614,15.449,11.369,11.369,0,0,1,15.453,4.482a.131.131,0,0,0,.129-.131V1.134A.131.131,0,0,0,15.449,1h0a14.448,14.448,0,0,0,0,28.9h0m0,1h0A15.448,15.448,0,0,1,4.525,4.525,15.345,15.345,0,0,1,15.448,0a1.134,1.134,0,0,1,1.134,1.136V4.351a1.134,1.134,0,0,1-1.118,1.131A10.014,10.014,0,0,0,8.6,8.551a9.974,9.974,0,0,0-2.987,6.9,9.974,9.974,0,0,0,2.987,6.9,10.013,10.013,0,0,0,6.862,3.069,1.135,1.135,0,0,1,1.119,1.131v3.217A1.134,1.134,0,0,1,15.449,30.9Z" fill="#fff"/>
    </g>
    <g>
      <path d="M199,29.763a.134.134,0,0,0,.133.133h0a14.449,14.449,0,0,0,0-28.9.133.133,0,0,0-.134.133V4.35a.131.131,0,0,0,.131.131h0a11.368,11.368,0,0,1,10.838,10.967,11.368,11.368,0,0,1-10.838,10.967.131.131,0,0,0-.13.131Z" fill="none"/>
      <path d="M199.133,29.9h0a14.448,14.448,0,0,0,0-28.895h0a.133.133,0,0,0-.133.133V4.35a.131.131,0,0,0,.131.131,11.368,11.368,0,0,1,10.838,10.967,11.368,11.368,0,0,1-10.838,10.967.131.131,0,0,0-.13.131v3.217a.131.131,0,0,0,.133.132m.006,1h-.006a1.126,1.126,0,0,1-.8-.328,1.147,1.147,0,0,1-.335-.8V26.546a1.135,1.135,0,0,1,1.119-1.131,10.013,10.013,0,0,0,6.862-3.069,9.974,9.974,0,0,0,2.987-6.9,9.979,9.979,0,0,0-2.986-6.9,10.018,10.018,0,0,0-6.863-3.069A1.133,1.133,0,0,1,198,4.35V1.133a1.141,1.141,0,0,1,.335-.8,1.125,1.125,0,0,1,.8-.329h.011a15.442,15.442,0,0,1,10.825,26.316A15.37,15.37,0,0,1,199.144,30.9Z" fill="#fff"/>
    </g>
  </g>
</svg>
