<svg xmlns="http://www.w3.org/2000/svg" xmlns:xlink="http://www.w3.org/1999/xlink" width="86.055mm" height="19.345mm" viewBox="0 0 243.936 54.837">
  <defs>
    <clipPath id="a">
      <rect x="1.915" y="-7.824" width="244.107" height="62.328" fill="none"/>
    </clipPath>
    <clipPath id="b">
      <rect x="1.915" y="-7.824" width="244.107" height="62.329" fill="none"/>
    </clipPath>
  </defs>
  <g clip-path="url(#a)">
    <g clip-path="url(#b)">
      <path d="M18.2,53.594a.15.15,0,0,1-.151.149,16.257,16.257,0,0,1,0-32.514.15.15,0,0,1,.151.149V25.57a.147.147,0,0,1-.145.146,11.771,11.771,0,0,0,0,23.541.146.146,0,0,1,.145.145Z" fill="#231815"/>
      <path d="M91.517,53.594V49.4a.146.146,0,0,1,.145-.145,11.771,11.771,0,0,0,0-23.541.147.147,0,0,1-.145-.146V21.378a.15.15,0,0,1,.151-.149,16.257,16.257,0,0,1,0,32.514.15.15,0,0,1-.151-.149" fill="#231815"/>
      <path d="M195.469,53.48h4.286a.145.145,0,0,0,.145-.145V20.113a.145.145,0,0,0-.145-.145h-4.286a.145.145,0,0,0-.146.145V53.335a.145.145,0,0,0,.146.145" fill="#231815"/>
    </g>
    <rect x="237.506" y="20.014" width="4.576" height="17.277" fill="#231815"/>
    <g clip-path="url(#b)">
      <path d="M213.86,36.172l7.206-6.77a.307.307,0,0,1,.233-.087,7.023,7.023,0,0,1,6.2,6.656.3.3,0,0,0,.295.285h4.147a.3.3,0,0,0,.3-.29c.055-2.388-1.942-7.767-6.821-9.543a.293.293,0,0,1-.076-.5l5.333-4.791a.146.146,0,0,0-.094-.257H209.4a.3.3,0,0,0-.3.3v3.254a.3.3,0,0,0,.3.3h10.006a.3.3,0,0,1,.2.516l-11.463,10.5a.3.3,0,0,0,.2.516h5.307a.3.3,0,0,0,.207-.084" fill="#231815"/>
      <path d="M219.916,49.432c1.721-5.116,12.37-6.436,17.546-2.219a.136.136,0,0,1,.044.107v2.159a.147.147,0,0,1-.148.147h-17.3a.149.149,0,0,1-.143-.194m17.369-6.4c-11.492-4.837-20.463.8-21.886,6.481a.145.145,0,0,1-.142.11h-1.429a.148.148,0,0,1-.148-.147v-10.4a.148.148,0,0,0-.148-.148h-4.28a.148.148,0,0,0-.148.148V53.138a.148.148,0,0,0,.148.148h32.682a.149.149,0,0,0,.149-.148V39.074a.149.149,0,0,0-.149-.148h-4.28a.148.148,0,0,0-.148.148v3.835a.15.15,0,0,1-.221.126" fill="#231815"/>
      <path d="M172.122,44.255c-2.734-5.528,3.557-11.155,10.664-10.366a.718.718,0,0,0,.589-.2l3.286-3.352a.15.15,0,0,0-.112-.255h-9.808a.15.15,0,0,1-.1-.269l10.884-8.406a.15.15,0,0,0-.1-.269H165.85a.152.152,0,0,0-.155.151v3.589a.154.154,0,0,0,.155.152h9.791a.15.15,0,0,1,.1.269l-6.183,4.783L164.85,33.7a.15.15,0,0,0,.1.269h4.628a.324.324,0,0,1,.224.565c-1.129,1.022-4.681,6.7-1.31,12.092a11.2,11.2,0,0,0,9.346,5.207c5.815,0,9.764-2.5,11.917-6.328a.151.151,0,0,0-.051-.2L186.311,43.5a.154.154,0,0,0-.219.054c-2.878,5.281-11.437,5.828-13.97.7" fill="#231815"/>
      <path d="M120.251,41.39h17.262a.145.145,0,0,1,.145.145V54.359a.145.145,0,0,0,.145.145h4.286a.145.145,0,0,0,.145-.145V41.535a.145.145,0,0,1,.146-.145h17.261a.145.145,0,0,0,.145-.145V37.53a.145.145,0,0,0-.145-.145h-39.39a.145.145,0,0,0-.146.145v3.715a.145.145,0,0,0,.146.145" fill="#231815"/>
      <path d="M139.957,22.689c9.957,0,11.419,3.277,11.419,5.107,0,3.616-6.155,4.888-11.435,4.888-9.459,0-11.435-2.653-11.435-4.888,0-3.617,6.172-5.107,11.451-5.107m-.011,13.828c9.724,0,16.234-2.982,16.234-8.579,0-7.778-10.435-8.909-16.234-8.909-9.723,0-16.234,3.312-16.234,8.909,0,4.078,3.4,8.579,16.234,8.579" fill="#231815"/>
      <g>
        <path d="M25.676,6.641,24.261,8.154v3H22.889V1.22h1.372V6.333L28.912,1.22h1.807L26.586,5.647l4.189,5.5H29.038Z" fill="none" stroke="#231815" stroke-width="0.2"/>
        <path d="M41.618,11.152V3.42l-3.39,7.732h-1.26L33.606,3.42v7.732H32.247V1.22H34.11l3.5,8.082,3.53-8.082h1.835v9.932Z" fill="none" stroke="#231815" stroke-width="0.2"/>
        <path d="M45.36,7.762V1.22h1.359v6.5a2.211,2.211,0,1,0,4.412,0V1.22H52.5V7.762a3.572,3.572,0,1,1-7.144,0Z" fill="none" stroke="#231815" stroke-width="0.2"/>
        <path d="M61.247,1.22h1.442l-3.824,9.932H57.506L53.767,1.22h1.456l3,8.166Z" fill="none" stroke="#231815" stroke-width="0.2"/>
        <path d="M63.111,6.179a4.922,4.922,0,0,1,4.93-5.169,4.219,4.219,0,0,1,4.371,3.152l-1.275.448a2.941,2.941,0,0,0-3.1-2.339,3.559,3.559,0,0,0-3.529,3.908A3.572,3.572,0,0,0,68.041,10.1,3.157,3.157,0,0,0,71.207,7.72l1.219.448a4.336,4.336,0,0,1-4.385,3.194A4.879,4.879,0,0,1,63.111,6.179Z" fill="none" stroke="#231815" stroke-width="0.2"/>
        <path d="M74.249,11.152V1.22h3.473a4.609,4.609,0,0,1,4.721,4.987,4.6,4.6,0,0,1-4.749,4.945Zm3.4-1.219c1.835,0,3.376-1.233,3.376-3.726,0-2.508-1.513-3.768-3.348-3.768H75.621V9.933Z" fill="none" stroke="#231815" stroke-width="0.2"/>
        <path d="M95.332,11.152l-.126-1.4a3.536,3.536,0,0,1-3.18,1.611,4.81,4.81,0,0,1-4.818-5.183A4.894,4.894,0,0,1,92.124,1.01a4.419,4.419,0,0,1,4.4,3l-1.246.532a3.133,3.133,0,0,0-3.152-2.269c-1.779,0-3.516,1.275-3.516,3.908s1.681,3.936,3.46,3.936a2.822,2.822,0,0,0,3.068-2.591H91.69V6.291h4.748v4.861Z" fill="none" stroke="#231815" stroke-width="0.2"/>
        <path d="M102.155,5.745a3.961,3.961,0,0,0-.574-.042c-1.107,0-1.849.588-1.849,2.073v3.376H98.415V4.414H99.7V5.591A2.109,2.109,0,0,1,101.721,4.3a2.476,2.476,0,0,1,.434.042Z" fill="none" stroke="#231815" stroke-width="0.2"/>
        <path d="M105.182,7.3,107,7.033c.407-.056.519-.266.519-.5,0-.658-.435-1.2-1.457-1.2a1.431,1.431,0,0,0-1.527,1.359l-1.261-.294a2.6,2.6,0,0,1,2.76-2.185c2.017,0,2.8,1.148,2.8,2.465v3.376a6.457,6.457,0,0,0,.084,1.107h-1.288a4.94,4.94,0,0,1-.07-.911,2.458,2.458,0,0,1-2.171,1.121,2.1,2.1,0,0,1-2.256-2.018A2.083,2.083,0,0,1,105.182,7.3Zm2.339.966V7.958l-2.059.308a1.007,1.007,0,0,0-.981,1.009,1.022,1.022,0,0,0,1.093.98A1.767,1.767,0,0,0,107.521,8.266Z" fill="none" stroke="#231815" stroke-width="0.2"/>
        <path d="M115.6,10.129a2.256,2.256,0,0,1-2.087,1.205c-1.975,0-3.194-1.569-3.194-3.572a3.311,3.311,0,0,1,3.194-3.53,2.071,2.071,0,0,1,2.059,1.134V1.01h1.3V9.9a10.679,10.679,0,0,0,.07,1.247h-1.275a5.667,5.667,0,0,1-.07-.911Zm-1.961.042c1.2,0,1.947-1.051,1.947-2.437s-.728-2.34-1.933-2.34-1.989.981-1.989,2.368S112.383,10.171,113.643,10.171Z" fill="none" stroke="#231815" stroke-width="0.2"/>
        <path d="M121.5,11.362a2.492,2.492,0,0,1-2.521-2.7V4.414H120.3V8.462c0,.924.42,1.737,1.527,1.737a1.523,1.523,0,0,0,1.6-1.723V4.414h1.316V9.9a11.063,11.063,0,0,0,.071,1.247h-1.261a5.991,5.991,0,0,1-.056-.813A2.2,2.2,0,0,1,121.5,11.362Z" fill="none" stroke="#231815" stroke-width="0.2"/>
        <path d="M128.6,7.3l1.821-.267c.407-.056.519-.266.519-.5,0-.658-.435-1.2-1.457-1.2a1.43,1.43,0,0,0-1.527,1.359L126.7,6.389A2.6,2.6,0,0,1,129.46,4.2c2.017,0,2.8,1.148,2.8,2.465v3.376a6.35,6.35,0,0,0,.084,1.107h-1.288a4.94,4.94,0,0,1-.07-.911,2.46,2.46,0,0,1-2.172,1.121,2.1,2.1,0,0,1-2.255-2.018A2.083,2.083,0,0,1,128.6,7.3Zm2.34.966V7.958l-2.059.308a1.007,1.007,0,0,0-.981,1.009,1.022,1.022,0,0,0,1.093.98A1.767,1.767,0,0,0,130.945,8.266Z" fill="none" stroke="#231815" stroke-width="0.2"/>
        <path d="M136.073,4.414h1.456V5.605h-1.456v3.5c0,.616.252.924.938.924a2.664,2.664,0,0,0,.518-.056V11.1a2.88,2.88,0,0,1-.9.126A1.749,1.749,0,0,1,134.756,9.3v-3.7h-1.289V4.414h.365a.942.942,0,0,0,1.036-1.037V2.285h1.205Z" fill="none" stroke="#231815" stroke-width="0.2"/>
        <path d="M139.926.912a.946.946,0,1,1-.939.952A.944.944,0,0,1,139.926.912Zm-.645,10.24V4.414h1.3v6.738Z" fill="none" stroke="#231815" stroke-width="0.2"/>
        <path d="M149.157,7.776a3.448,3.448,0,1,1-6.891,0,3.448,3.448,0,1,1,6.891,0Zm-1.345,0a2.119,2.119,0,1,0-4.2,0,2.121,2.121,0,1,0,4.2,0Z" fill="none" stroke="#231815" stroke-width="0.2"/>
        <path d="M152.156,11.152h-1.317V4.414h1.288v.967A2.308,2.308,0,0,1,154.2,4.218a2.365,2.365,0,0,1,2.409,2.661v4.273h-1.317V7.1c0-.938-.392-1.695-1.568-1.695-1.037,0-1.569.827-1.569,1.85Z" fill="none" stroke="#231815" stroke-width="0.2"/>
        <path d="M162.355,11.152V1.22h6.038V2.5h-4.665V5.549h4.23V6.837h-4.23v3.04h4.665v1.275Z" fill="none" stroke="#231815" stroke-width="0.2"/>
        <path d="M171.881,7.72l-2.423-3.306h1.6l1.652,2.367,1.625-2.367h1.555l-2.4,3.306c.406.546,2.073,2.885,2.48,3.432h-1.583l-1.737-2.48-1.709,2.48h-1.569Z" fill="none" stroke="#231815" stroke-width="0.2"/>
        <path d="M178.55,11.152h-1.317V1.01h1.317V5.2A2.483,2.483,0,0,1,183,6.879v4.273h-1.317V7.1c0-.938-.392-1.695-1.569-1.695-1.008,0-1.541.785-1.568,1.779Z" fill="none" stroke="#231815" stroke-width="0.2"/>
        <path d="M185.751.912a.946.946,0,1,1-.939.952A.945.945,0,0,1,185.751.912Zm-.645,10.24V4.414h1.3v6.738Z" fill="none" stroke="#231815" stroke-width="0.2"/>
        <path d="M188.651,11.152V1.01h1.3V5.366a2.46,2.46,0,0,1,2.228-1.148c2.045,0,3.095,1.569,3.095,3.53,0,2-1.134,3.586-3.137,3.586a2.406,2.406,0,0,1-2.186-1.163v.981Zm3.291-5.771a2.087,2.087,0,0,0-2,2.367c0,1.456.841,2.409,2,2.409,1.2,0,1.99-.953,1.99-2.409S193.161,5.381,191.942,5.381Z" fill="none" stroke="#231815" stroke-width="0.2"/>
        <path d="M197.6.912a.946.946,0,1,1-.939.952A.945.945,0,0,1,197.6.912Zm-.645,10.24V4.414h1.3v6.738Z" fill="none" stroke="#231815" stroke-width="0.2"/>
        <path d="M202.269,4.414h1.457V5.605h-1.457v3.5c0,.616.251.924.938.924a2.684,2.684,0,0,0,.519-.056V11.1a2.894,2.894,0,0,1-.9.126A1.749,1.749,0,0,1,200.952,9.3v-3.7h-1.289V4.414h.364a.942.942,0,0,0,1.036-1.037V2.285h1.206Z" fill="none" stroke="#231815" stroke-width="0.2"/>
        <path d="M206.12.912a.946.946,0,1,1-.938.952A.945.945,0,0,1,206.12.912Zm-.644,10.24V4.414h1.3v6.738Z" fill="none" stroke="#231815" stroke-width="0.2"/>
        <path d="M215.353,7.776a3.449,3.449,0,1,1-6.892,0,3.448,3.448,0,1,1,6.892,0Zm-1.345,0a2.119,2.119,0,1,0-4.2,0,2.121,2.121,0,1,0,4.2,0Z" fill="none" stroke="#231815" stroke-width="0.2"/>
        <path d="M218.352,11.152h-1.318V4.414h1.289v.967A2.307,2.307,0,0,1,220.4,4.218a2.365,2.365,0,0,1,2.41,2.661v4.273h-1.317V7.1c0-.938-.392-1.695-1.569-1.695-1.036,0-1.568.827-1.568,1.85Z" fill="none" stroke="#231815" stroke-width="0.2"/>
      </g>
    </g>
    <g>
      <path d="M25.676,6.641,24.261,8.154v3H22.889V1.22h1.372V6.333L28.912,1.22h1.807L26.586,5.647l4.189,5.5H29.038Z" fill="#231815"/>
      <path d="M41.618,11.152V3.42l-3.39,7.732h-1.26L33.606,3.42v7.732H32.247V1.22H34.11l3.5,8.082,3.53-8.082h1.835v9.932Z" fill="#231815"/>
      <path d="M45.36,7.762V1.22h1.359v6.5a2.211,2.211,0,1,0,4.412,0V1.22H52.5V7.762a3.572,3.572,0,1,1-7.144,0Z" fill="#231815"/>
      <path d="M61.247,1.22h1.442l-3.824,9.932H57.506L53.767,1.22h1.456l3,8.166Z" fill="#231815"/>
      <path d="M63.111,6.179a4.922,4.922,0,0,1,4.93-5.169,4.219,4.219,0,0,1,4.371,3.152l-1.275.448a2.941,2.941,0,0,0-3.1-2.339,3.559,3.559,0,0,0-3.529,3.908A3.572,3.572,0,0,0,68.041,10.1,3.157,3.157,0,0,0,71.207,7.72l1.219.448a4.336,4.336,0,0,1-4.385,3.194A4.879,4.879,0,0,1,63.111,6.179Z" fill="#231815"/>
      <path d="M74.249,11.152V1.22h3.473a4.609,4.609,0,0,1,4.721,4.987,4.6,4.6,0,0,1-4.749,4.945Zm3.4-1.219c1.835,0,3.376-1.233,3.376-3.726,0-2.508-1.513-3.768-3.348-3.768H75.621V9.933Z" fill="#231815"/>
      <path d="M95.332,11.152l-.126-1.4a3.536,3.536,0,0,1-3.18,1.611,4.81,4.81,0,0,1-4.818-5.183A4.894,4.894,0,0,1,92.124,1.01a4.419,4.419,0,0,1,4.4,3l-1.246.532a3.133,3.133,0,0,0-3.152-2.269c-1.779,0-3.516,1.275-3.516,3.908s1.681,3.936,3.46,3.936a2.822,2.822,0,0,0,3.068-2.591H91.69V6.291h4.748v4.861Z" fill="#231815"/>
      <path d="M102.155,5.745a3.961,3.961,0,0,0-.574-.042c-1.107,0-1.849.588-1.849,2.073v3.376H98.415V4.414H99.7V5.591A2.109,2.109,0,0,1,101.721,4.3a2.476,2.476,0,0,1,.434.042Z" fill="#231815"/>
      <path d="M105.182,7.3,107,7.033c.407-.056.519-.266.519-.5,0-.658-.435-1.2-1.457-1.2a1.431,1.431,0,0,0-1.527,1.359l-1.261-.294a2.6,2.6,0,0,1,2.76-2.185c2.017,0,2.8,1.148,2.8,2.465v3.376a6.457,6.457,0,0,0,.084,1.107h-1.288a4.94,4.94,0,0,1-.07-.911,2.458,2.458,0,0,1-2.171,1.121,2.1,2.1,0,0,1-2.256-2.018A2.083,2.083,0,0,1,105.182,7.3Zm2.339.966V7.958l-2.059.308a1.007,1.007,0,0,0-.981,1.009,1.022,1.022,0,0,0,1.093.98A1.767,1.767,0,0,0,107.521,8.266Z" fill="#231815"/>
      <path d="M115.6,10.129a2.256,2.256,0,0,1-2.087,1.205c-1.975,0-3.194-1.569-3.194-3.572a3.311,3.311,0,0,1,3.194-3.53,2.071,2.071,0,0,1,2.059,1.134V1.01h1.3V9.9a10.679,10.679,0,0,0,.07,1.247h-1.275a5.667,5.667,0,0,1-.07-.911Zm-1.961.042c1.2,0,1.947-1.051,1.947-2.437s-.728-2.34-1.933-2.34-1.989.981-1.989,2.368S112.383,10.171,113.643,10.171Z" fill="#231815"/>
      <path d="M121.5,11.362a2.492,2.492,0,0,1-2.521-2.7V4.414H120.3V8.462c0,.924.42,1.737,1.527,1.737a1.523,1.523,0,0,0,1.6-1.723V4.414h1.316V9.9a11.063,11.063,0,0,0,.071,1.247h-1.261a5.991,5.991,0,0,1-.056-.813A2.2,2.2,0,0,1,121.5,11.362Z" fill="#231815"/>
      <path d="M128.6,7.3l1.821-.267c.407-.056.519-.266.519-.5,0-.658-.435-1.2-1.457-1.2a1.43,1.43,0,0,0-1.527,1.359L126.7,6.389A2.6,2.6,0,0,1,129.46,4.2c2.017,0,2.8,1.148,2.8,2.465v3.376a6.35,6.35,0,0,0,.084,1.107h-1.288a4.94,4.94,0,0,1-.07-.911,2.46,2.46,0,0,1-2.172,1.121,2.1,2.1,0,0,1-2.255-2.018A2.083,2.083,0,0,1,128.6,7.3Zm2.34.966V7.958l-2.059.308a1.007,1.007,0,0,0-.981,1.009,1.022,1.022,0,0,0,1.093.98A1.767,1.767,0,0,0,130.945,8.266Z" fill="#231815"/>
      <path d="M136.073,4.414h1.456V5.605h-1.456v3.5c0,.616.252.924.938.924a2.664,2.664,0,0,0,.518-.056V11.1a2.88,2.88,0,0,1-.9.126A1.749,1.749,0,0,1,134.756,9.3v-3.7h-1.289V4.414h.365a.942.942,0,0,0,1.036-1.037V2.285h1.205Z" fill="#231815"/>
      <path d="M139.926.912a.946.946,0,1,1-.939.952A.944.944,0,0,1,139.926.912Zm-.645,10.24V4.414h1.3v6.738Z" fill="#231815"/>
      <path d="M149.157,7.776a3.448,3.448,0,1,1-6.891,0,3.448,3.448,0,1,1,6.891,0Zm-1.345,0a2.119,2.119,0,1,0-4.2,0,2.121,2.121,0,1,0,4.2,0Z" fill="#231815"/>
      <path d="M152.156,11.152h-1.317V4.414h1.288v.967A2.308,2.308,0,0,1,154.2,4.218a2.365,2.365,0,0,1,2.409,2.661v4.273h-1.317V7.1c0-.938-.392-1.695-1.568-1.695-1.037,0-1.569.827-1.569,1.85Z" fill="#231815"/>
      <path d="M162.355,11.152V1.22h6.038V2.5h-4.665V5.549h4.23V6.837h-4.23v3.04h4.665v1.275Z" fill="#231815"/>
      <path d="M171.881,7.72l-2.423-3.306h1.6l1.652,2.367,1.625-2.367h1.555l-2.4,3.306c.406.546,2.073,2.885,2.48,3.432h-1.583l-1.737-2.48-1.709,2.48h-1.569Z" fill="#231815"/>
      <path d="M178.55,11.152h-1.317V1.01h1.317V5.2A2.483,2.483,0,0,1,183,6.879v4.273h-1.317V7.1c0-.938-.392-1.695-1.569-1.695-1.008,0-1.541.785-1.568,1.779Z" fill="#231815"/>
      <path d="M185.751.912a.946.946,0,1,1-.939.952A.945.945,0,0,1,185.751.912Zm-.645,10.24V4.414h1.3v6.738Z" fill="#231815"/>
      <path d="M188.651,11.152V1.01h1.3V5.366a2.46,2.46,0,0,1,2.228-1.148c2.045,0,3.095,1.569,3.095,3.53,0,2-1.134,3.586-3.137,3.586a2.406,2.406,0,0,1-2.186-1.163v.981Zm3.291-5.771a2.087,2.087,0,0,0-2,2.367c0,1.456.841,2.409,2,2.409,1.2,0,1.99-.953,1.99-2.409S193.161,5.381,191.942,5.381Z" fill="#231815"/>
      <path d="M197.6.912a.946.946,0,1,1-.939.952A.945.945,0,0,1,197.6.912Zm-.645,10.24V4.414h1.3v6.738Z" fill="#231815"/>
      <path d="M202.269,4.414h1.457V5.605h-1.457v3.5c0,.616.251.924.938.924a2.684,2.684,0,0,0,.519-.056V11.1a2.894,2.894,0,0,1-.9.126A1.749,1.749,0,0,1,200.952,9.3v-3.7h-1.289V4.414h.364a.942.942,0,0,0,1.036-1.037V2.285h1.206Z" fill="#231815"/>
      <path d="M206.12.912a.946.946,0,1,1-.938.952A.945.945,0,0,1,206.12.912Zm-.644,10.24V4.414h1.3v6.738Z" fill="#231815"/>
      <path d="M215.353,7.776a3.449,3.449,0,1,1-6.892,0,3.448,3.448,0,1,1,6.892,0Zm-1.345,0a2.119,2.119,0,1,0-4.2,0,2.121,2.121,0,1,0,4.2,0Z" fill="#231815"/>
      <path d="M218.352,11.152h-1.318V4.414h1.289v.967A2.307,2.307,0,0,1,220.4,4.218a2.365,2.365,0,0,1,2.41,2.661v4.273h-1.317V7.1c0-.938-.392-1.695-1.569-1.695-1.036,0-1.568.827-1.568,1.85Z" fill="#231815"/>
    </g>
  </g>
</svg>
