<svg xmlns="http://www.w3.org/2000/svg" xmlns:xlink="http://www.w3.org/1999/xlink" width="86.055mm" height="19.345mm" viewBox="0 0 243.936 54.837"><defs><clipPath id="a"><path d="M1.915-7.824h244.107v62.328H1.915z" fill="none"/></clipPath><clipPath id="b"><path d="M1.915-7.824h244.107v62.329H1.915z" fill="none"/></clipPath></defs><g clip-path="url(#a)"><g clip-path="url(#b)"><path d="M18.2 53.594a.15.15.0 0 1-.151.149 16.257 16.257.0 0 1 0-32.514.15.15.0 0 1 .151.149V25.57a.147.147.0 0 1-.145.146 11.771 11.771.0 0 0 0 23.541.146.146.0 0 1 .145.145z" fill="#fff"/><path d="M91.517 53.594V49.4a.146.146.0 0 1 .145-.145 11.771 11.771.0 0 0 0-23.541.147.147.0 0 1-.145-.146V21.378a.15.15.0 0 1 .151-.149 16.257 16.257.0 0 1 0 32.514.15.15.0 0 1-.151-.149" fill="#fff"/><path d="M195.469 53.48h4.286a.145.145.0 0 0 .145-.145V20.113a.145.145.0 0 0-.145-.145h-4.286a.145.145.0 0 0-.146.145V53.335a.145.145.0 0 0 .146.145" fill="#fff"/></g><path d="M237.506 20.014h4.576v17.277H237.506z" fill="#fff"/><g clip-path="url(#b)"><path d="M213.86 36.172l7.206-6.77a.307.307.0 0 1 .233-.087 7.023 7.023.0 0 1 6.2 6.656.3.3.0 0 0 .295.285h4.147a.3.3.0 0 0 .3-.29c.055-2.388-1.942-7.767-6.821-9.543a.293.293.0 0 1-.076-.5l5.333-4.791a.146.146.0 0 0-.094-.257H209.4a.3.3.0 0 0-.3.3v3.254a.3.3.0 0 0 .3.3h10.006a.3.3.0 0 1 .2.516l-11.463 10.5a.3.3.0 0 0 .2.516h5.307a.3.3.0 0 0 .207-.084" fill="#fff"/><path d="M219.916 49.432c1.721-5.116 12.37-6.436 17.546-2.219a.136.136.0 0 1 .044.107v2.159a.147.147.0 0 1-.148.147h-17.3a.149.149.0 0 1-.143-.194m17.369-6.4c-11.492-4.837-20.463.8-21.886 6.481a.145.145.0 0 1-.142.11h-1.429a.148.148.0 0 1-.148-.147v-10.4a.148.148.0 0 0-.148-.148h-4.28a.148.148.0 0 0-.148.148V53.138a.148.148.0 0 0 .148.148h32.682a.149.149.0 0 0 .149-.148V39.074a.149.149.0 0 0-.149-.148h-4.28a.148.148.0 0 0-.148.148v3.835a.15.15.0 0 1-.221.126" fill="#fff"/><path d="M172.122 44.255c-2.734-5.528 3.557-11.155 10.664-10.366a.718.718.0 0 0 .589-.2l3.286-3.352a.15.15.0 0 0-.112-.255h-9.808a.15.15.0 0 1-.1-.269l10.884-8.406a.15.15.0 0 0-.1-.269H165.85a.152.152.0 0 0-.155.151v3.589a.154.154.0 0 0 .155.152h9.791a.15.15.0 0 1 .1.269l-6.183 4.783L164.85 33.7a.15.15.0 0 0 .1.269h4.628a.324.324.0 0 1 .224.565c-1.129 1.022-4.681 6.7-1.31 12.092a11.2 11.2.0 0 0 9.346 5.207c5.815.0 9.764-2.5 11.917-6.328a.151.151.0 0 0-.051-.2L186.311 43.5a.154.154.0 0 0-.219.054c-2.878 5.281-11.437 5.828-13.97.7" fill="#fff"/><path d="M120.251 41.39h17.262a.145.145.0 0 1 .145.145V54.359a.145.145.0 0 0 .145.145h4.286a.145.145.0 0 0 .145-.145V41.535a.145.145.0 0 1 .146-.145h17.261a.145.145.0 0 0 .145-.145V37.53a.145.145.0 0 0-.145-.145h-39.39a.145.145.0 0 0-.146.145v3.715a.145.145.0 0 0 .146.145" fill="#fff"/><path d="M139.957 22.689c9.957.0 11.419 3.277 11.419 5.107.0 3.616-6.155 4.888-11.435 4.888-9.459.0-11.435-2.653-11.435-4.888.0-3.617 6.172-5.107 11.451-5.107m-.011 13.828c9.724.0 16.234-2.982 16.234-8.579.0-7.778-10.435-8.909-16.234-8.909-9.723.0-16.234 3.312-16.234 8.909.0 4.078 3.4 8.579 16.234 8.579" fill="#fff"/><g><path d="M25.675 6.641 24.261 8.154v3H22.888V1.22h1.373V6.333L28.912 1.22h1.806L26.587 5.647l4.187 5.5H29.038z" fill="none" stroke="#fff" stroke-width=".2"/><path d="M41.618 11.152V3.42l-3.39 7.732H36.967L33.6 3.42v7.732H32.247V1.22H34.11l3.5 8.082L41.141 1.22h1.835v9.932z" fill="none" stroke="#fff" stroke-width=".2"/><path d="M45.359 7.762V1.22h1.359v6.5a2.211 2.211.0 1 0 4.412.0V1.22H52.5V7.762a3.573 3.573.0 1 1-7.145.0z" fill="none" stroke="#fff" stroke-width=".2"/><path d="M61.246 1.22h1.442l-3.823 9.932h-1.36L53.765 1.22h1.457l3 8.166z" fill="none" stroke="#fff" stroke-width=".2"/><path d="M63.11 6.179A4.923 4.923.0 0 1 68.041 1.01a4.22 4.22.0 0 1 4.371 3.152l-1.276.448a2.94 2.94.0 0 0-3.095-2.339 3.56 3.56.0 0 0-3.53 3.908 3.572 3.572.0 0 0 3.53 3.922A3.158 3.158.0 0 0 71.207 7.72l1.218.448a4.336 4.336.0 0 1-4.384 3.194A4.88 4.88.0 0 1 63.11 6.179z" fill="none" stroke="#fff" stroke-width=".2"/><path d="M74.248 11.152V1.22h3.473a4.609 4.609.0 0 1 4.721 4.987 4.6 4.6.0 0 1-4.749 4.945zm3.4-1.219c1.835.0 3.376-1.233 3.376-3.726.0-2.508-1.513-3.768-3.348-3.768H75.621V9.933z" fill="none" stroke="#fff" stroke-width=".2"/><path d="M95.332 11.152l-.126-1.4a3.536 3.536.0 0 1-3.18 1.611 4.811 4.811.0 0 1-4.819-5.183A4.894 4.894.0 0 1 92.124 1.01a4.419 4.419.0 0 1 4.4 3l-1.247.532a3.132 3.132.0 0 0-3.151-2.269c-1.78.0-3.516 1.275-3.516 3.908s1.681 3.936 3.46 3.936a2.82 2.82.0 0 0 3.067-2.591H91.689V6.291h4.749v4.861z" fill="none" stroke="#fff" stroke-width=".2"/><path d="M102.155 5.745a3.961 3.961.0 0 0-.574-.042c-1.107.0-1.849.588-1.849 2.073v3.376H98.416V4.414H99.7V5.591A2.109 2.109.0 0 1 101.721 4.3a2.465 2.465.0 0 1 .434.042z" fill="none" stroke="#fff" stroke-width=".2"/><path d="M105.18 7.3 107 7.033c.406-.056.518-.266.518-.5.0-.658-.434-1.2-1.457-1.2a1.429 1.429.0 0 0-1.526 1.359l-1.261-.294A2.6 2.6.0 0 1 106.035 4.2c2.017.0 2.8 1.148 2.8 2.465v3.376a6.246 6.246.0 0 0 .084 1.107h-1.289a4.94 4.94.0 0 1-.07-.911 2.458 2.458.0 0 1-2.171 1.121 2.1 2.1.0 0 1-2.256-2.018A2.083 2.083.0 0 1 105.18 7.3zm2.34.966V7.958l-2.059.308a1.007 1.007.0 0 0-.981 1.009 1.022 1.022.0 0 0 1.093.98A1.767 1.767.0 0 0 107.52 8.266z" fill="none" stroke="#fff" stroke-width=".2"/><path d="M115.6 10.129a2.256 2.256.0 0 1-2.087 1.205c-1.974.0-3.193-1.569-3.193-3.572a3.31 3.31.0 0 1 3.193-3.53 2.073 2.073.0 0 1 2.06 1.134V1.01h1.3V9.9a10.782 10.782.0 0 0 .069 1.247h-1.275a5.667 5.667.0 0 1-.07-.911zm-1.961.042c1.2.0 1.947-1.051 1.947-2.437s-.728-2.34-1.932-2.34-1.989.981-1.989 2.368S112.381 10.171 113.642 10.171z" fill="none" stroke="#fff" stroke-width=".2"/><path d="M121.5 11.362a2.492 2.492.0 0 1-2.522-2.7V4.414H120.3V8.462c0 .924.42 1.737 1.528 1.737a1.523 1.523.0 0 0 1.6-1.723V4.414h1.317V9.9a11.368 11.368.0 0 0 .07 1.247h-1.261a5.991 5.991.0 0 1-.056-.813A2.194 2.194.0 0 1 121.5 11.362z" fill="none" stroke="#fff" stroke-width=".2"/><path d="M128.6 7.3l1.821-.267c.407-.056.519-.266.519-.5.0-.658-.435-1.2-1.457-1.2a1.429 1.429.0 0 0-1.526 1.359L126.7 6.389A2.6 2.6.0 0 1 129.46 4.2c2.017.0 2.8 1.148 2.8 2.465v3.376a6.35 6.35.0 0 0 .084 1.107h-1.288a4.94 4.94.0 0 1-.07-.911 2.458 2.458.0 0 1-2.171 1.121 2.1 2.1.0 0 1-2.256-2.018A2.083 2.083.0 0 1 128.6 7.3zm2.34.966V7.958l-2.06.308a1.008 1.008.0 0 0-.98 1.009 1.022 1.022.0 0 0 1.093.98A1.767 1.767.0 0 0 130.945 8.266z" fill="none" stroke="#fff" stroke-width=".2"/><path d="M136.073 4.414h1.457V5.605h-1.457v3.5c0 .616.252.924.938.924a2.675 2.675.0 0 0 .519-.056V11.1a2.883 2.883.0 0 1-.9.126A1.749 1.749.0 0 1 134.755 9.3v-3.7h-1.288V4.414h.365a.942.942.0 0 0 1.036-1.037V2.285h1.205z" fill="none" stroke="#fff" stroke-width=".2"/><path d="M139.924.912a.946.946.0 1 1-.938.952A.945.945.0 0 1 139.924.912zm-.643 10.24V4.414h1.3v6.738z" fill="none" stroke="#fff" stroke-width=".2"/><path d="M149.157 7.776a3.449 3.449.0 1 1-6.892.0 3.448 3.448.0 1 1 6.892.0zm-1.345.0a2.119 2.119.0 1 0-4.2.0 2.121 2.121.0 1 0 4.2.0z" fill="none" stroke="#fff" stroke-width=".2"/><path d="M152.156 11.152h-1.317V4.414h1.289v.967A2.307 2.307.0 0 1 154.2 4.218a2.365 2.365.0 0 1 2.409 2.661v4.273h-1.316V7.1c0-.938-.393-1.695-1.57-1.695-1.036.0-1.568.827-1.568 1.85z" fill="none" stroke="#fff" stroke-width=".2"/><path d="M162.355 11.152V1.22h6.037V2.5h-4.664V5.549h4.23V6.837h-4.23v3.04h4.664v1.275z" fill="none" stroke="#fff" stroke-width=".2"/><path d="M171.88 7.72l-2.423-3.306h1.6l1.653 2.367 1.625-2.367h1.554L173.492 7.72c.405.546 2.072 2.885 2.478 3.432h-1.582l-1.737-2.48-1.709 2.48h-1.569z" fill="none" stroke="#fff" stroke-width=".2"/><path d="M178.549 11.152h-1.317V1.01h1.317V5.2A2.484 2.484.0 0 1 183 6.879v4.273h-1.317V7.1c0-.938-.392-1.695-1.569-1.695-1.008.0-1.54.785-1.569 1.779z" fill="none" stroke="#fff" stroke-width=".2"/><path d="M185.751.912a.946.946.0 1 1-.939.952A.945.945.0 0 1 185.751.912zm-.644 10.24V4.414h1.3v6.738z" fill="none" stroke="#fff" stroke-width=".2"/><path d="M188.65 11.152V1.01h1.3V5.366a2.458 2.458.0 0 1 2.227-1.148c2.045.0 3.1 1.569 3.1 3.53.0 2-1.135 3.586-3.138 3.586a2.4 2.4.0 0 1-2.185-1.163v.981zm3.292-5.771a2.087 2.087.0 0 0-2 2.367c0 1.456.841 2.409 2 2.409 1.2.0 1.989-.953 1.989-2.409S193.161 5.381 191.942 5.381z" fill="none" stroke="#fff" stroke-width=".2"/><path d="M197.6.912a.946.946.0 1 1-.938.952A.945.945.0 0 1 197.6.912zm-.643 10.24V4.414h1.3v6.738z" fill="none" stroke="#fff" stroke-width=".2"/><path d="M202.268 4.414h1.457V5.605h-1.457v3.5c0 .616.252.924.939.924a2.664 2.664.0 0 0 .518-.056V11.1a2.88 2.88.0 0 1-.9.126A1.749 1.749.0 0 1 200.951 9.3v-3.7h-1.288V4.414h.364a.942.942.0 0 0 1.036-1.037V2.285h1.205z" fill="none" stroke="#fff" stroke-width=".2"/><path d="M206.12.912a.946.946.0 1 1-.939.952A.945.945.0 0 1 206.12.912zm-.644 10.24V4.414h1.3v6.738z" fill="none" stroke="#fff" stroke-width=".2"/><path d="M215.352 7.776a3.448 3.448.0 1 1-6.891.0 3.448 3.448.0 1 1 6.891.0zm-1.345.0a2.119 2.119.0 1 0-4.2.0 2.121 2.121.0 1 0 4.2.0z" fill="none" stroke="#fff" stroke-width=".2"/><path d="M218.351 11.152h-1.316V4.414h1.288v.967A2.307 2.307.0 0 1 220.4 4.218a2.365 2.365.0 0 1 2.409 2.661v4.273h-1.316V7.1c0-.938-.393-1.695-1.569-1.695-1.037.0-1.569.827-1.569 1.85z" fill="none" stroke="#fff" stroke-width=".2"/></g></g><g><path d="M25.675 6.641 24.261 8.154v3H22.888V1.22h1.373V6.333L28.912 1.22h1.806L26.587 5.647l4.187 5.5H29.038z" fill="#fff"/><path d="M41.618 11.152V3.42l-3.39 7.732H36.967L33.6 3.42v7.732H32.247V1.22H34.11l3.5 8.082L41.141 1.22h1.835v9.932z" fill="#fff"/><path d="M45.359 7.762V1.22h1.359v6.5a2.211 2.211.0 1 0 4.412.0V1.22H52.5V7.762a3.573 3.573.0 1 1-7.145.0z" fill="#fff"/><path d="M61.246 1.22h1.442l-3.823 9.932h-1.36L53.765 1.22h1.457l3 8.166z" fill="#fff"/><path d="M63.11 6.179A4.923 4.923.0 0 1 68.041 1.01a4.22 4.22.0 0 1 4.371 3.152l-1.276.448a2.94 2.94.0 0 0-3.095-2.339 3.56 3.56.0 0 0-3.53 3.908 3.572 3.572.0 0 0 3.53 3.922A3.158 3.158.0 0 0 71.207 7.72l1.218.448a4.336 4.336.0 0 1-4.384 3.194A4.88 4.88.0 0 1 63.11 6.179z" fill="#fff"/><path d="M74.248 11.152V1.22h3.473a4.609 4.609.0 0 1 4.721 4.987 4.6 4.6.0 0 1-4.749 4.945zm3.4-1.219c1.835.0 3.376-1.233 3.376-3.726.0-2.508-1.513-3.768-3.348-3.768H75.621V9.933z" fill="#fff"/><path d="M95.332 11.152l-.126-1.4a3.536 3.536.0 0 1-3.18 1.611 4.811 4.811.0 0 1-4.819-5.183A4.894 4.894.0 0 1 92.124 1.01a4.419 4.419.0 0 1 4.4 3l-1.247.532a3.132 3.132.0 0 0-3.151-2.269c-1.78.0-3.516 1.275-3.516 3.908s1.681 3.936 3.46 3.936a2.82 2.82.0 0 0 3.067-2.591H91.689V6.291h4.749v4.861z" fill="#fff"/><path d="M102.155 5.745a3.961 3.961.0 0 0-.574-.042c-1.107.0-1.849.588-1.849 2.073v3.376H98.416V4.414H99.7V5.591A2.109 2.109.0 0 1 101.721 4.3a2.465 2.465.0 0 1 .434.042z" fill="#fff"/><path d="M105.18 7.3 107 7.033c.406-.056.518-.266.518-.5.0-.658-.434-1.2-1.457-1.2a1.429 1.429.0 0 0-1.526 1.359l-1.261-.294A2.6 2.6.0 0 1 106.035 4.2c2.017.0 2.8 1.148 2.8 2.465v3.376a6.246 6.246.0 0 0 .084 1.107h-1.289a4.94 4.94.0 0 1-.07-.911 2.458 2.458.0 0 1-2.171 1.121 2.1 2.1.0 0 1-2.256-2.018A2.083 2.083.0 0 1 105.18 7.3zm2.34.966V7.958l-2.059.308a1.007 1.007.0 0 0-.981 1.009 1.022 1.022.0 0 0 1.093.98A1.767 1.767.0 0 0 107.52 8.266z" fill="#fff"/><path d="M115.6 10.129a2.256 2.256.0 0 1-2.087 1.205c-1.974.0-3.193-1.569-3.193-3.572a3.31 3.31.0 0 1 3.193-3.53 2.073 2.073.0 0 1 2.06 1.134V1.01h1.3V9.9a10.782 10.782.0 0 0 .069 1.247h-1.275a5.667 5.667.0 0 1-.07-.911zm-1.961.042c1.2.0 1.947-1.051 1.947-2.437s-.728-2.34-1.932-2.34-1.989.981-1.989 2.368S112.381 10.171 113.642 10.171z" fill="#fff"/><path d="M121.5 11.362a2.492 2.492.0 0 1-2.522-2.7V4.414H120.3V8.462c0 .924.42 1.737 1.528 1.737a1.523 1.523.0 0 0 1.6-1.723V4.414h1.317V9.9a11.368 11.368.0 0 0 .07 1.247h-1.261a5.991 5.991.0 0 1-.056-.813A2.194 2.194.0 0 1 121.5 11.362z" fill="#fff"/><path d="M128.6 7.3l1.821-.267c.407-.056.519-.266.519-.5.0-.658-.435-1.2-1.457-1.2a1.429 1.429.0 0 0-1.526 1.359L126.7 6.389A2.6 2.6.0 0 1 129.46 4.2c2.017.0 2.8 1.148 2.8 2.465v3.376a6.35 6.35.0 0 0 .084 1.107h-1.288a4.94 4.94.0 0 1-.07-.911 2.458 2.458.0 0 1-2.171 1.121 2.1 2.1.0 0 1-2.256-2.018A2.083 2.083.0 0 1 128.6 7.3zm2.34.966V7.958l-2.06.308a1.008 1.008.0 0 0-.98 1.009 1.022 1.022.0 0 0 1.093.98A1.767 1.767.0 0 0 130.945 8.266z" fill="#fff"/><path d="M136.073 4.414h1.457V5.605h-1.457v3.5c0 .616.252.924.938.924a2.675 2.675.0 0 0 .519-.056V11.1a2.883 2.883.0 0 1-.9.126A1.749 1.749.0 0 1 134.755 9.3v-3.7h-1.288V4.414h.365a.942.942.0 0 0 1.036-1.037V2.285h1.205z" fill="#fff"/><path d="M139.924.912a.946.946.0 1 1-.938.952A.945.945.0 0 1 139.924.912zm-.643 10.24V4.414h1.3v6.738z" fill="#fff"/><path d="M149.157 7.776a3.449 3.449.0 1 1-6.892.0 3.448 3.448.0 1 1 6.892.0zm-1.345.0a2.119 2.119.0 1 0-4.2.0 2.121 2.121.0 1 0 4.2.0z" fill="#fff"/><path d="M152.156 11.152h-1.317V4.414h1.289v.967A2.307 2.307.0 0 1 154.2 4.218a2.365 2.365.0 0 1 2.409 2.661v4.273h-1.316V7.1c0-.938-.393-1.695-1.57-1.695-1.036.0-1.568.827-1.568 1.85z" fill="#fff"/><path d="M162.355 11.152V1.22h6.037V2.5h-4.664V5.549h4.23V6.837h-4.23v3.04h4.664v1.275z" fill="#fff"/><path d="M171.88 7.72l-2.423-3.306h1.6l1.653 2.367 1.625-2.367h1.554L173.492 7.72c.405.546 2.072 2.885 2.478 3.432h-1.582l-1.737-2.48-1.709 2.48h-1.569z" fill="#fff"/><path d="M178.549 11.152h-1.317V1.01h1.317V5.2A2.484 2.484.0 0 1 183 6.879v4.273h-1.317V7.1c0-.938-.392-1.695-1.569-1.695-1.008.0-1.54.785-1.569 1.779z" fill="#fff"/><path d="M185.751.912a.946.946.0 1 1-.939.952A.945.945.0 0 1 185.751.912zm-.644 10.24V4.414h1.3v6.738z" fill="#fff"/><path d="M188.65 11.152V1.01h1.3V5.366a2.458 2.458.0 0 1 2.227-1.148c2.045.0 3.1 1.569 3.1 3.53.0 2-1.135 3.586-3.138 3.586a2.4 2.4.0 0 1-2.185-1.163v.981zm3.292-5.771a2.087 2.087.0 0 0-2 2.367c0 1.456.841 2.409 2 2.409 1.2.0 1.989-.953 1.989-2.409S193.161 5.381 191.942 5.381z" fill="#fff"/><path d="M197.6.912a.946.946.0 1 1-.938.952A.945.945.0 0 1 197.6.912zm-.643 10.24V4.414h1.3v6.738z" fill="#fff"/><path d="M202.268 4.414h1.457V5.605h-1.457v3.5c0 .616.252.924.939.924a2.664 2.664.0 0 0 .518-.056V11.1a2.88 2.88.0 0 1-.9.126A1.749 1.749.0 0 1 200.951 9.3v-3.7h-1.288V4.414h.364a.942.942.0 0 0 1.036-1.037V2.285h1.205z" fill="#fff"/><path d="M206.12.912a.946.946.0 1 1-.939.952A.945.945.0 0 1 206.12.912zm-.644 10.24V4.414h1.3v6.738z" fill="#fff"/><path d="M215.352 7.776a3.448 3.448.0 1 1-6.891.0 3.448 3.448.0 1 1 6.891.0zm-1.345.0a2.119 2.119.0 1 0-4.2.0 2.121 2.121.0 1 0 4.2.0z" fill="#fff"/><path d="M218.351 11.152h-1.316V4.414h1.288v.967A2.307 2.307.0 0 1 220.4 4.218a2.365 2.365.0 0 1 2.409 2.661v4.273h-1.316V7.1c0-.938-.393-1.695-1.569-1.695-1.037.0-1.569.827-1.569 1.85z" fill="#fff"/></g></g></svg>