<svg xmlns="http://www.w3.org/2000/svg" width="52.322mm" height="13.463mm" viewBox="0 0 148.314 38.164">
  <g>
    <g style="isolation: isolate">
      <path d="M58.535,33.115V27.454h1.476v1.727h2.375V27.442h1.475v5.673Zm3.851-2.759H60.011v1.583h2.375Zm-2.279,7.436V34.063h1.487v2.53h5.781v1.2Zm6.98-6.752v3.778H65.6V26.771h1.488v3.022h1.679V31.04Z" fill="#696969"/>
      <path d="M73.641,37.948V34.086H69.324v-1.2h10.17v1.2H75.14v3.862ZM75.224,27v.564c0,1.7,1.895,2.974,3.67,3.19l-.635,1.2a5.368,5.368,0,0,1-3.838-2.542A5.215,5.215,0,0,1,70.6,31.964l-.648-1.212c1.871-.264,3.658-1.475,3.658-3.19V27Z" fill="#696969"/>
      <path d="M80.747,27.454h5.937v1.224H84.537a3.37,3.37,0,0,0,2.543,3.07l-.768,1.175a4.589,4.589,0,0,1-2.518-2.194,4.638,4.638,0,0,1-2.639,2.482l-.827-1.151A3.7,3.7,0,0,0,83,28.678H80.747Zm5.422,10.71c-2.207,0-3.6-.924-3.6-2.362s1.391-2.4,3.6-2.4c2.23,0,3.61.949,3.61,2.4S88.4,38.164,86.169,38.164Zm0-3.55c-1.284,0-2.087.455-2.087,1.188,0,.7.8,1.151,2.087,1.151,1.319,0,2.11-.456,2.11-1.151C88.279,35.069,87.488,34.614,86.169,34.614Zm2.122-1.259V30.608H86.432V29.4h1.859V26.771h1.488v6.584Z" fill="#696969"/>
    </g>
    <g>
      <g>
        <g style="isolation: isolate">
          <path d="M120.972,13.036h-5.4l-1.189,3.205H112.1l4.97-12.766h2.5l4.969,12.766h-2.359Zm-4.646-2h3.89l-1.945-5.222Z" fill="#696969"/>
        </g>
        <g style="isolation: isolate">
          <path d="M128.494,11.614l-.252.288-3.529-2.917,3.529-2.936.252.288L127.216,8.48h8.39l-1.26-2.143.252-.288,3.511,2.936L134.6,11.9l-.252-.288,1.26-2.125h-8.39Z" fill="#696969"/>
        </g>
        <g style="isolation: isolate">
          <path d="M144.029,3.475c2.449,0,3.889,1.441,3.889,3.439a2.843,2.843,0,0,1-1.89,2.755,3.056,3.056,0,0,1,2.286,3.043c0,2.052-1.584,3.529-3.961,3.529h-4.718V3.475Zm-.288,5.4a1.783,1.783,0,0,0,2.017-1.783c0-1.081-.757-1.783-2.071-1.783h-1.908V8.877Zm.234,5.527c1.3,0,2.142-.7,2.142-1.836a1.836,1.836,0,0,0-2.07-1.873h-2.268V14.4Z" fill="#696969"/>
        </g>
      </g>
      <g>
        <g>
          <path d="M37.958,18.714a.081.081,0,0,1-.082.082h0A8.939,8.939,0,0,1,37.608.92q.134,0,.267,0a.083.083,0,0,1,.083.08V2.991a.08.08,0,0,1-.08.081,7.035,7.035,0,0,0-6.707,6.785,7.034,7.034,0,0,0,6.706,6.786.081.081,0,0,1,.08.081Z" fill="#696969"/>
          <path d="M93.676,18.714a.083.083,0,0,0,.082.083h0a8.939,8.939,0,0,0,0-17.878A.082.082,0,0,0,93.676,1V2.991a.081.081,0,0,0,.081.081,7.034,7.034,0,0,1,6.706,6.786,7.033,7.033,0,0,1-6.706,6.785.082.082,0,0,0-.081.081v1.99Z" fill="#696969"/>
        </g>
        <g style="isolation: isolate">
          <path d="M44.875,10.723V3.167h1.969V5.473h3.169V3.151h1.969v7.572Zm5.138-3.682H46.844V9.154h3.169Zm-3.041,9.924V11.987h1.985v3.377h7.715v1.6Zm9.316-9.012V13H54.3V2.255h1.985V6.289h2.241V7.953Z" fill="#696969"/>
          <path d="M65.021,17.173V12.019H59.259v-1.6H72.833v1.6H67.022v5.154ZM67.134,2.56v.752c0,2.272,2.529,3.969,4.9,4.257l-.849,1.6a7.16,7.16,0,0,1-5.122-3.394c-.688,1.6-2.785,2.994-5.106,3.41l-.864-1.617c2.5-.352,4.881-1.968,4.881-4.257V2.56Z" fill="#696969"/>
          <path d="M74.491,3.167h7.923V4.8H79.549a4.5,4.5,0,0,0,3.394,4.1l-1.025,1.569a6.12,6.12,0,0,1-3.361-2.93,6.188,6.188,0,0,1-3.522,3.314l-1.1-1.537A4.94,4.94,0,0,0,77.5,4.8H74.491Zm7.235,14.294c-2.945,0-4.8-1.232-4.8-3.153,0-1.937,1.857-3.2,4.8-3.2,2.977,0,4.818,1.264,4.818,3.2C86.544,16.229,84.7,17.461,81.726,17.461Zm0-4.737c-1.713,0-2.785.607-2.785,1.584,0,.928,1.072,1.537,2.785,1.537,1.761,0,2.817-.609,2.817-1.537C84.543,13.331,83.487,12.724,81.726,12.724Zm2.833-1.681V7.377H82.078V5.761h2.481V2.255h1.985v8.788Z" fill="#696969"/>
        </g>
      </g>
      <g>
        <circle cx="9.858" cy="9.858" r="9.858" fill="#696969"/>
        <g style="isolation: isolate">
          <path d="M9.028,14.552V8.472H6.843V7.17A2.32,2.32,0,0,0,9.28,5.461h1.667v9.091Z" fill="#fff"/>
        </g>
      </g>
    </g>
  </g>
</svg>
