<svg xmlns="http://www.w3.org/2000/svg" width="68.685mm" height="13.552mm" viewBox="0 0 194.698 38.415">
  <g>
    <g style="isolation: isolate">
      <path d="M83.658,37.744V34.073H81.224V32.862h10.17v1.211H88.936v3.671H87.448V34.073h-2.3v3.671ZM86.3,32.2c-2.135,0-3.742-.972-3.742-2.627,0-1.583,1.571-2.614,3.742-2.614,2.219,0,3.754,1.031,3.754,2.614C90.051,31.231,88.444,32.2,86.3,32.2Zm0-3.982c-1.355,0-2.207.576-2.207,1.355s.852,1.392,2.207,1.392c1.332,0,2.207-.6,2.207-1.392S87.629,28.221,86.3,28.221Z" fill="#696969"/>
      <path d="M98.441,34.817A6.035,6.035,0,0,1,95.8,31.963a5.547,5.547,0,0,1-2.627,3.093l-.9-1.115A5.018,5.018,0,0,0,95,29.108v-.275h-2.22V27.621h5.974v1.212H96.569V29.1a4.736,4.736,0,0,0,2.7,4.569Zm1.7-8.191h1.487V37.443h-1.487Z" fill="#696969"/>
      <path d="M107.622,37.8V33.941H103.3v-1.2h10.17v1.2h-4.353V37.8Zm1.583-10.951v.564c0,1.7,1.895,2.974,3.67,3.19l-.636,1.2a5.365,5.365,0,0,1-3.838-2.542,5.21,5.21,0,0,1-3.826,2.555l-.648-1.212c1.871-.263,3.659-1.474,3.659-3.19v-.564Z" fill="#696969"/>
    </g>
    <g>
      <g style="isolation: isolate">
        <path d="M112.1,16.305V3.54h7.887V5.556h-5.726V8.941h5.186V10.9h-5.186v3.385h5.726v2.016Z" fill="#696969"/>
        <path d="M122.212,16.305V7.537h2V8.653A2.993,2.993,0,0,1,126.8,7.285a2.749,2.749,0,0,1,2.629,1.548,3.074,3.074,0,0,1,2.845-1.548,3.011,3.011,0,0,1,3.1,3.331v5.689h-2.016V10.958a1.6,1.6,0,0,0-1.693-1.8,1.823,1.823,0,0,0-1.818,1.945v5.2h-2.053V10.958a1.6,1.6,0,0,0-1.692-1.8,1.793,1.793,0,0,0-1.819,1.945v5.2Z" fill="#696969"/>
        <path d="M137.925,19.726V7.537h2.017V8.725a3.149,3.149,0,0,1,2.791-1.387c2.592,0,4.051,1.981,4.051,4.574,0,2.629-1.6,4.609-4.123,4.609A3.17,3.17,0,0,1,140,15.315v4.411Zm4.412-10.533a2.437,2.437,0,0,0-2.359,2.719c0,1.675.99,2.755,2.359,2.755,1.386,0,2.359-1.08,2.359-2.755A2.418,2.418,0,0,0,142.337,9.193Z" fill="#696969"/>
        <path d="M151.39,7.537h1.819V9.391H151.39v4.07c0,.774.342,1.1,1.116,1.1a4.609,4.609,0,0,0,.721-.072v1.728a3.288,3.288,0,0,1-1.279.2A2.418,2.418,0,0,1,149.32,13.8V9.391H147.7V7.537h.45a1.243,1.243,0,0,0,1.35-1.368V4.854h1.891Z" fill="#696969"/>
        <path d="M156.375,3.089a1.368,1.368,0,0,1,1.368,1.369,1.359,1.359,0,1,1-1.368-1.369Zm-1.026,13.216V7.537h2.07v8.768Z" fill="#696969"/>
        <path d="M162.207,16.305h-2.088V7.537h2.035v1.17a2.911,2.911,0,0,1,2.592-1.422c2.143,0,3.169,1.548,3.169,3.474v5.546h-2.089V11.12c0-1.08-.486-1.945-1.8-1.945a1.841,1.841,0,0,0-1.819,2.071Z" fill="#696969"/>
        <path d="M178.211,13.8a3.949,3.949,0,0,1-3.961,2.774,4.428,4.428,0,0,1-4.484-4.7,4.4,4.4,0,0,1,4.268-4.61c2.7,0,4.285,1.783,4.285,4.556a3.093,3.093,0,0,1-.054.666h-6.41a2.347,2.347,0,0,0,2.4,2.287,2.115,2.115,0,0,0,2.2-1.53Zm-2-2.844a1.965,1.965,0,0,0-2.161-1.945,2.1,2.1,0,0,0-2.143,1.945Z" fill="#696969"/>
        <path d="M181.359,13.424a1.642,1.642,0,0,0,1.782,1.5c.865,0,1.315-.468,1.315-1.008,0-.469-.324-.828-1.027-.973l-1.3-.288a2.65,2.65,0,0,1-2.359-2.557A3.041,3.041,0,0,1,183,7.266a3.094,3.094,0,0,1,3.385,2.449l-1.764.5A1.506,1.506,0,0,0,183,8.9a1.141,1.141,0,0,0-1.26,1.009.964.964,0,0,0,.882.918l1.332.27c1.657.36,2.521,1.368,2.521,2.664,0,1.333-1.08,2.81-3.313,2.81-2.539,0-3.511-1.657-3.619-2.648Z" fill="#696969"/>
        <path d="M189.584,13.424a1.643,1.643,0,0,0,1.783,1.5c.864,0,1.314-.468,1.314-1.008,0-.469-.324-.828-1.026-.973l-1.3-.288A2.649,2.649,0,0,1,188,10.093a3.041,3.041,0,0,1,3.223-2.827,3.094,3.094,0,0,1,3.385,2.449l-1.765.5a1.506,1.506,0,0,0-1.62-1.314,1.141,1.141,0,0,0-1.26,1.009.963.963,0,0,0,.882.918l1.332.27c1.657.36,2.521,1.368,2.521,2.664,0,1.333-1.081,2.81-3.313,2.81-2.539,0-3.511-1.657-3.619-2.648Z" fill="#696969"/>
      </g>
      <g>
        <g>
          <path d="M38.267,18.714a.082.082,0,0,1-.082.082h0A8.939,8.939,0,1,1,37.917.92q.133,0,.267,0a.083.083,0,0,1,.083.08V2.991a.08.08,0,0,1-.08.081A7.035,7.035,0,0,0,31.48,9.857a7.033,7.033,0,0,0,6.706,6.786.082.082,0,0,1,.08.081Z" fill="#696969"/>
          <path d="M93.985,18.714a.083.083,0,0,0,.082.083h0a8.939,8.939,0,0,0,0-17.878.085.085,0,0,0-.059.024A.082.082,0,0,0,93.985,1V2.991a.081.081,0,0,0,.081.081,7.035,7.035,0,0,1,6.706,6.786,7.033,7.033,0,0,1-6.706,6.785.081.081,0,0,0-.081.081v1.99Z" fill="#696969"/>
        </g>
        <g style="isolation: isolate">
          <path d="M52.138,3.183c-.1,4.242-2.913,6.771-6.77,7.764l-.977-1.569C47.129,8.786,49.5,7.153,49.929,4.8H45.144V3.183ZM47.273,17.349V11.474H56.8v5.875Zm7.539-4.274H49.273V15.78h5.539Zm0-10.708h2v8.371h-2Z" fill="#696969"/>
          <path d="M63.289,3.328c2.449,0,4,2.016,4,4.929s-1.553,4.9-4,4.9c-2.417,0-3.953-2-3.953-4.9S60.872,3.328,63.289,3.328Zm0,8.163c1.2,0,2.065-1.217,2.065-3.25,0-2.017-.865-3.249-2.065-3.249-1.152,0-1.985,1.232-1.985,3.249C61.3,10.274,62.137,11.491,63.289,11.491Zm6.178-9.124h1.985V16.8H69.467Z" fill="#696969"/>
          <path d="M82.411,12.338a37.539,37.539,0,0,1-8.212.689V3.6h1.969v7.732a29.65,29.65,0,0,0,6.05-.561ZM85.4,9.217V16.8H83.419V2.367H85.4V7.553h2.241V9.217Z" fill="#696969"/>
        </g>
      </g>
      <g>
        <circle cx="9.858" cy="9.858" r="9.858" fill="#696969"/>
        <g style="isolation: isolate">
          <path d="M5.893,10.588,9.717,5.461H12.1v5.491h1.5V12.6H12.1v1.948h-1.9V12.6h-4.3Zm4.3-3.111L7.6,10.952h2.592Z" fill="#fff"/>
        </g>
      </g>
    </g>
  </g>
</svg>
