<svg xmlns="http://www.w3.org/2000/svg" width="76.574mm" height="13.105mm" viewBox="0 0 217.06 37.147">
  <g>
    <g style="isolation: isolate">
      <path d="M95.775,27.133c1.835,0,3,1.51,3,3.693s-1.163,3.67-3,3.67c-1.811,0-2.963-1.5-2.963-3.67S93.964,27.133,95.775,27.133Zm0,6.116c.9,0,1.547-.911,1.547-2.435s-.648-2.434-1.547-2.434c-.864,0-1.488.924-1.488,2.434S94.911,33.249,95.775,33.249Zm4.629-6.836h1.487V37.23H100.4Z" fill="#696969"/>
      <path d="M103.564,32.89V31.678h10.171V32.89Zm5.9-6.261v.42c0,1.594,2.027,2.674,3.682,2.83-.132.252-.491.96-.624,1.2-1.559-.228-3.3-1.115-3.873-2.339-.576,1.224-2.231,2.075-3.874,2.327-.12-.252-.492-.947-.612-1.187,1.823-.2,3.682-1.236,3.682-2.83v-.42Zm-.8,11.189c-2.146,0-3.633-.791-3.633-2.182,0-1.368,1.439-2.219,3.61-2.219,2.218,0,3.634.851,3.634,2.219C112.272,37.027,110.785,37.818,108.661,37.818Zm-.023-3.19c-1.26,0-2.111.4-2.111,1.019,0,.6.851.984,2.111.984s2.134-.384,2.134-.984C110.772,35.024,109.909,34.628,108.638,34.628Z" fill="#696969"/>
      <path d="M115.108,32.781V27.156H116.6v1.7h2.374V27.144h1.5v5.637Zm3.862-2.734H116.6V31.57h2.374Zm-2.147,7.387V33.681h1.487v2.554h5.937v1.2Zm5.709-2.938V26.413h1.487V34.5Z" fill="#696969"/>
    </g>
    <g>
      <g style="isolation: isolate">
        <path d="M112.1,10.683V3.127h1.969V5.433h3.169V3.111H119.2v7.572ZM117.233,7h-3.169V9.114h3.169Zm-3.041,9.924V11.947h1.985v3.377h7.715v1.6Zm9.316-9.012v5.042h-1.985V2.215h1.985V6.249h2.241V7.913Z" fill="#696969"/>
        <path d="M135.011,12.827a38.1,38.1,0,0,1-7.956.448V7.209h4.61V4.888h-4.626v-1.6h6.595V8.794H129.04v2.865a26.385,26.385,0,0,0,5.731-.465Zm2.049,3.825V10.506h-2.626V8.89h2.626V6.969h-2.626V5.336h2.626V2.215h1.984V16.652Z" fill="#696969"/>
        <path d="M141.823,4.872h8.052V6.488h-2.9c.337,1.65,1.761,2.53,3.3,2.962L149.33,11a5.888,5.888,0,0,1-3.441-2.642,5.988,5.988,0,0,1-3.569,2.978l-.977-1.553c1.761-.56,3.122-1.585,3.41-3.3h-2.93Zm1.809-2.417h4.482V4.071h-4.482Zm.544,14.742V11.819h9.588V17.2Zm7.587-3.826h-5.586v2.241h5.586Zm0-2.3V2.232h2v8.834Z" fill="#696969"/>
        <path d="M162.865,12.524a27.861,27.861,0,0,1-6.546.448V3.688h5.7V5.305c-.768,0-2.961-.017-3.713-.017v6.034a20.856,20.856,0,0,0,4.37-.368Zm3.986,4.128V9.1h-1.376v6.915h-1.889V2.455h1.889V7.482h1.376V2.215h1.921V16.652Z" fill="#696969"/>
        <path d="M178.817,12.011V10.3c-1.249.049-2.546.08-3.57.08L174.991,8.7c1.473.017,3.361,0,4.914-.063,1.937-.08,3.746-.177,4.914-.32l.144,1.5c-1.057.161-2.689.3-4.162.384v1.809ZM176.608,7.5V2.663h6.882V4.3h-4.914V5.881h4.978V7.5Zm6.418,10c-2.961,0-4.722-1.1-4.722-2.817,0-1.681,1.793-2.833,4.738-2.833s4.706,1.152,4.706,2.833C187.748,16.4,185.955,17.5,183.026,17.5Zm0-4.033c-1.713,0-2.689.5-2.689,1.216s.976,1.216,2.689,1.216c1.729,0,2.673-.511,2.673-1.216S184.755,13.468,183.026,13.468Zm2.689-11.253H187.7v9.7h-1.985Z" fill="#696969"/>
        <path d="M195.617,17.069V11.034h-5.778V9.418h9.315a22.092,22.092,0,0,0,.4-4.85h-7.939V2.919h9.924a31.189,31.189,0,0,1-.512,6.5h2.385v1.616H197.6v6.035Z" fill="#696969"/>
        <path d="M213.987,12.732a43.822,43.822,0,0,1-8.532.463V7.209h4.85V4.9h-4.914V3.3h6.9v5.49h-4.85v2.785a34.609,34.609,0,0,0,6.339-.465Zm1.088-10.517h1.985V16.652h-1.985Z" fill="#696969"/>
      </g>
      <g>
        <circle cx="9.858" cy="9.858" r="9.858" fill="#696969"/>
        <g style="isolation: isolate">
          <path d="M8.079,11.6a1.588,1.588,0,0,0,1.652,1.528,1.508,1.508,0,1,0-.042-3.012,1.858,1.858,0,0,0-1.4.616c-.182-.07-1.568-.546-1.765-.6L7.6,5.461h5.127V7.128H8.919l-.448,2a2.492,2.492,0,0,1,1.638-.561,2.865,2.865,0,0,1,3.11,3.04,3.215,3.215,0,0,1-3.488,3.165A3.283,3.283,0,0,1,6.271,12Z" fill="#fff"/>
        </g>
      </g>
      <g>
        <g>
          <path d="M38.133,18.714a.082.082,0,0,1-.082.082h0A8.939,8.939,0,1,1,37.782.92c.089,0,.178,0,.268,0a.084.084,0,0,1,.083.08V2.991a.08.08,0,0,1-.08.081,7.034,7.034,0,0,0-6.707,6.785,7.032,7.032,0,0,0,6.706,6.786.082.082,0,0,1,.08.081Z" fill="#696969"/>
          <path d="M93.851,18.714a.083.083,0,0,0,.082.083h0a8.939,8.939,0,0,0,0-17.878.083.083,0,0,0-.059.024A.082.082,0,0,0,93.851,1V2.991a.081.081,0,0,0,.081.081,7.035,7.035,0,0,1,6.706,6.786,7.034,7.034,0,0,1-6.706,6.785.082.082,0,0,0-.082.081v1.99Z" fill="#696969"/>
        </g>
        <g style="isolation: isolate">
          <path d="M48.315,3.208c2.448,0,4,2.016,4,4.929,0,2.9-1.553,4.9-4,4.9-2.417,0-3.954-2-3.954-4.9C44.361,5.224,45.9,3.208,48.315,3.208Zm0,8.163c1.2,0,2.065-1.217,2.065-3.25,0-2.017-.865-3.249-2.065-3.249-1.153,0-1.985,1.232-1.985,3.249C46.33,10.154,47.162,11.371,48.315,11.371Zm6.178-9.124h1.985V16.684H54.493Z" fill="#696969"/>
          <path d="M58.7,10.89V9.274H72.27V10.89Zm7.875-8.355V3.1c0,2.129,2.706,3.57,4.914,3.778-.175.336-.656,1.28-.832,1.6-2.081-.3-4.4-1.488-5.17-3.121-.768,1.633-2.977,2.769-5.17,3.106-.16-.337-.656-1.265-.816-1.585C61.93,6.6,64.411,5.224,64.411,3.1v-.56ZM65.5,17.469c-2.865,0-4.85-1.056-4.85-2.913,0-1.825,1.921-2.962,4.818-2.962,2.961,0,4.85,1.137,4.85,2.962C70.317,16.413,68.332,17.469,65.5,17.469Zm-.032-4.257c-1.68,0-2.817.528-2.817,1.36,0,.8,1.137,1.312,2.817,1.312,1.7,0,2.85-.512,2.85-1.312C68.317,13.74,67.164,13.212,65.467,13.212Z" fill="#696969"/>
          <path d="M73.753,10.714V3.159h1.969V5.464h3.169V3.143H80.86v7.571Zm5.138-3.681H75.722V9.146h3.169ZM75.85,16.957V11.979h1.985v3.377h7.714v1.6Zm9.316-9.012v5.042H83.181V2.247h1.985V6.281h2.24V7.945Z" fill="#696969"/>
        </g>
      </g>
    </g>
  </g>
</svg>
