<svg xmlns="http://www.w3.org/2000/svg" width="95.285mm" height="13.387mm" viewBox="0 0 270.1 37.947">
  <g>
    <g style="isolation: isolate">
      <path d="M125.49,27.333c-.072,3.179-2.183,5.073-5.074,5.817l-.731-1.176c2.051-.443,3.826-1.667,4.15-3.429h-3.587V27.333Zm-3.646,10.614v-4.4h7.136v4.4Zm5.649-3.2h-4.15v2.026h4.15Zm0-8.024h1.5v6.273h-1.5Z" fill="#696969"/>
      <path d="M136.422,27.705a8.257,8.257,0,0,1-5.026,7.712l-.875-1.176a6.717,6.717,0,0,0,4.306-5.289h-3.67V27.705Zm2.986,4.161v5.673h-1.487V26.721h1.487v3.9h1.7v1.247Z" fill="#696969"/>
      <path d="M149.045,35.5c-.887.119-2.375.227-3.742.287-1.1.049-2.434.1-3.49.1l-.18-1.272c.936.012,2.387-.012,3.49-.048,1.487-.048,3-.156,3.826-.252Zm-7.124-5.65V28.7h6.668v1.151Zm3.382,4.042c-1.619,0-2.686-.756-2.686-1.871s1.163-1.871,2.686-1.871c1.571,0,2.7.768,2.7,1.883S146.97,33.893,145.3,33.893Zm-1.619-5.649V27.081h3.19v1.163Zm.348,3.778c0,.432.5.8,1.271.8s1.271-.372,1.271-.8-.492-.8-1.271-.8S144.032,31.579,144.032,32.022Zm5.493-5.3h1.5V37.647h-1.5Z" fill="#696969"/>
    </g>
    <g>
      <g style="isolation: isolate">
        <path d="M120.147,9.658a38.929,38.929,0,0,1-8.052.512V3.223h6.691v1.6h-4.738V8.553a29.529,29.529,0,0,0,5.89-.464Zm-1.457,7.731c-2.9,0-4.722-1.248-4.722-3.169s1.825-3.2,4.722-3.2c2.913,0,4.738,1.28,4.738,3.2S121.6,17.389,118.69,17.389Zm0-4.754c-1.665,0-2.7.624-2.7,1.585,0,.945,1.04,1.569,2.7,1.569,1.68,0,2.721-.624,2.721-1.569C121.411,13.259,120.37,12.635,118.69,12.635Zm4.674-5.2v3.506h-2V2.231h2V5.8h2.225V7.433Z" fill="#696969"/>
        <path d="M134.419,10.842a7.426,7.426,0,0,1-3.458-3.249,6.743,6.743,0,0,1-3.505,3.618L126.287,9.69A5.6,5.6,0,0,0,129.9,4.552V2.984h2.065V4.472a5.3,5.3,0,0,0,3.538,4.818Zm-5.171,6.1V12h1.985V15.34h7.987v1.6Zm7.668-3.922V2.231H138.9V13.019Z" fill="#696969"/>
        <path d="M141.055,10.283v-1.6h13.574v1.6Zm1.857,7.122V13.516h7.795v-.848h-7.779V11.115h9.748v3.857H144.9v.817h8.259v1.616Zm4.962-9.331c-2.9,0-4.882-1.057-4.882-2.9,0-1.76,1.921-2.881,4.866-2.881,2.977,0,4.866,1.121,4.866,2.881C152.724,7,150.739,8.074,147.874,8.074Zm-.016-4.226c-1.761,0-2.833.592-2.833,1.328,0,.785,1.072,1.361,2.833,1.361s2.833-.576,2.833-1.361C150.691,4.44,149.619,3.848,147.858,3.848Z" fill="#696969"/>
        <path d="M166.033,17.086V11.05h-5.778V9.434h9.316a22.211,22.211,0,0,0,.4-4.849h-7.939V2.935h9.924a31.189,31.189,0,0,1-.512,6.5h2.385V11.05h-5.811v6.036Z" fill="#696969"/>
        <path d="M182.835,10.379a6.717,6.717,0,0,1-3.362-3.042,6.345,6.345,0,0,1-3.489,3.442L174.8,9.258a5.342,5.342,0,0,0,3.6-4.914V2.824h2.065V4.28a4.981,4.981,0,0,0,3.473,4.561Zm-.113,7.058c-2.913,0-4.721-1.248-4.721-3.169,0-1.936,1.808-3.218,4.721-3.218,2.93,0,4.754,1.282,4.754,3.218C187.476,16.189,185.652,17.437,182.722,17.437Zm0-4.769c-1.664,0-2.705.624-2.705,1.6,0,.944,1.041,1.553,2.705,1.553,1.713,0,2.738-.609,2.738-1.553C185.46,13.292,184.435,12.668,182.722,12.668Zm2.769-1.713v-4.1h-2.816V5.241h2.816V2.231h1.985v8.724Z" fill="#696969"/>
        <path d="M189.631,7.082V5.5h8.691V7.082Zm4.434,6.994c-2.049,0-3.586-1.248-3.586-3.169,0-1.841,1.537-3.138,3.586-3.138,2,.032,3.585,1.265,3.585,3.138C197.65,12.8,196.1,14.076,194.065,14.076Zm-2.225-9.54v-1.6h4.434v1.6Zm2.225,4.818a1.564,1.564,0,1,0,1.665,1.553A1.531,1.531,0,0,0,194.065,9.354Zm7.379.24v7.075h-1.985V2.231h1.985V7.946h2.225V9.594Z" fill="#696969"/>
        <path d="M204.415,11.147V9.53h13.573v1.617Zm3.873,1.185v3.024h7.94v1.633H206.3V12.332Zm.1-9.748V6.329h7.8V7.946H206.4V2.584Z" fill="#696969"/>
        <path d="M223.615,14.988V13.356h5.778v-3.01h-3.937V3.192h9.908v7.154h-3.986v3.01h5.811v1.632Zm9.764-10.18h-5.938V8.746h5.938Z" fill="#696969"/>
        <path d="M238.335,11.291V9.674h13.573v1.617Zm3.905,1.088V15.34h7.939v1.618h-9.94V12.379ZM240.287,8.41v-5.6H250V4.44h-7.732V6.809H250.1v1.6Z" fill="#696969"/>
        <path d="M265.251,3.24c-.113,4.258-2.818,6.994-6.644,8.163l-.992-1.585c2.882-.688,5.106-2.657,5.475-4.945h-4.755V3.24Zm.864,8.6c0,2.032,2.129,3.617,4.594,4.065l-.912,1.584a7.32,7.32,0,0,1-4.723-3.2,6.936,6.936,0,0,1-4.77,3.2l-.88-1.584c2.577-.385,4.642-2.049,4.642-4.065V11.1h2.049Zm2,.208V7.673h-3.01V6.008h3.01V2.231H270.1v9.813Z" fill="#696969"/>
      </g>
      <g>
        <path d="M44.392,10.17V3.064h1.969V5.145h3.153V3.064H51.5V10.17Zm9.428,7.251v-4.1H46.3V11.707h9.509v5.714ZM49.514,6.729H46.361v1.84h3.153Zm6.291.768v3.474h-2V2.3h2V5.864h2.224V7.5Zm10.814,3.617a7.049,7.049,0,0,1-3.361-3.2,6.538,6.538,0,0,1-3.442,3.6L58.648,9.979A5.611,5.611,0,0,0,62.2,4.857V3.048h2.081V4.792a5.291,5.291,0,0,0,3.442,4.786Zm-4.754,5.923V12.059H63.85V15.42h7.795v1.617ZM69.356,13.1V7.257H66.507V5.641h2.849V2.3h1.985V13.1Zm4.076-5.954V5.561h8.691V7.146Zm4.433,6.994c-2.049,0-3.585-1.248-3.585-3.169,0-1.841,1.536-3.138,3.585-3.138,2,.032,3.586,1.265,3.586,3.138C81.451,12.859,79.9,14.14,77.865,14.14ZM75.641,4.6V3h4.433V4.6Zm2.224,4.818a1.564,1.564,0,1,0,1.665,1.553A1.53,1.53,0,0,0,77.865,9.418Zm7.38.24v7.075H83.26V2.3h1.985V8.01h2.224V9.658Z" fill="#696969"/>
        <g>
          <path d="M38.18,18.714a.082.082,0,0,1-.082.082h0A8.939,8.939,0,1,1,37.829.92c.089,0,.178,0,.268,0A.084.084,0,0,1,38.18,1V2.991a.08.08,0,0,1-.08.081,7.034,7.034,0,0,0-6.707,6.785A7.032,7.032,0,0,0,38.1,16.643a.082.082,0,0,1,.08.081Z" fill="#696969"/>
          <path d="M93.9,18.714a.083.083,0,0,0,.082.083h0a8.939,8.939,0,0,0,0-17.878.083.083,0,0,0-.059.024A.082.082,0,0,0,93.9,1V2.991a.081.081,0,0,0,.081.081,7.035,7.035,0,0,1,6.706,6.786,7.034,7.034,0,0,1-6.706,6.785.083.083,0,0,0-.082.081v1.99Z" fill="#696969"/>
        </g>
      </g>
      <g>
        <circle cx="9.858" cy="9.858" r="9.858" fill="#696969"/>
        <g style="isolation: isolate">
          <path d="M12.277,7.24a3.866,3.866,0,0,0-1.5-.323A2.849,2.849,0,0,0,7.767,9.523,2.569,2.569,0,0,1,9.924,8.514a2.913,2.913,0,0,1,3.138,3.054,3.267,3.267,0,0,1-3.516,3.193c-1.989,0-3.684-1.429-3.684-4.174,0-3.263,2.045-5.337,5.042-5.337a3.969,3.969,0,0,1,1.906.42Zm-2.745,5.9a1.522,1.522,0,1,0,0-3.039,1.5,1.5,0,0,0-1.6,1.513A1.537,1.537,0,0,0,9.532,13.136Z" fill="#fff"/>
        </g>
      </g>
    </g>
  </g>
</svg>
