<svg xmlns="http://www.w3.org/2000/svg" width="49.385mm" height="13.312mm" viewBox="0 0 139.989 37.736">
  <g>
    <g style="isolation: isolate">
      <path d="M59.114,27.121c-.072,3.179-2.183,5.074-5.073,5.818l-.732-1.176c2.051-.443,3.826-1.667,4.15-3.43H53.873V27.121ZM55.468,37.736v-4.4H62.6v4.4Zm5.649-3.2h-4.15V36.56h4.15Zm0-8.024h1.5v6.273h-1.5Z" fill="#696969"/>
      <path d="M70.777,33.982a28.191,28.191,0,0,1-6.152.515V27.433H66.1v5.793a22.093,22.093,0,0,0,4.534-.42Zm2.244-2.339v5.685H71.533V26.51h1.488V30.4H74.7v1.247Z" fill="#696969"/>
      <path d="M75.269,33.37V32.159H85.44V33.37Zm2.9.8v2.232h5.974v1.2H76.672V34.173Zm2.195-2.662c-2.146,0-3.646-.911-3.646-2.375,0-1.415,1.464-2.374,3.635-2.374,2.206,0,3.657.971,3.657,2.374C84.012,30.587,82.489,31.511,80.366,31.511Zm-.011-3.574c-1.3,0-2.135.5-2.135,1.212s.839,1.175,2.135,1.175,2.146-.468,2.146-1.175S81.649,27.937,80.355,27.937Z" fill="#696969"/>
    </g>
    <g>
      <g style="isolation: isolate">
        <path d="M120.307,12.442a37.539,37.539,0,0,1-8.212.689V3.7h1.969v7.732a29.65,29.65,0,0,0,6.05-.561ZM123.3,9.321v7.587h-1.985V2.471H123.3V7.657h2.241V9.321Z" fill="#696969"/>
        <path d="M135.491,5.656a9.364,9.364,0,0,0,4.5,2.53l-.8,1.551A12.011,12.011,0,0,1,136.067,8.2V9.434h-6.29V8.457a15.854,15.854,0,0,1-2.753,1.409l-.881-1.5A9.33,9.33,0,0,0,130.5,5.656h-3.489V4.119h4.434a8.68,8.68,0,0,0,.512-1.408l1.776.208a11.655,11.655,0,0,1-.384,1.2h5.794V5.656Zm-4.642,7.78a11.187,11.187,0,0,1-3.281,3.5L126.3,15.66a9.064,9.064,0,0,0,3.058-2.977Zm3.105-1.185v3.106c0,1.36-.528,1.888-2.016,1.888a7.653,7.653,0,0,1-1.441-.1l-.432-1.681a11.649,11.649,0,0,0,1.441.16c.48,0,.624-.16.624-.479v-2.9h-4.978V10.634h11.829v1.617ZM135.7,7.929a8.994,8.994,0,0,1-2.209-2.273h-.9a8.385,8.385,0,0,1-2.1,2.273Zm2.85,8.788a14.2,14.2,0,0,1-3.426-3.218l1.441-.848a12.059,12.059,0,0,0,3.265,2.657Z" fill="#696969"/>
      </g>
      <g>
        <g>
          <path d="M38.232,18.714a.082.082,0,0,1-.082.082h0A8.939,8.939,0,1,1,37.882.92q.133,0,.267,0a.082.082,0,0,1,.083.08V2.991a.082.082,0,0,1-.08.081,7.034,7.034,0,0,0-6.707,6.785,7.034,7.034,0,0,0,6.706,6.786.082.082,0,0,1,.08.081Z" fill="#696969"/>
          <path d="M93.95,18.715a.082.082,0,0,0,.082.082h0a8.939,8.939,0,0,0,0-17.878A.082.082,0,0,0,93.95,1V2.992a.081.081,0,0,0,.081.081,7.034,7.034,0,0,1,6.706,6.786,7.034,7.034,0,0,1-6.706,6.785.081.081,0,0,0-.081.081v1.99Z" fill="#696969"/>
        </g>
        <g style="isolation: isolate">
          <path d="M60.247,12.442a37.523,37.523,0,0,1-8.211.689V3.7h1.969v7.73a29.519,29.519,0,0,0,6.05-.56ZM63.24,9.321v7.588H61.256V2.471H63.24V7.657h2.242V9.321Z" fill="#696969"/>
          <path d="M75.432,5.657a9.374,9.374,0,0,0,4.5,2.529l-.8,1.551A12.034,12.034,0,0,1,76.008,8.2V9.434H69.717V8.458a15.712,15.712,0,0,1-2.753,1.408l-.88-1.5a9.358,9.358,0,0,0,4.354-2.7h-3.49V4.12h4.434A8.69,8.69,0,0,0,71.9,2.712l1.776.207a11.754,11.754,0,0,1-.384,1.2h5.794V5.657ZM70.79,13.436a11.185,11.185,0,0,1-3.281,3.5l-1.265-1.279A9.067,9.067,0,0,0,69.3,12.682Zm3.1-1.185v3.105c0,1.361-.528,1.889-2.017,1.889a7.642,7.642,0,0,1-1.44-.1l-.433-1.682a11.692,11.692,0,0,0,1.442.161c.479,0,.624-.161.624-.479v-2.9H67.092V10.633H78.921v1.618ZM75.64,7.928a8.987,8.987,0,0,1-2.209-2.271h-.9a8.359,8.359,0,0,1-2.1,2.271Zm2.85,8.789A14.179,14.179,0,0,1,75.064,13.5l1.44-.848a12.075,12.075,0,0,0,3.266,2.656Z" fill="#696969"/>
        </g>
      </g>
      <g>
        <circle cx="9.858" cy="9.858" r="9.858" fill="#696969"/>
        <g style="isolation: isolate">
          <path d="M13.311,7.071a10.873,10.873,0,0,0-3.642,7.48h-2a11.209,11.209,0,0,1,3.418-7.424H6.405V5.46h6.906Z" fill="#fff"/>
        </g>
      </g>
    </g>
  </g>
</svg>
