<svg xmlns="http://www.w3.org/2000/svg" width="74.507mm" height="13.275mm" viewBox="0 0 211.201 37.631">
  <g>
    <g style="isolation: isolate">
      <path d="M93.829,28.386a3.343,3.343,0,0,0,2.518,3.035l-.755,1.187a4.7,4.7,0,0,1-2.531-2.219,4.554,4.554,0,0,1-2.638,2.519l-.84-1.163a3.713,3.713,0,0,0,2.687-3.359H90.039V27.151h5.9v1.235Zm1.331,9.44c-2.207,0-3.586-.936-3.586-2.387s1.379-2.4,3.586-2.4c2.231,0,3.6.949,3.6,2.4S97.391,37.826,95.16,37.826Zm0-3.575c-1.283,0-2.087.456-2.087,1.188s.8,1.175,2.087,1.175c1.32,0,2.111-.455,2.111-1.175S96.48,34.251,95.16,34.251Zm3.526-3.946v2.663H97.2V26.444h1.487v2.638h1.691v1.223Z" fill="#696969"/>
      <path d="M106.836,34.7a6.756,6.756,0,0,1-2.507-3,6.071,6.071,0,0,1-2.6,3.2l-.912-1.092a5.675,5.675,0,0,0,2.723-4.989V27.187h1.535v1.559a5.532,5.532,0,0,0,2.65,4.845Zm2.027,2.566V31.145h-2.195V29.862h2.195V26.444h1.487V37.261Z" fill="#696969"/>
      <path d="M116.281,28.483v.023a3.5,3.5,0,0,0,2.566,3.359l-.767,1.174a4.764,4.764,0,0,1-2.531-2.266,4.609,4.609,0,0,1-2.638,2.531l-.828-1.176a3.743,3.743,0,0,0,2.674-3.574v-.071H112.5v-1.2h5.937v1.2Zm-2.1,8.982V33.736h1.487v2.53h5.949v1.2Zm5.709-2.926v-8.1h1.487v8.1Z" fill="#696969"/>
    </g>
    <g>
      <g style="isolation: isolate">
        <path d="M112.1,7.217V5.6h7.235V7.217Zm3.73,6.627A3.066,3.066,0,0,1,112.56,10.8a3.256,3.256,0,1,1,3.265,3.041Zm-2-9.076v-1.6h3.906v1.6Zm2,4.562a1.4,1.4,0,0,0-1.457,1.473,1.449,1.449,0,1,0,2.9,0A1.4,1.4,0,0,0,115.825,9.33Zm7.283,7.41V9.474h-1.217V16.1h-1.9V2.543h1.9V7.858h1.217V2.3h1.9V16.74Z" fill="#696969"/>
        <path d="M132.658,17.221V12.307H126.88V10.691h13.573v1.616h-5.81v4.914Zm.993-7.507c-2.85,0-5-1.28-5-3.489,0-2.114,2.1-3.49,5-3.49,2.961,0,5.009,1.376,5.009,3.49C138.66,8.434,136.515,9.714,133.651,9.714Zm0-5.314c-1.793,0-2.946.784-2.946,1.825,0,1.056,1.137,1.841,2.946,1.841,1.776,0,2.944-.785,2.944-1.841C136.6,5.184,135.427,4.4,133.651,4.4Z" fill="#696969"/>
        <path d="M141.6,15.06V13.476h5.763V10.082h2v3.394h5.811V15.06Zm7.875-12.133V3.84c0,2.656,2.77,4.466,5.107,4.977l-.929,1.585A8.189,8.189,0,0,1,148.386,6.5c-.816,1.938-3.137,3.394-5.25,3.922l-.912-1.633c2.449-.479,5.09-2.272,5.09-4.945V2.927Z" fill="#696969"/>
        <path d="M159.985,17.221a9.74,9.74,0,0,1-3.154-7.074V9.826a9.7,9.7,0,0,1,3.154-7.059h1.68a10.532,10.532,0,0,0-2.817,6.915v.48a11.056,11.056,0,0,0,2.817,7.059Z" fill="#696969"/>
        <path d="M169.346,7.105a2.843,2.843,0,0,0,1.584-2.417h-1.408V3.167h6.515a23.861,23.861,0,0,1-.193,3.489,1.566,1.566,0,0,1-1.776,1.537,8.749,8.749,0,0,1-1.217-.08l-.4-1.728a5.6,5.6,0,0,0,1.105.111c.448,0,.528-.079.608-.447a5.969,5.969,0,0,0,.128-1.361h-1.617a4.68,4.68,0,0,1-2.017,3.586l1.3.288c-.08.368-.176.7-.272,1.056h.64V8.386h1.7V9.618h1.873v1.553H174.02v1.5h2.3v1.553h-2.3V17.3h-1.7V14.228h-2.817V12.675h2.817v-1.5h-1.169a7.535,7.535,0,0,1-.7,1.393l-1.1-.753v3.7c0,1.265-.5,1.681-1.937,1.681a7.138,7.138,0,0,1-1.216-.112l-.32-1.649a6.893,6.893,0,0,0,1.408.16c.336,0,.5-.08.5-.48V13.459h-2.914a9.559,9.559,0,0,1-1.12,3.906l-1.329-1.249a8.868,8.868,0,0,0,.448-.992,5.775,5.775,0,0,0,.305-1.137,21.029,21.029,0,0,0,.3-4.321V8.018l-1.136-1.137A9.1,9.1,0,0,0,164.4,2.5l1.7.3c-.08.288-.144.545-.224.8h1.76l1.121.784c-.369.8-.577,1.408-.865,2.016h1.457Zm-3.97-2.017a8.158,8.158,0,0,1-.624,1.312h1.36a10.511,10.511,0,0,0,.625-1.312Zm-.384,5.555c0,.5-.016.96-.032,1.376h.736V10.643Zm.016-1.393h.688V7.905h-.688Zm2.049-1.345V9.25h.721V7.905Zm0,4.114h.721V10.643h-.721Zm2.289-.993a9.518,9.518,0,0,0,.944-2.64l-.944-.945Z" fill="#696969"/>
        <path d="M190.149,17.285a31.343,31.343,0,0,1-5.955-.976,36.147,36.147,0,0,1-6.435,1.089l-.624-1.3a35.082,35.082,0,0,0,4.962-.544,13.256,13.256,0,0,1-1.776-.913,17.016,17.016,0,0,1-1.873.72l-.833-1.264a9.246,9.246,0,0,0,3.89-1.745.759.759,0,0,1-.192-.592V10.178h-2.049v1.329h-1.68V9.153h1.824V4.928h2.946c.079-.208.144-.432.208-.624h-4.61V3.087h12.164V4.3h-5.649a4.081,4.081,0,0,1-.209.624h4.37V9.153h1.857v2.354H188.8V10.178h-4c.192.224.352.448.545.688l-1.313.433a4.7,4.7,0,0,0-.816-1.121h-.352v1.056c0,.241.144.321.528.336a2.554,2.554,0,0,0,.368.017h.224l.368-.048c.961-.032,1.073-.144,1.169-.352a1.546,1.546,0,0,0,.128-.464l.864.191-.048-.063,1.281-.561a9.492,9.492,0,0,1,1.392,1.953l-1.3.689a13.068,13.068,0,0,0-.865-1.442,2.446,2.446,0,0,1-.272.625c-.24.432-.672.608-2.641.608H183.2a4.863,4.863,0,0,1-.528.448h5.25l.96.688a10.229,10.229,0,0,1-2.561,1.666c1.425.223,2.977.351,4.642.448Zm-8.9-6.291a7.394,7.394,0,0,1-1.281,2.017l-1.312-.64a4.858,4.858,0,0,0,1.216-1.825Zm-.16-4.609h5.858V5.84h-5.858Zm0,1.376h5.858V7.233h-5.858Zm0,1.392h5.858V8.625h-5.858Zm.784,5.042a10.306,10.306,0,0,0,2.241.849,11.314,11.314,0,0,0,2.177-.849Z" fill="#696969"/>
        <path d="M198.626,4.064a18.736,18.736,0,0,1-3.97.992V6.337h3.762V11.6H194.64a11.42,11.42,0,0,1-1.28,5.762l-1.441-1.056c.992-1.777,1.041-3.266,1.041-5.746v-6.9a12.692,12.692,0,0,0,4.69-1.008Zm-3.97,3.857v2.145h2.113V7.921Zm10.613-3.857a20.9,20.9,0,0,1-4.482,1.12V7.81h4.818V9.394h-1.521v7.923h-1.713V9.394h-1.584c-.032,3.569-.5,5.955-2.049,8.019l-1.409-1.137c1.5-1.936,1.745-3.553,1.745-7.491V3.728a14.652,14.652,0,0,0,5.106-1.1Z" fill="#696969"/>
        <path d="M206.383,17.221a10.559,10.559,0,0,0,2.817-6.915v-.5a11.078,11.078,0,0,0-2.817-7.043h1.681A9.786,9.786,0,0,1,211.2,9.826v.321a9.763,9.763,0,0,1-3.137,7.074Z" fill="#696969"/>
      </g>
      <g>
        <g>
          <path d="M37.747,18.714a.082.082,0,0,1-.082.082h0A8.939,8.939,0,1,1,37.4.92q.133,0,.267,0a.082.082,0,0,1,.083.08V2.991a.082.082,0,0,1-.08.081A7.034,7.034,0,0,0,30.96,9.857a7.034,7.034,0,0,0,6.706,6.786.082.082,0,0,1,.08.081Z" fill="#696969"/>
          <path d="M93.465,18.715a.082.082,0,0,0,.082.082h0a8.939,8.939,0,0,0,0-17.878.081.081,0,0,0-.059.024A.078.078,0,0,0,93.465,1V2.992a.081.081,0,0,0,.081.081,7.035,7.035,0,0,1,6.706,6.786,7.034,7.034,0,0,1-6.706,6.785.081.081,0,0,0-.081.081v1.99Z" fill="#696969"/>
        </g>
        <g style="isolation: isolate">
          <path d="M49.986,4.856A4.459,4.459,0,0,0,53.347,8.9L52.339,10.49a6.261,6.261,0,0,1-3.378-2.961,6.083,6.083,0,0,1-3.521,3.362L44.32,9.338a4.956,4.956,0,0,0,3.585-4.482H44.927V3.207H52.8V4.856Zm1.776,12.6c-2.945,0-4.786-1.249-4.786-3.185s1.841-3.2,4.786-3.2c2.977,0,4.8,1.265,4.8,3.2S54.739,17.453,51.762,17.453Zm0-4.77c-1.712,0-2.785.608-2.785,1.585,0,.961,1.073,1.568,2.785,1.568,1.761,0,2.817-.607,2.817-1.568C54.579,13.291,53.523,12.683,51.762,12.683Zm4.706-5.266v3.554H54.484V2.263h1.984V5.784h2.257V7.417Z" fill="#696969"/>
          <path d="M70.02,12.987V9.466H66.626a3.939,3.939,0,0,1-3.089,1.3,3.707,3.707,0,0,1-3.985-3.746,3.719,3.719,0,0,1,3.985-3.762,4.08,4.08,0,0,1,2.753.961h3.73V2.263H72V12.987Zm-6.483-3.9A1.961,1.961,0,0,0,65.522,7a1.952,1.952,0,0,0-1.985-2.049A1.929,1.929,0,0,0,61.568,7,1.939,1.939,0,0,0,63.537,9.082Zm-1.169,7.923V12.026h2v3.362h7.908v1.617Zm5.059-9.22H70.02V5.9H67.346a3.683,3.683,0,0,1,.161,1.12A3.977,3.977,0,0,1,67.427,7.785Z" fill="#696969"/>
          <path d="M84.035,13.98c-1.184.16-3.169.3-4.994.383-1.472.065-3.249.129-4.657.129l-.241-1.7c1.249.017,3.186-.016,4.659-.063,1.984-.065,4-.208,5.1-.337ZM74.528,6.441V4.9h8.9V6.441Zm4.513,5.394c-2.16,0-3.585-1.009-3.585-2.5,0-1.473,1.553-2.5,3.585-2.5,2.1,0,3.6,1.024,3.6,2.513C82.643,10.826,81.266,11.835,79.041,11.835ZM76.881,4.3V2.743h4.257V4.3Zm.464,5.042c0,.576.672,1.072,1.7,1.072,1.041,0,1.7-.5,1.7-1.072,0-.593-.656-1.072-1.7-1.072C78.017,8.266,77.345,8.745,77.345,9.338Zm7.331-7.075h2V16.845h-2Z" fill="#696969"/>
        </g>
      </g>
      <g>
        <circle cx="9.858" cy="9.858" r="9.858" fill="#696969"/>
        <g style="isolation: isolate">
          <path d="M6.426,12.1A2.394,2.394,0,0,1,8.037,9.887,2.207,2.207,0,0,1,6.608,7.856c0-1.528,1.359-2.606,3.25-2.606s3.25,1.078,3.25,2.606a2.208,2.208,0,0,1-1.415,2.031,2.389,2.389,0,0,1,1.6,2.213c0,1.568-1.359,2.661-3.432,2.661S6.426,13.668,6.426,12.1Zm4.973-.2a1.362,1.362,0,0,0-1.541-1.289A1.348,1.348,0,0,0,8.331,11.9a1.353,1.353,0,0,0,1.527,1.26C10.867,13.164,11.4,12.548,11.4,11.9ZM11.2,8A1.21,1.21,0,0,0,9.858,6.847,1.205,1.205,0,0,0,8.527,8,1.219,1.219,0,0,0,9.858,9.186,1.224,1.224,0,0,0,11.2,8Z" fill="#fff"/>
        </g>
      </g>
    </g>
  </g>
</svg>
