<svg xmlns="http://www.w3.org/2000/svg" width="99.572mm" height="13.311mm" viewBox="0 0 282.251 37.732">
  <g>
    <g style="isolation: isolate">
      <path d="M131.266,27.117c-.071,3.179-2.182,5.074-5.073,5.818l-.731-1.176c2.051-.443,3.825-1.667,4.15-3.43h-3.587V27.117ZM127.62,37.732v-4.4h7.137v4.4Zm5.649-3.2h-4.15v2.026h4.15Zm0-8.024h1.5v6.273h-1.5Z" fill="#696969"/>
      <path d="M136.922,32.634V27.3h5.373v5.337Zm3.9-4.149H138.4v2.95h2.422Zm-2.23,9.043V33.762h1.475v2.566h5.961v1.2Zm5.72-2.939V26.506H145.8v8.083Z" fill="#696969"/>
      <path d="M153.6,34.7a6.04,6.04,0,0,1-2.638-2.855,5.552,5.552,0,0,1-2.627,3.094l-.9-1.115a5.019,5.019,0,0,0,2.723-4.833v-.276h-2.22V27.5h5.973v1.212h-2.183v.264a4.736,4.736,0,0,0,2.7,4.569Zm1.7-8.192h1.487V37.324H155.3Z" fill="#696969"/>
    </g>
    <g>
      <g style="isolation: isolate">
        <path d="M119.46,7.076a2.357,2.357,0,0,0-2.5-1.962,2.017,2.017,0,0,0-2.2,1.836,1.654,1.654,0,0,0,1.5,1.638l1.836.378c2.251.451,3.457,1.873,3.457,3.674,0,1.981-1.6,3.871-4.52,3.871-3.24,0-4.735-2.089-4.933-3.925l2.017-.577a2.743,2.743,0,0,0,2.916,2.557c1.531,0,2.323-.773,2.323-1.765,0-.828-.612-1.494-1.711-1.728l-1.8-.378A3.625,3.625,0,0,1,112.6,7.112a4.163,4.163,0,0,1,4.339-3.907c3.007,0,4.178,1.837,4.466,3.258Z" fill="#696969"/>
        <path d="M128.747,5.509V16.241h-2.16V5.509h-4.142V3.475h10.461V5.509Z" fill="#696969"/>
        <path d="M138.43,11.2h-1.585v5.042h-2.178V3.475h4.9a3.768,3.768,0,0,1,4,3.871,3.6,3.6,0,0,1-2.881,3.637l2.881,5.258h-2.449Zm.739-1.908a1.967,1.967,0,1,0,0-3.908h-2.324V9.291Z" fill="#696969"/>
        <path d="M153.336,13.036h-5.4l-1.188,3.205h-2.287l4.969-12.766h2.5L156.9,16.241h-2.358Zm-4.646-2h3.889l-1.945-5.222Z" fill="#696969"/>
        <path d="M167.07,16.241l-6.3-9.669v9.669h-2.161V3.475h2.755l5.8,9.057V3.475h2.161V16.241Z" fill="#696969"/>
        <path d="M181.957,16.241l-.162-1.62a4.416,4.416,0,0,1-3.908,1.89c-3.331,0-6.284-2.449-6.284-6.662a6.358,6.358,0,0,1,6.428-6.644,5.751,5.751,0,0,1,5.762,3.889l-2.035.775A3.7,3.7,0,0,0,178.031,5.2c-2.07,0-4.231,1.476-4.231,4.645,0,3.114,2.016,4.681,4.213,4.681a3.368,3.368,0,0,0,3.656-2.862h-4.214V9.777H183.7v6.464Z" fill="#696969"/>
        <path d="M186.309,16.241V3.475H194.2V5.492h-5.727V8.877h5.186v1.962h-5.186v3.385H194.2v2.017Z" fill="#696969"/>
        <path d="M201.249,16.241V3.475h2.16V14.188h5.852v2.053Z" fill="#696969"/>
        <path d="M216.442,3.205a6.4,6.4,0,0,1,6.5,6.644,6.493,6.493,0,1,1-12.981,0A6.389,6.389,0,0,1,216.442,3.205Zm0,11.254a4.258,4.258,0,0,0,4.285-4.61,4.288,4.288,0,1,0-8.552,0A4.255,4.255,0,0,0,216.442,14.459Z" fill="#696969"/>
        <path d="M230.932,3.205a6.4,6.4,0,0,1,6.5,6.644,6.493,6.493,0,1,1-12.982,0A6.39,6.39,0,0,1,230.932,3.205Zm0,11.254a4.259,4.259,0,0,0,4.285-4.61,4.288,4.288,0,1,0-8.552,0A4.255,4.255,0,0,0,230.932,14.459Z" fill="#696969"/>
        <path d="M243.567,10.713l-1.692,1.855v3.673h-2.161V3.475h2.161V9.6l5.491-6.122h2.845l-5.167,5.636,5.221,7.13h-2.718Z" fill="#696969"/>
        <path d="M252.044,16.241V3.475h7.886V5.492h-5.725V8.877h5.185v1.962h-5.185v3.385h5.725v2.017Z" fill="#696969"/>
        <path d="M266.283,11.2H264.7v5.042H262.52V3.475h4.9a3.768,3.768,0,0,1,4,3.871,3.6,3.6,0,0,1-2.881,3.637l2.881,5.258h-2.448Zm.738-1.908a1.967,1.967,0,1,0,0-3.908H264.7V9.291Z" fill="#696969"/>
        <path d="M280.162,7.076a2.356,2.356,0,0,0-2.5-1.962,2.016,2.016,0,0,0-2.2,1.836,1.653,1.653,0,0,0,1.494,1.638l1.837.378c2.25.451,3.457,1.873,3.457,3.674,0,1.981-1.6,3.871-4.52,3.871-3.241,0-4.735-2.089-4.933-3.925l2.016-.577a2.744,2.744,0,0,0,2.917,2.557c1.53,0,2.322-.773,2.322-1.765,0-.828-.611-1.494-1.71-1.728l-1.8-.378A3.626,3.626,0,0,1,273.3,7.112a4.163,4.163,0,0,1,4.34-3.907c3.007,0,4.177,1.837,4.465,3.258Z" fill="#696969"/>
      </g>
      <g>
        <path d="M38.309,18.714a.082.082,0,0,1-.082.082h0A8.939,8.939,0,1,1,37.958.92c.09,0,.179,0,.268,0a.082.082,0,0,1,.083.08V2.991a.082.082,0,0,1-.08.081,7.034,7.034,0,0,0-6.707,6.785,7.034,7.034,0,0,0,6.706,6.786.081.081,0,0,1,.08.081Z" fill="#696969"/>
        <path d="M94.027,18.715a.082.082,0,0,0,.082.082h0a8.939,8.939,0,0,0,0-17.878.081.081,0,0,0-.059.024A.078.078,0,0,0,94.027,1V2.992a.081.081,0,0,0,.081.081,7.035,7.035,0,0,1,6.706,6.786,7.034,7.034,0,0,1-6.706,6.785.081.081,0,0,0-.081.081v1.99Z" fill="#696969"/>
      </g>
      <g style="isolation: isolate">
        <path d="M59.574,16.241v-9.4l-3.98,9.4H53.722L49.779,6.879v9.362H47.672V3.475h2.881l4.141,9.741,4.087-9.741h2.935V16.241Z" fill="#696969"/>
        <path d="M71.7,14.728a4.717,4.717,0,0,1-3.493,1.747,3.478,3.478,0,0,1-3.8-3.349c0-1.638.882-2.539,2.215-3.529l.126-.091-.216-.233a4.311,4.311,0,0,1-1.459-2.81A3.286,3.286,0,0,1,68.5,3.205a3.2,3.2,0,0,1,3.493,3.169,3.8,3.8,0,0,1-1.8,2.88l-.559.415,2.125,2.214L74.8,8.607v2.7l-1.747,1.927,2.881,3.007h-2.79Zm-1.332-1.35.018-.018-2.359-2.5-.432.324a2.144,2.144,0,0,0-1.044,1.8,1.638,1.638,0,0,0,1.692,1.6A2.937,2.937,0,0,0,70.372,13.378ZM67.977,7.94l.36.4.738-.541a1.765,1.765,0,0,0,.865-1.459,1.371,1.371,0,0,0-1.423-1.368,1.335,1.335,0,0,0-1.386,1.368A2.475,2.475,0,0,0,67.977,7.94Z" fill="#696969"/>
        <path d="M76.345,11.559l2.107-.431v1.188a1.886,1.886,0,0,0,1.963,2.16,1.827,1.827,0,0,0,1.872-2.07V3.475h2.161v8.876a3.974,3.974,0,0,1-4.015,4.16,3.848,3.848,0,0,1-4.088-4.124Z" fill="#696969"/>
      </g>
      <g>
        <circle cx="9.858" cy="9.858" r="9.858" fill="#696969"/>
        <g style="isolation: isolate">
          <path d="M7.043,12.7a3.664,3.664,0,0,0,1.61.392,2.631,2.631,0,0,0,2.886-2.577,2.475,2.475,0,0,1-2.1.98A3,3,0,0,1,6.3,8.444,3.235,3.235,0,0,1,9.788,5.25c1.975,0,3.628,1.4,3.628,4.3,0,3.278-1.639,5.211-4.748,5.211a4.436,4.436,0,0,1-2.1-.5ZM9.718,6.889a1.5,1.5,0,0,0-1.555,1.5,1.48,1.48,0,0,0,1.555,1.5,1.5,1.5,0,1,0,0-3Z" fill="#fff"/>
        </g>
      </g>
    </g>
  </g>
</svg>
