<svg xmlns="http://www.w3.org/2000/svg" width="49.148mm" height="13.15mm" viewBox="0 0 139.317 37.276">
  <g>
    <g style="isolation: isolate">
      <path d="M57.193,27.179c1.631,0,2.723,1.211,2.939,3.034h1.883V26.459H63.5V37.276H62.015v-5.8H60.132c-.192,1.847-1.295,3.07-2.939,3.07-1.811,0-2.974-1.5-2.974-3.67S55.382,27.179,57.193,27.179Zm0,6.116c.888,0,1.536-.911,1.536-2.435s-.648-2.434-1.536-2.434c-.863,0-1.5.924-1.5,2.434S56.33,33.3,57.193,33.3Z" fill="#696969"/>
      <path d="M69.816,33.175a2.279,2.279,0,0,1-2.1,1.439c-1.692,0-2.567-1.691-2.567-3.681,0-1.967.875-3.658,2.567-3.658a2.283,2.283,0,0,1,2.075,1.4H71.1V26.651h1.415V36.8H71.1V33.175Zm-2.1-4.617c-.744,0-1.164,1.031-1.164,2.386s.42,2.363,1.164,2.363,1.163-1.02,1.163-2.363S68.473,28.558,67.718,28.558ZM70.2,31.916h.9V29.937h-.911a5.617,5.617,0,0,1,.084,1.007A6.385,6.385,0,0,1,70.2,31.916Zm3.131,5.36V26.471h1.427V37.276Z" fill="#696969"/>
      <path d="M82.044,33.068a5.288,5.288,0,0,1-2.519-2.4,4.9,4.9,0,0,1-2.578,2.7l-.876-1.151a4.2,4.2,0,0,0,2.663-3.838V27.023h1.559V28.33a3.964,3.964,0,0,0,2.579,3.586Zm-3.562,4.437v-3.73h1.487v2.518H85.81v1.212Zm5.613-2.95V30.177H81.96V28.966H84.1V26.459h1.487v8.1Z" fill="#696969"/>
    </g>
    <g>
      <g style="isolation: isolate">
        <path d="M118.9,17.533c-2.865,0-4.866-1.072-4.866-2.945,0-1.6,1.505-2.673,3.842-2.913V10.554H112.1V8.938h13.574v1.616h-5.81v1.121c2.369.224,3.873,1.3,3.873,2.913C123.732,16.461,121.731,17.533,118.9,17.533Zm-4.834-9.716v-5.3h9.716v1.6h-7.731v2.1h7.811v1.6Zm4.818,5.411c-1.712,0-2.833.528-2.833,1.376s1.121,1.36,2.833,1.36c1.7,0,2.849-.527,2.849-1.36S120.579,13.228,118.882,13.228Z" fill="#696969"/>
        <path d="M135.059,13.115a8.054,8.054,0,0,1-3.521-3.809,7.418,7.418,0,0,1-3.506,4.13l-1.2-1.49a6.7,6.7,0,0,0,3.633-6.45V5.128H127.5V3.512h7.971V5.128h-2.913v.353a6.319,6.319,0,0,0,3.6,6.1Zm2.273-10.932h1.985V16.62h-1.985Z" fill="#696969"/>
      </g>
      <g>
        <g>
          <path d="M37.924,18.714a.082.082,0,0,1-.082.082h0A8.939,8.939,0,1,1,37.574.92q.133,0,.267,0a.083.083,0,0,1,.083.08V2.991a.08.08,0,0,1-.08.081,7.035,7.035,0,0,0-6.707,6.785,7.033,7.033,0,0,0,6.706,6.786.082.082,0,0,1,.08.081Z" fill="#696969"/>
          <path d="M93.642,18.714a.083.083,0,0,0,.082.083h0a8.939,8.939,0,0,0,0-17.878A.082.082,0,0,0,93.642,1V2.991a.081.081,0,0,0,.081.081,7.035,7.035,0,0,1,6.706,6.786,7.033,7.033,0,0,1-6.706,6.785.081.081,0,0,0-.081.081v1.99Z" fill="#696969"/>
        </g>
        <g style="isolation: isolate">
          <path d="M52.257,13.171V3.808h7.187v9.363Zm5.186-7.747h-3.2v6.115h3.2Zm4.594-2.785h2V17.077h-2Z" fill="#696969"/>
          <path d="M72.563,13.4a6.873,6.873,0,0,1-2.641-3.441,6.868,6.868,0,0,1-2.849,3.84l-1.185-1.408c1.825-1.232,3.025-3.329,3.025-6.53V3.776h1.969V5.825c0,3.009,1.136,5.122,2.849,6.13ZM77.2,17.077V9.554H75.94v6.883H74.052V2.879H75.94v5.01H77.2V2.639h1.89V17.077Z" fill="#696969"/>
        </g>
      </g>
      <g>
        <circle cx="9.858" cy="9.858" r="9.858" fill="#696969"/>
        <g style="isolation: isolate">
          <path d="M5.328,14.551V8.472H3.143v-1.3A2.319,2.319,0,0,0,5.58,5.46H7.247v9.091Z" fill="#fff"/>
          <path d="M9.779,6.777a3.436,3.436,0,0,1,3-1.527,3.394,3.394,0,0,1,2.984,1.527,5.81,5.81,0,0,1,.812,3.236,5.808,5.808,0,0,1-.812,3.235,3.394,3.394,0,0,1-2.984,1.527,3.436,3.436,0,0,1-3-1.527,5.8,5.8,0,0,1-.8-3.235A5.8,5.8,0,0,1,9.779,6.777ZM11.4,12.324a1.518,1.518,0,0,0,1.373.743,1.48,1.48,0,0,0,1.359-.743,4.259,4.259,0,0,0,.5-2.311,4.255,4.255,0,0,0-.5-2.311,1.479,1.479,0,0,0-1.359-.743A1.516,1.516,0,0,0,11.4,7.7a4.391,4.391,0,0,0-.49,2.311A4.4,4.4,0,0,0,11.4,12.324Z" fill="#fff"/>
        </g>
      </g>
    </g>
  </g>
</svg>
