<svg xmlns="http://www.w3.org/2000/svg" width="67.415mm" height="13.205mm" viewBox="0 0 191.097 37.431">
  <g>
    <g style="isolation: isolate">
      <path d="M79.927,32.394V27.069H81.4v1.559h2.363V27.069h1.487v5.325Zm7.064,5.433v-3.07H81.354V33.545h7.124v4.282Zm-3.226-8.011H81.4V31.2h2.363Zm4.713.575v2.6h-1.5v-6.5h1.5v2.674h1.667v1.223Z" fill="#696969"/>
      <path d="M96.628,34.744a6.751,6.751,0,0,1-2.507-3,6.073,6.073,0,0,1-2.6,3.2l-.912-1.092a5.676,5.676,0,0,0,2.723-4.989V27.237h1.535V28.8a5.532,5.532,0,0,0,2.65,4.845Zm2.027,2.567V31.2h-2.2V29.911h2.2V26.494h1.487V37.311Z" fill="#696969"/>
      <path d="M109.683,33.066V31.578h-2.675a3.042,3.042,0,0,1-2.231.876,2.7,2.7,0,0,1-2.926-2.651,2.759,2.759,0,0,1,2.926-2.7,3.024,3.024,0,0,1,2.075.767h2.831V26.494h1.487v6.572Zm-4.906-1.8a1.441,1.441,0,0,0,1.488-1.476,1.482,1.482,0,1,0-1.488,1.476Zm2.807,6.608c-2.183,0-3.55-.935-3.55-2.375s1.367-2.411,3.55-2.411,3.55.96,3.55,2.411S109.767,37.875,107.584,37.875Zm0-3.574c-1.247,0-2.051.468-2.051,1.2,0,.708.8,1.163,2.051,1.163,1.271,0,2.039-.455,2.039-1.163C109.623,34.769,108.855,34.3,107.584,34.3Zm.06-3.97h2.039v-1.2h-2.075a3.12,3.12,0,0,1,.084.671A3.74,3.74,0,0,1,107.644,30.331Z" fill="#696969"/>
    </g>
    <g>
      <g style="isolation: isolate">
        <path d="M120.972,13.126h-5.4l-1.189,3.205H112.1l4.97-12.766h2.5l4.969,12.766h-2.359Zm-4.646-2h3.89l-1.945-5.222Z" fill="#696969"/>
        <path d="M127.108,13.45a1.642,1.642,0,0,0,1.782,1.494c.865,0,1.315-.468,1.315-1.008,0-.469-.324-.828-1.027-.973l-1.3-.288a2.648,2.648,0,0,1-2.359-2.556,3.041,3.041,0,0,1,3.223-2.827,3.1,3.1,0,0,1,3.386,2.449l-1.765.5a1.507,1.507,0,0,0-1.621-1.315,1.141,1.141,0,0,0-1.26,1.009.963.963,0,0,0,.882.918l1.332.271c1.657.359,2.521,1.368,2.521,2.664,0,1.333-1.08,2.809-3.313,2.809-2.538,0-3.511-1.657-3.619-2.647Z" fill="#696969"/>
        <path d="M135.316,3.115a1.367,1.367,0,0,1,1.368,1.368,1.359,1.359,0,1,1-1.368-1.368ZM134.29,16.331V7.562h2.07v8.769Z" fill="#696969"/>
        <path d="M141.166,11.307l2.25-.342c.5-.072.649-.324.649-.63,0-.739-.5-1.332-1.657-1.332a1.688,1.688,0,0,0-1.8,1.584l-1.909-.432a3.434,3.434,0,0,1,3.691-2.863c2.7,0,3.727,1.531,3.727,3.277v4.357a7.968,7.968,0,0,0,.108,1.4H144.28a4.918,4.918,0,0,1-.089-1.117,3.062,3.062,0,0,1-2.7,1.387,2.75,2.75,0,0,1-2.971-2.647C138.519,12.387,139.671,11.523,141.166,11.307Zm2.9,1.387v-.4l-2.287.342c-.648.109-1.17.469-1.17,1.189a1.159,1.159,0,0,0,1.278,1.134A2,2,0,0,0,144.065,12.694Z" fill="#696969"/>
        <path d="M150.724,16.331h-2.089V7.562h2.035v1.17a2.911,2.911,0,0,1,2.592-1.422c2.143,0,3.169,1.548,3.169,3.475v5.546h-2.088V11.145c0-1.08-.486-1.944-1.8-1.944a1.84,1.84,0,0,0-1.819,2.07Z" fill="#696969"/>
        <path d="M173.19,16.331l-.162-1.62a4.416,4.416,0,0,1-3.908,1.89c-3.331,0-6.283-2.449-6.283-6.662A6.357,6.357,0,0,1,169.264,3.3a5.751,5.751,0,0,1,5.762,3.889l-2.035.775a3.7,3.7,0,0,0-3.727-2.665c-2.07,0-4.231,1.476-4.231,4.645,0,3.114,2.017,4.681,4.213,4.681a3.367,3.367,0,0,0,3.656-2.863h-4.214V9.867h6.248v6.464Z" fill="#696969"/>
        <path d="M178.389,3.115a1.368,1.368,0,0,1,1.369,1.368,1.36,1.36,0,1,1-1.369-1.368Zm-1.026,13.216V7.562h2.07v8.769Z" fill="#696969"/>
        <path d="M187.264,9.632a4.551,4.551,0,0,0-.684-.053c-1.62,0-2.359.936-2.359,2.575v4.177h-2.088V7.562h2.035v1.4a2.652,2.652,0,0,1,2.538-1.512,2.979,2.979,0,0,1,.558.054Z" fill="#696969"/>
        <path d="M189.008,16.331V3.3H191.1V16.331Z" fill="#696969"/>
      </g>
      <g>
        <g>
          <path d="M37.866,18.714a.082.082,0,0,1-.082.082h0A8.939,8.939,0,1,1,37.516.92q.133,0,.267,0a.083.083,0,0,1,.083.08V2.991a.08.08,0,0,1-.08.081,7.035,7.035,0,0,0-6.707,6.785,7.033,7.033,0,0,0,6.706,6.786.082.082,0,0,1,.08.081Z" fill="#696969"/>
          <path d="M93.584,18.714a.083.083,0,0,0,.082.083h0a8.939,8.939,0,0,0,0-17.878A.082.082,0,0,0,93.584,1V2.991a.081.081,0,0,0,.081.081,7.035,7.035,0,0,1,6.706,6.786,7.033,7.033,0,0,1-6.706,6.785.081.081,0,0,0-.081.081v1.99Z" fill="#696969"/>
        </g>
        <g style="isolation: isolate">
          <path d="M44.783,10.138V3.031h1.969V5.112h3.153V3.031h1.984v7.107Zm9.428,7.251v-4.1H46.687V11.675H56.2v5.714ZM49.905,6.7H46.752V8.537h3.153Zm6.291.769v3.474h-2V2.263h2V5.832H58.42V7.465Z" fill="#696969"/>
          <path d="M67.058,13.275a9.007,9.007,0,0,1-3.345-4,8.1,8.1,0,0,1-3.474,4.274l-1.216-1.457a7.575,7.575,0,0,0,3.633-6.659V3.255h2.049V5.336A7.387,7.387,0,0,0,68.242,11.8Zm2.7,3.425V8.537H66.834V6.824h2.929V2.263h1.985V16.7Z" fill="#696969"/>
          <path d="M84.467,11.034V9.05H80.9a4.064,4.064,0,0,1-2.977,1.168,3.605,3.605,0,0,1-3.906-3.537,3.684,3.684,0,0,1,3.906-3.6A4.029,4.029,0,0,1,80.689,4.1h3.778V2.263h1.984v8.771Zm-6.547-2.4a1.923,1.923,0,0,0,1.985-1.969,1.978,1.978,0,0,0-3.954,0A1.883,1.883,0,0,0,77.92,8.634Zm3.746,8.819c-2.913,0-4.738-1.249-4.738-3.17s1.825-3.217,4.738-3.217S86.4,12.347,86.4,14.283C86.4,16.2,84.579,17.453,81.666,17.453Zm0-4.77c-1.665,0-2.738.625-2.738,1.6,0,.946,1.073,1.553,2.738,1.553,1.7,0,2.721-.607,2.721-1.553C84.387,13.308,83.363,12.683,81.666,12.683Zm.08-5.3h2.721v-1.6H81.7a4.235,4.235,0,0,1,.112.9A5,5,0,0,1,81.746,7.385Z" fill="#696969"/>
        </g>
      </g>
      <g>
        <circle cx="9.858" cy="9.858" r="9.858" fill="#696969"/>
        <g style="isolation: isolate">
          <path d="M6.54,14.551V8.472H4.354v-1.3A2.321,2.321,0,0,0,6.792,5.46H8.459v9.091Z" fill="#fff"/>
          <path d="M12.084,14.551V8.472H9.9v-1.3A2.321,2.321,0,0,0,12.336,5.46H14v9.091Z" fill="#fff"/>
        </g>
      </g>
    </g>
  </g>
</svg>
