<svg xmlns="http://www.w3.org/2000/svg" width="110.219mm" height="13.246mm" viewBox="0 0 312.433 37.548">
  <g>
    <g style="isolation: isolate">
      <path d="M144.418,28.445a3.347,3.347,0,0,0,2.519,3.035l-.755,1.186a4.691,4.691,0,0,1-2.531-2.218,4.55,4.55,0,0,1-2.638,2.518l-.84-1.163a3.713,3.713,0,0,0,2.687-3.358h-2.231V27.209h5.9v1.236Zm1.332,9.439c-2.207,0-3.586-.935-3.586-2.386s1.379-2.4,3.586-2.4c2.231,0,3.6.948,3.6,2.4S147.981,37.884,145.75,37.884Zm0-3.574c-1.283,0-2.087.456-2.087,1.188s.8,1.174,2.087,1.174c1.32,0,2.111-.455,2.111-1.174S147.07,34.31,145.75,34.31Zm3.526-3.946v2.663h-1.488V26.5h1.488v2.639h1.691v1.223Z" fill="#696969"/>
      <path d="M153.287,31.576v1.835a14.755,14.755,0,0,0,3.3-.241l.144,1.176a22.479,22.479,0,0,1-4.929.276V27.534h4.425v1.211h-2.939v1.619h2.795v1.212ZM159.7,37.32V31.66H158.7v5.18h-1.4V26.682h1.4v3.754H159.7V26.5h1.44V37.32Z" fill="#696969"/>
      <path d="M168.369,27.27c-.071,3.274-2.17,5.253-5.025,6.116l-.731-1.175a5.1,5.1,0,0,0,4.137-3.706h-3.609V27.27Zm-3.525,10.278v-3.73h1.5v2.518H172.2v1.212Zm5.637-2.986V30.868h-2.255V29.632h2.255V26.5h1.487v8.06Z" fill="#696969"/>
    </g>
    <g>
      <g style="isolation: isolate">
        <path d="M112.1,3.455h6.9V5.072h-4.93v6.355a28.329,28.329,0,0,0,6.035-.416l.208,1.616a37.811,37.811,0,0,1-8.212.465Zm11.221,5.6v7.634h-1.985V2.255h1.985V7.409h2.241V9.058Z" fill="#696969"/>
        <path d="M130.769,3.247a3.721,3.721,0,1,1,0,7.411,3.719,3.719,0,1,1,0-7.411Zm0,5.731a1.941,1.941,0,0,0,2.049-2.017,2.033,2.033,0,1,0-4.066,0A1.925,1.925,0,0,0,130.769,8.978Zm-1.6,7.987V11.939h2v3.425h7.987v1.6Zm7.667-3.922V2.255h1.985V13.043Z" fill="#696969"/>
        <path d="M148.866,10.4a6.712,6.712,0,0,1-3.361-3.041,6.347,6.347,0,0,1-3.49,3.442l-1.184-1.521a5.341,5.341,0,0,0,3.6-4.914V2.848H146.5V4.3a4.982,4.982,0,0,0,3.474,4.561Zm-.112,7.059c-2.913,0-4.722-1.248-4.722-3.169s1.809-3.218,4.722-3.218c2.929,0,4.754,1.282,4.754,3.218C153.508,16.213,151.683,17.461,148.754,17.461Zm0-4.77c-1.664,0-2.7.625-2.7,1.6,0,.944,1.041,1.553,2.7,1.553,1.713,0,2.737-.609,2.737-1.553C151.491,13.316,150.467,12.691,148.754,12.691Zm2.769-1.712v-4.1h-2.817V5.265h2.817V2.255h1.985v8.724Z" fill="#696969"/>
        <path d="M160.736,3.455h6.9V5.072H162.7v6.355a28.329,28.329,0,0,0,6.035-.416l.208,1.616a37.805,37.805,0,0,1-8.211.465Zm11.22,5.6v7.634h-1.985V2.255h1.985V7.409H174.2V9.058Z" fill="#696969"/>
        <path d="M179.409,3.247a3.721,3.721,0,1,1,0,7.411,3.719,3.719,0,1,1,0-7.411Zm0,5.731a1.942,1.942,0,0,0,2.049-2.017,2.033,2.033,0,1,0-4.066,0A1.925,1.925,0,0,0,179.409,8.978Zm-1.6,7.987V11.939h2v3.425H187.8v1.6Zm7.667-3.922V2.255h1.985V13.043Z" fill="#696969"/>
        <path d="M197.506,10.4a6.712,6.712,0,0,1-3.361-3.041,6.347,6.347,0,0,1-3.49,3.442l-1.184-1.521a5.341,5.341,0,0,0,3.6-4.914V2.848h2.065V4.3a4.981,4.981,0,0,0,3.474,4.561Zm-.112,7.059c-2.913,0-4.722-1.248-4.722-3.169s1.809-3.218,4.722-3.218c2.929,0,4.754,1.282,4.754,3.218C202.148,16.213,200.323,17.461,197.394,17.461Zm0-4.77c-1.665,0-2.705.625-2.705,1.6,0,.944,1.04,1.553,2.705,1.553,1.713,0,2.737-.609,2.737-1.553C200.131,13.316,199.107,12.691,197.394,12.691Zm2.769-1.712v-4.1h-2.817V5.265h2.817V2.255h1.985v8.724Z" fill="#696969"/>
        <path d="M212.512,17.173a9.743,9.743,0,0,1-3.153-7.074V9.778a9.708,9.708,0,0,1,3.153-7.059h1.681a10.527,10.527,0,0,0-2.817,6.915v.48a11.05,11.05,0,0,0,2.817,7.059Z" fill="#696969"/>
        <path d="M227.188,4.9a20.771,20.771,0,0,1-6.115,4.481,26.288,26.288,0,0,1-5.218,1.9l-.929-1.6a20.926,20.926,0,0,0,5.026-1.6,19.112,19.112,0,0,0-1.712-1.344,16.688,16.688,0,0,1-1.7.832l-1.136-1.424A18.111,18.111,0,0,0,221.441,2.3l1.585.9-.816.769h3.825Zm1.6,6.306c-2.705,3.329-7.651,5.346-12.533,6.162l-.976-1.68a28.439,28.439,0,0,0,5.762-1.329A15.1,15.1,0,0,0,219.312,13c-.688.288-1.408.576-2.193.833L216.1,12.243a16.9,16.9,0,0,0,7.267-3.905l1.537.944a12.437,12.437,0,0,1-.961.88H227.6Zm-8.595-5.667c-.144.113-.289.208-.433.305a19.005,19.005,0,0,1,1.825,1.408A23.633,23.633,0,0,0,224.1,5.536Zm1.536,6.211a5.694,5.694,0,0,1-.688.4,18.347,18.347,0,0,1,1.889,1.44,15,15,0,0,0,2.817-1.841Z" fill="#696969"/>
        <path d="M241.139,17.125v-.656h-9.155v.8h-1.649V3.119H242.82V17.125Zm-9.155-2.161h9.155V4.624h-9.155Zm5.378-7.858h3.3v1.52h-3.2a7.087,7.087,0,0,0,3.617,4.705l-1.088,1.425a8.939,8.939,0,0,1-3.361-3.873,8.142,8.142,0,0,1-3.6,4.033l-.993-1.376a6.3,6.3,0,0,0,3.554-4.914h-3.121V7.106h3.185V4.96h1.713Z" fill="#696969"/>
        <path d="M246.288,5.872a20.309,20.309,0,0,1-.576,4.643l-1.361-.625a16.857,16.857,0,0,0,.528-4.337ZM252.45,3.5q-.12,1.1-.288,2.16h1.025V2.48h1.744V5.664h2.881v1.6h-2.881v3.01h2.786v1.6h-2.786v3.346h3.3v1.568h-8.74V15.221h3.7V11.875h-2.818v-1.6h2.818V7.265h-1.361a14.75,14.75,0,0,1-1.008,2.721L249.3,9.154a8.367,8.367,0,0,0,.56-1.216l-.832.416a15.581,15.581,0,0,0-.7-2.562V17.27h-1.713V2.48h1.713V5.441l1.008-.5a22.3,22.3,0,0,1,.8,2.257,18.262,18.262,0,0,0,.592-3.937Z" fill="#696969"/>
        <path d="M275.828,4.9a20.78,20.78,0,0,1-6.114,4.481,26.3,26.3,0,0,1-5.219,1.9l-.928-1.6a20.918,20.918,0,0,0,5.025-1.6,18.958,18.958,0,0,0-1.711-1.344,16.6,16.6,0,0,1-1.7.832l-1.135-1.424A18.131,18.131,0,0,0,270.082,2.3l1.584.9-.816.769h3.825Zm1.6,6.306c-2.7,3.329-7.651,5.346-12.533,6.162l-.976-1.68a28.439,28.439,0,0,0,5.762-1.329A15.089,15.089,0,0,0,267.953,13c-.689.288-1.409.576-2.194.833l-1.024-1.585A16.894,16.894,0,0,0,272,8.338l1.536.944a12.245,12.245,0,0,1-.96.88h3.665Zm-8.595-5.667c-.144.113-.288.208-.432.305a19.118,19.118,0,0,1,1.824,1.408,23.75,23.75,0,0,0,2.514-1.713Zm1.537,6.211a5.71,5.71,0,0,1-.689.4,18.24,18.24,0,0,1,1.889,1.44,14.97,14.97,0,0,0,2.817-1.841Z" fill="#696969"/>
        <path d="M285.842,5.744c0,.4-.016.8-.047,1.169a12.768,12.768,0,0,0,6.338,8.323l-1.1,1.809a15.544,15.544,0,0,1-5.891-6.979l-.031.128a12.749,12.749,0,0,1-5.8,7.107l-1.024-1.633A10.658,10.658,0,0,0,284,5.776V2.751h1.84Z" fill="#696969"/>
        <path d="M294.927,5.872a20.309,20.309,0,0,1-.576,4.643l-1.36-.625a16.857,16.857,0,0,0,.528-4.337ZM301.091,3.5q-.122,1.1-.289,2.16h1.025V2.48h1.744V5.664h2.881v1.6h-2.881v3.01h2.785v1.6h-2.785v3.346h3.3v1.568h-8.74V15.221h3.7V11.875h-2.818v-1.6h2.818V7.265h-1.361a14.75,14.75,0,0,1-1.008,2.721l-1.521-.832a8.367,8.367,0,0,0,.56-1.216l-.832.416a15.68,15.68,0,0,0-.7-2.562V17.27h-1.713V2.48h1.713V5.441l1.007-.5a22.067,22.067,0,0,1,.8,2.257,18.387,18.387,0,0,0,.592-3.937Z" fill="#696969"/>
        <path d="M307.55,17.173a10.555,10.555,0,0,0,2.818-6.915v-.5a11.073,11.073,0,0,0-2.818-7.043h1.681a9.788,9.788,0,0,1,3.138,7.059V10.1a9.763,9.763,0,0,1-3.138,7.074Z" fill="#696969"/>
      </g>
      <g>
        <g>
          <path d="M38.118,18.714a.082.082,0,0,1-.082.082h0A8.939,8.939,0,1,1,37.768.92q.133,0,.267,0a.083.083,0,0,1,.083.08V2.991a.08.08,0,0,1-.08.081,7.035,7.035,0,0,0-6.707,6.785,7.033,7.033,0,0,0,6.706,6.786.082.082,0,0,1,.08.081Z" fill="#696969"/>
          <path d="M93.836,18.714a.083.083,0,0,0,.082.083h0a8.939,8.939,0,0,0,0-17.878A.082.082,0,0,0,93.836,1V2.991a.081.081,0,0,0,.081.081,7.035,7.035,0,0,1,6.706,6.786,7.033,7.033,0,0,1-6.706,6.785.081.081,0,0,0-.081.081v1.99Z" fill="#696969"/>
        </g>
        <g style="isolation: isolate">
          <path d="M48.508,3.592c2.449,0,4,2.016,4,4.93,0,2.9-1.552,4.9-4,4.9-2.417,0-3.954-2-3.954-4.9C44.554,5.608,46.091,3.592,48.508,3.592Zm0,8.163c1.2,0,2.065-1.217,2.065-3.25,0-2.017-.865-3.249-2.065-3.249-1.152,0-1.985,1.232-1.985,3.249C46.523,10.538,47.356,11.755,48.508,11.755Zm6.178-9.124h1.985V17.068H54.686Z" fill="#696969"/>
          <path d="M63.484,5.656v.321c0,3.216,1.1,5.154,2.833,6.162L65.2,13.6a6.986,6.986,0,0,1-2.673-3.426,6.911,6.911,0,0,1-2.785,3.73l-1.2-1.361c1.968-1.345,2.993-3.233,2.993-6.514V5.656H59.05V4.04h6.8V5.656Zm3.377,10.788V9.033H64.924V7.385h1.937v-4.5h1.873V16.444ZM69.854,2.631h1.889V17.085H69.854Z" fill="#696969"/>
          <path d="M80.413,3.335c3.089,0,5.17,1.633,5.17,3.922,0,2.049-1.649,3.569-4.194,3.874v2.656h5.8v1.6H73.61v-1.6H79.4V11.114c-2.544-.32-4.177-1.824-4.177-3.857C75.227,4.968,77.308,3.335,80.413,3.335Zm0,6.211c1.873,0,3.153-.912,3.153-2.273s-1.28-2.289-3.153-2.289-3.17.928-3.17,2.289S78.54,9.546,80.413,9.546Z" fill="#696969"/>
        </g>
      </g>
      <g>
        <circle cx="9.858" cy="9.858" r="9.858" fill="#696969"/>
        <g style="isolation: isolate">
          <path d="M5.409,14.485V8.406H3.223V7.1A2.322,2.322,0,0,0,5.661,5.394H7.328v9.091Z" fill="#fff"/>
          <path d="M9.117,8.854a3.431,3.431,0,0,1-.07-.631,3.068,3.068,0,0,1,3.32-3.039,3.005,3.005,0,0,1,3.277,2.928,3.266,3.266,0,0,1-1.764,2.815l-1.751,1.065a1.849,1.849,0,0,0-.785.826H15.7v1.667H8.977a4.148,4.148,0,0,1,2.143-3.88l1.5-.9A1.772,1.772,0,0,0,13.7,8.139a1.243,1.243,0,0,0-1.373-1.246,1.371,1.371,0,0,0-1.443,1.513,2,2,0,0,0,.07.5Z" fill="#fff"/>
        </g>
      </g>
    </g>
  </g>
</svg>
