<svg xmlns="http://www.w3.org/2000/svg" width="69.837mm" height="13.339mm" viewBox="0 0 197.964 37.811">
  <g>
    <g style="isolation: isolate">
      <path d="M89.117,27.2c-.071,3.179-2.182,5.073-5.073,5.817l-.731-1.175c2.05-.444,3.825-1.667,4.15-3.43H83.876V27.2ZM85.471,37.811v-4.4h7.137v4.4Zm5.649-3.2H86.97v2.026h4.15Zm0-8.023h1.5v6.272h-1.5Z" fill="#696969"/>
      <path d="M100.146,34.837a6.755,6.755,0,0,1-2.507-3,6.072,6.072,0,0,1-2.6,3.2l-.911-1.092a5.675,5.675,0,0,0,2.722-4.989V27.329h1.536v1.559a5.532,5.532,0,0,0,2.65,4.845Zm2.027,2.566V31.287h-2.2V30h2.2V26.586h1.486V37.4Z" fill="#696969"/>
      <path d="M112.673,35.365c-.888.119-2.375.227-3.742.287-1.1.049-2.435.1-3.49.1l-.18-1.272c.935.012,2.387-.012,3.49-.048,1.487-.048,3-.156,3.826-.252Zm-7.124-5.65V28.564h6.668v1.151Zm3.382,4.042c-1.619,0-2.687-.755-2.687-1.871s1.163-1.871,2.687-1.871c1.571,0,2.7.768,2.7,1.883S110.6,33.757,108.931,33.757Zm-1.619-5.649V26.945h3.19v1.163Zm.347,3.778c0,.432.5.8,1.272.8s1.271-.372,1.271-.8-.492-.8-1.271-.8S107.659,31.443,107.659,31.886Zm5.494-5.3h1.5V37.511h-1.5Z" fill="#696969"/>
    </g>
    <g>
      <g style="isolation: isolate">
        <path d="M140.256,11.343v4.988H138.1V3.565h4.735A3.812,3.812,0,0,1,146.9,7.454a3.8,3.8,0,0,1-4.069,3.889Zm2.251-1.909a1.933,1.933,0,0,0,2.2-1.962,1.95,1.95,0,0,0-2.2-2h-2.251V9.434Z" fill="#696969"/>
        <path d="M156.53,11.937a4.548,4.548,0,1,1-9.093,0,4.548,4.548,0,1,1,9.093,0Zm-2.106,0a2.466,2.466,0,1,0-4.9,0,2.47,2.47,0,1,0,4.9,0Z" fill="#696969"/>
        <path d="M163.675,9.632a4.551,4.551,0,0,0-.684-.053c-1.621,0-2.359.936-2.359,2.575v4.177h-2.088V7.562h2.034v1.4a2.654,2.654,0,0,1,2.539-1.512,2.99,2.99,0,0,1,.558.054Z" fill="#696969"/>
        <path d="M168.444,7.562h1.819V9.417h-1.819v4.069c0,.774.342,1.1,1.117,1.1a4.428,4.428,0,0,0,.72-.073v1.729a3.287,3.287,0,0,1-1.279.2,2.418,2.418,0,0,1-2.628-2.611V9.417h-1.621V7.562h.45a1.244,1.244,0,0,0,1.351-1.368V4.879h1.89Z" fill="#696969"/>
        <path d="M177.373,9.632a4.551,4.551,0,0,0-.684-.053c-1.621,0-2.359.936-2.359,2.575v4.177h-2.088V7.562h2.034v1.4a2.652,2.652,0,0,1,2.539-1.512,2.99,2.99,0,0,1,.558.054Z" fill="#696969"/>
        <path d="M181.242,11.307l2.25-.342c.5-.072.648-.324.648-.63,0-.739-.5-1.332-1.656-1.332a1.69,1.69,0,0,0-1.8,1.584l-1.908-.432a3.434,3.434,0,0,1,3.691-2.863c2.7,0,3.727,1.531,3.727,3.277v4.357a7.968,7.968,0,0,0,.108,1.4h-1.945a4.879,4.879,0,0,1-.09-1.117,3.06,3.06,0,0,1-2.7,1.387,2.75,2.75,0,0,1-2.971-2.647C178.6,12.387,179.747,11.523,181.242,11.307Zm2.9,1.387v-.4l-2.286.342c-.649.109-1.171.469-1.171,1.189a1.16,1.16,0,0,0,1.279,1.134A2,2,0,0,0,184.14,12.694Z" fill="#696969"/>
        <path d="M189.738,3.115a1.367,1.367,0,0,1,1.368,1.368,1.36,1.36,0,1,1-1.368-1.368Zm-1.027,13.216V7.562h2.071v8.769Z" fill="#696969"/>
        <path d="M196.128,7.562h1.819V9.417h-1.819v4.069c0,.774.342,1.1,1.116,1.1a4.414,4.414,0,0,0,.72-.073v1.729a3.285,3.285,0,0,1-1.278.2,2.418,2.418,0,0,1-2.629-2.611V9.417h-1.62V7.562h.45a1.243,1.243,0,0,0,1.35-1.368V4.879h1.891Z" fill="#696969"/>
      </g>
      <g>
        <g>
          <path d="M38.306,18.714a.082.082,0,0,1-.082.082h0A8.939,8.939,0,1,1,37.955.92c.089,0,.178,0,.268,0a.084.084,0,0,1,.083.08V2.991a.08.08,0,0,1-.08.081,7.034,7.034,0,0,0-6.707,6.785,7.032,7.032,0,0,0,6.706,6.786.082.082,0,0,1,.08.081Z" fill="#696969"/>
          <path d="M118.024,18.714a.083.083,0,0,0,.082.083h0a8.939,8.939,0,0,0,0-17.878.083.083,0,0,0-.059.024.082.082,0,0,0-.024.058V2.991a.081.081,0,0,0,.081.081,7.035,7.035,0,0,1,6.706,6.786,7.034,7.034,0,0,1-6.706,6.785.083.083,0,0,0-.082.081v1.99Z" fill="#696969"/>
        </g>
        <g style="isolation: isolate">
          <path d="M46.872,11.343v4.988H44.711V3.565h4.736a3.812,3.812,0,0,1,4.069,3.889,3.8,3.8,0,0,1-4.069,3.889Zm2.251-1.909a1.933,1.933,0,0,0,2.2-1.962,1.95,1.95,0,0,0-2.2-2H46.872V9.434Z" fill="#696969"/>
          <path d="M63.146,11.937a4.548,4.548,0,1,1-9.093,0,4.548,4.548,0,1,1,9.093,0Zm-2.107,0a2.466,2.466,0,1,0-4.9,0,2.47,2.47,0,1,0,4.9,0Z" fill="#696969"/>
          <path d="M70.291,9.632a4.551,4.551,0,0,0-.684-.053c-1.621,0-2.359.936-2.359,2.575v4.177H65.159V7.562h2.035v1.4a2.652,2.652,0,0,1,2.539-1.512,2.99,2.99,0,0,1,.558.054Z" fill="#696969"/>
          <path d="M75.06,7.562h1.819V9.417H75.06v4.069c0,.774.342,1.1,1.117,1.1a4.412,4.412,0,0,0,.719-.073v1.729a3.285,3.285,0,0,1-1.278.2,2.418,2.418,0,0,1-2.628-2.611V9.417H71.369V7.562h.45a1.243,1.243,0,0,0,1.35-1.368V4.879H75.06Z" fill="#696969"/>
          <path d="M78.443,11.992V10.136H83.52v1.856Z" fill="#696969"/>
          <path d="M90.81,9.632a4.551,4.551,0,0,0-.684-.053c-1.62,0-2.359.936-2.359,2.575v4.177H85.679V7.562h2.035v1.4a2.652,2.652,0,0,1,2.538-1.512,2.979,2.979,0,0,1,.558.054Z" fill="#696969"/>
          <path d="M94.679,11.307l2.25-.342c.5-.072.649-.324.649-.63,0-.739-.5-1.332-1.657-1.332a1.689,1.689,0,0,0-1.8,1.584l-1.909-.432A3.435,3.435,0,0,1,95.9,7.292c2.7,0,3.728,1.531,3.728,3.277v4.357a7.968,7.968,0,0,0,.108,1.4H97.794a4.879,4.879,0,0,1-.09-1.117A3.06,3.06,0,0,1,95,16.6a2.751,2.751,0,0,1-2.971-2.647C92.032,12.387,93.184,11.523,94.679,11.307Zm2.9,1.387v-.4l-2.287.342c-.648.109-1.17.469-1.17,1.189A1.159,1.159,0,0,0,95.4,14.962,2,2,0,0,0,97.578,12.694Z" fill="#696969"/>
          <path d="M103.175,3.115a1.367,1.367,0,0,1,1.368,1.368,1.359,1.359,0,1,1-1.368-1.368Zm-1.026,13.216V7.562h2.07v8.769Z" fill="#696969"/>
          <path d="M109.565,7.562h1.819V9.417h-1.819v4.069c0,.774.343,1.1,1.116,1.1a4.43,4.43,0,0,0,.721-.073v1.729a3.287,3.287,0,0,1-1.279.2,2.418,2.418,0,0,1-2.628-2.611V9.417h-1.621V7.562h.451a1.243,1.243,0,0,0,1.35-1.368V4.879h1.89Z" fill="#696969"/>
        </g>
      </g>
      <g>
        <circle cx="9.858" cy="9.858" r="9.858" fill="#696969"/>
        <g style="isolation: isolate">
          <path d="M5.4,14.551V8.472H3.216v-1.3A2.319,2.319,0,0,0,5.653,5.46H7.32v9.091Z" fill="#fff"/>
          <path d="M10.6,9.172l2.381-2.045H9V5.46h6.429V7.015L13.074,8.976a2.709,2.709,0,0,1,2.634,2.773c0,1.57-1.289,3.012-3.488,3.012a3.265,3.265,0,0,1-3.516-2.9l1.863-.365a1.6,1.6,0,0,0,1.653,1.6,1.4,1.4,0,0,0,1.541-1.372,1.328,1.328,0,0,0-1.485-1.345,2.264,2.264,0,0,0-.827.14Z" fill="#fff"/>
        </g>
      </g>
    </g>
  </g>
</svg>
