<svg xmlns="http://www.w3.org/2000/svg" width="110.219mm" height="13.463mm" viewBox="0 0 312.433 38.164">
  <g>
    <g style="isolation: isolate">
      <path d="M138.384,27.179c1.631,0,2.723,1.211,2.939,3.034h1.883V26.459h1.487V37.276h-1.487v-5.8h-1.883c-.192,1.847-1.3,3.07-2.939,3.07-1.811,0-2.974-1.5-2.974-3.67S136.573,27.179,138.384,27.179Zm0,6.116c.888,0,1.535-.911,1.535-2.435s-.647-2.434-1.535-2.434c-.863,0-1.5.924-1.5,2.434S137.521,33.3,138.384,33.3Z" fill="#696969"/>
      <path d="M151.007,33.175a2.279,2.279,0,0,1-2.1,1.439c-1.692,0-2.567-1.691-2.567-3.681,0-1.967.875-3.658,2.567-3.658a2.281,2.281,0,0,1,2.074,1.4h1.308V26.651h1.415V36.8h-1.415V33.175Zm-2.1-4.617c-.744,0-1.164,1.031-1.164,2.386s.42,2.363,1.164,2.363,1.163-1.02,1.163-2.363S149.664,28.558,148.909,28.558Zm2.482,3.358h.9V29.937h-.912a5.527,5.527,0,0,1,.084,1.007A6.387,6.387,0,0,1,151.391,31.916Zm3.131,5.36V26.471h1.427V37.276Z" fill="#696969"/>
      <path d="M163.235,33.068a5.288,5.288,0,0,1-2.519-2.4,4.9,4.9,0,0,1-2.578,2.7l-.876-1.151a4.2,4.2,0,0,0,2.663-3.838V27.023h1.559V28.33a3.964,3.964,0,0,0,2.579,3.586Zm-3.562,4.437v-3.73h1.487v2.518H167v1.212Zm5.613-2.95V30.177h-2.135V28.966h2.135V26.459h1.487v8.1Z" fill="#696969"/>
    </g>
    <g>
      <g style="isolation: isolate">
        <path d="M200.089,17.533c-2.865,0-4.866-1.072-4.866-2.945,0-1.6,1.5-2.673,3.842-2.913V10.554h-5.779V8.938H206.86v1.616h-5.811v1.121c2.37.224,3.874,1.3,3.874,2.913C204.923,16.461,202.922,17.533,200.089,17.533Zm-4.834-9.716v-5.3h9.716v1.6H197.24v2.1h7.811v1.6Zm4.818,5.411c-1.712,0-2.833.528-2.833,1.376s1.121,1.36,2.833,1.36c1.7,0,2.849-.527,2.849-1.36S201.77,13.228,200.073,13.228Z" fill="#696969"/>
        <path d="M216.25,13.115a8.054,8.054,0,0,1-3.521-3.809,7.418,7.418,0,0,1-3.506,4.13l-1.2-1.49a6.7,6.7,0,0,0,3.633-6.45V5.128H208.7V3.512h7.971V5.128h-2.913v.353a6.318,6.318,0,0,0,3.6,6.1Zm2.273-10.932h1.984V16.62h-1.984Z" fill="#696969"/>
      </g>
      <g>
        <g>
          <path d="M119.115,18.714a.082.082,0,0,1-.082.082h0A8.939,8.939,0,0,1,118.764.92c.09,0,.179,0,.268,0a.083.083,0,0,1,.083.08V2.991a.08.08,0,0,1-.08.081,7.035,7.035,0,0,0-6.707,6.785,7.033,7.033,0,0,0,6.706,6.786.082.082,0,0,1,.08.081Z" fill="#696969"/>
          <path d="M174.833,18.714a.083.083,0,0,0,.082.083h0a8.939,8.939,0,0,0,0-17.878.085.085,0,0,0-.059.024.082.082,0,0,0-.024.058V2.991a.081.081,0,0,0,.081.081,7.035,7.035,0,0,1,6.706,6.786,7.033,7.033,0,0,1-6.706,6.785.081.081,0,0,0-.081.081v1.99Z" fill="#696969"/>
        </g>
        <g style="isolation: isolate">
          <path d="M133.447,13.171V3.808h7.187v9.363Zm5.187-7.747h-3.2v6.115h3.2Zm4.594-2.785h2V17.077h-2Z" fill="#696969"/>
          <path d="M153.754,13.4a6.873,6.873,0,0,1-2.641-3.441,6.865,6.865,0,0,1-2.85,3.84l-1.184-1.408c1.825-1.232,3.025-3.329,3.025-6.53V3.776h1.969V5.825c0,3.009,1.136,5.122,2.849,6.13Zm4.641,3.681V9.554h-1.264v6.883h-1.889V2.879h1.889v5.01H158.4V2.639h1.889V17.077Z" fill="#696969"/>
        </g>
      </g>
      <g>
        <circle cx="91.049" cy="9.858" r="9.858" fill="#696969"/>
        <g style="isolation: isolate">
          <path d="M86.519,14.551V8.472H84.334v-1.3A2.319,2.319,0,0,0,86.771,5.46h1.667v9.091Z" fill="#fff"/>
          <path d="M90.97,6.777a3.436,3.436,0,0,1,3-1.527,3.39,3.39,0,0,1,2.983,1.527,5.8,5.8,0,0,1,.813,3.236,5.8,5.8,0,0,1-.813,3.235,3.39,3.39,0,0,1-2.983,1.527,3.436,3.436,0,0,1-3-1.527,5.8,5.8,0,0,1-.8-3.235A5.8,5.8,0,0,1,90.97,6.777ZM92.6,12.324a1.518,1.518,0,0,0,1.373.743,1.479,1.479,0,0,0,1.358-.743,4.25,4.25,0,0,0,.505-2.311A4.245,4.245,0,0,0,95.326,7.7a1.477,1.477,0,0,0-1.358-.743A1.516,1.516,0,0,0,92.6,7.7a4.391,4.391,0,0,0-.49,2.311A4.4,4.4,0,0,0,92.6,12.324Z" fill="#fff"/>
        </g>
      </g>
    </g>
  </g>
</svg>
