<svg xmlns="http://www.w3.org/2000/svg" width="110.219mm" height="13.463mm" viewBox="0 0 312.433 38.164">
  <g style="isolation: isolate">
    <g style="isolation: isolate">
      <path d="M61.738,14.529V12.9H75.312v1.633Zm12.181-3.938H63.1V8.975h2.145l-.4-3.457,2.032-.225.272,3.682H69.9l.464-3.666,1.985.273L71.79,8.975h2.129Zm-.112-6.082H63.2V2.893H73.807Z" fill="#696969"/>
      <path d="M84.222,10.8v2.242h5.81v1.6H76.458v-1.6h5.779V10.8h-3.89V5.9h7.827V4.253H78.315v-1.6h9.844V7.486H80.332V9.167h8.211V10.8Z" fill="#696969"/>
      <path d="M98.3,8.575H93.675V11.2a28.213,28.213,0,0,0,6.035-.449l.208,1.633a41,41,0,0,1-8.2.464V2.972h6.9v1.6H93.675V6.942H98.3Zm4.626.111v7.652h-1.985V1.884h1.985V7.038h2.193V8.686Z" fill="#696969"/>
      <path d="M111.66,16.786V11.7H105.9V10.079h13.574V11.7h-5.811v5.09Zm2.161-12.645c.256,1.745,2.577,2.993,4.754,3.249l-.8,1.569a7.609,7.609,0,0,1-5.09-2.945c-.752,1.456-3.025,2.721-5.059,2.977l-.832-1.569c2.209-.256,4.5-1.536,4.754-3.281h-4.161V2.524h10.58V4.141Z" fill="#696969"/>
      <path d="M131.757,2.652c-.048,4.114-2.513,6.339-5.618,7.507l-1.057-1.584c2.529-.769,4.274-2.433,4.53-4.306h-3.874V2.652Zm-3.538,14.342V12.848h7.732v-.976h-7.8V10.255h9.781v4.114H130.2v1.008h8.115v1.617Zm7.812-7.459V6.67h-1.3V9.455h-1.873V2.124h1.873V5.037h1.3V1.884h1.92V9.535Z" fill="#696969"/>
      <path d="M148.558,12.5a42.325,42.325,0,0,1-8.164.448V6.894h4.626V4.557h-4.642v-1.6h6.643V8.462h-4.642v2.849a29.158,29.158,0,0,0,5.971-.447Zm1.84,3.826V8.575h-2.369V6.894H150.4V1.884h1.985V16.322Z" fill="#696969"/>
      <path d="M163.966,12.4a43.716,43.716,0,0,1-8.531.464V6.878h4.85v-2.3h-4.914v-1.6h6.9v5.49h-4.85v2.786a34.692,34.692,0,0,0,6.339-.464Zm1.088-10.516h1.985V16.322h-1.985Z" fill="#696969"/>
      <path d="M179.308,4.637v.048a4.615,4.615,0,0,0,3.425,4.482l-1.04,1.568a6.135,6.135,0,0,1-3.377-3.025,6.1,6.1,0,0,1-3.538,3.362l-1.072-1.553a4.979,4.979,0,0,0,3.553-4.754V4.637H174.25V2.988h7.939V4.637Zm-2.577,11.989V11.648h2v3.361h7.875v1.617Zm7.587-3.938V7.438h-2.481V5.806h2.481V1.884H186.3v10.8Z" fill="#696969"/>
      <path d="M196.509,12.864A8.979,8.979,0,0,1,193.26,8.9a8.025,8.025,0,0,1-3.473,4.273l-1.233-1.456a7.558,7.558,0,0,0,3.65-6.659V2.876h2.065V4.957a7.26,7.26,0,0,0,3.425,6.435Zm2.465-10.98h1.985V16.322h-1.985Z" fill="#696969"/>
      <path d="M208.444,4.477a4.461,4.461,0,0,0,3.362,4.049L210.8,10.111A6.267,6.267,0,0,1,207.42,7.15a6.078,6.078,0,0,1-3.522,3.361l-1.12-1.552a4.955,4.955,0,0,0,3.586-4.482h-2.978V2.828h7.876V4.477Zm1.777,12.6c-2.945,0-4.786-1.248-4.786-3.185s1.841-3.2,4.786-3.2c2.977,0,4.8,1.265,4.8,3.2S213.2,17.074,210.221,17.074Zm0-4.77c-1.713,0-2.785.609-2.785,1.585,0,.96,1.072,1.568,2.785,1.568,1.761,0,2.817-.608,2.817-1.568C213.038,12.913,211.982,12.3,210.221,12.3Zm4.706-5.266v3.553h-1.985V1.884h1.985V5.405h2.257V7.038Z" fill="#696969"/>
      <path d="M229.341,11.888a28.7,28.7,0,0,1-6.419.464V3.26h1.969v7.364a17.323,17.323,0,0,0,4.193-.385Zm3.97,4.434V8.815h-1.473v6.867h-1.873V2.124h1.873V7.182h1.473v-5.3h1.9V16.322Z" fill="#696969"/>
      <path d="M242.876,16.8V11.984H237.1v-1.6h13.574v1.6h-5.811V16.8Zm-3.969-7.859V2.428h1.985V4.189h5.954V2.412h2V8.943Zm7.939-3.153h-5.954V7.326h5.954Z" fill="#696969"/>
    </g>
  </g>
</svg>
