<svg xmlns="http://www.w3.org/2000/svg" width="110.219mm" height="13.463mm" viewBox="0 0 312.433 38.164">
  <g style="isolation: isolate">
    <g style="isolation: isolate">
      <path d="M115.842,4.588H122.6V6.172h-2.289a3.671,3.671,0,0,0,2.657,2.914c-.208.288-.784,1.184-.992,1.488a4.765,4.765,0,0,1-2.657-2.321,4.984,4.984,0,0,1-2.818,2.673c-.24-.288-.864-1.184-1.1-1.488a4.081,4.081,0,0,0,2.85-3.266h-2.4Zm1.5-2.4h3.842v1.6h-3.842Zm9.108,14.726v-3.65h-8.083V11.63h10.084v5.283Zm.1-6.035V7.037H125.3V10.75h-1.888V1.963H125.3V5.436h1.249V1.722h1.9v9.156Z" fill="#696969"/>
      <path d="M139.251,2.251a3.7,3.7,0,0,1,4,3.553c0,2.017-1.7,3.457-4,3.457-2.24,0-3.985-1.408-3.985-3.457A3.7,3.7,0,0,1,139.251,2.251Zm3.827,14.277a23.893,23.893,0,0,1-4.386.352c-.208,0-1.441-.016-1.665-.016V12.991h3.025V12.03H137V10.51h4.994v3.857h-3.041v.993a17.912,17.912,0,0,0,3.922-.3Zm-3.827-8.915A1.913,1.913,0,0,0,141.3,5.788,1.9,1.9,0,0,0,139.251,3.9a1.953,1.953,0,0,0-2.016,1.888A1.893,1.893,0,0,0,139.251,7.613Zm6.131,9.331V12.03h-2.72V10.51h4.721v6.434Zm0-7.234V1.722h1.985V9.71Z" fill="#696969"/>
      <path d="M149.522,10.638V9.022H163.1v1.616Zm3.874,1.184v3.026h7.939v1.633h-9.924V11.822Zm.1-9.748V5.82h7.8V7.437h-9.78V2.074Z" fill="#696969"/>
      <path d="M173.988,4.316a4.461,4.461,0,0,0,3.361,4.049L176.341,9.95a6.274,6.274,0,0,1-3.378-2.962,6.072,6.072,0,0,1-3.521,3.362L168.322,8.8a4.957,4.957,0,0,0,3.586-4.481H168.93V2.667h7.875V4.316Zm1.777,12.6c-2.945,0-4.786-1.249-4.786-3.186s1.841-3.2,4.786-3.2c2.977,0,4.8,1.265,4.8,3.2S178.742,16.913,175.765,16.913Zm0-4.77c-1.713,0-2.785.608-2.785,1.584,0,.961,1.072,1.569,2.785,1.569,1.761,0,2.817-.608,2.817-1.569C178.582,12.751,177.526,12.143,175.765,12.143Zm4.706-5.266V10.43h-1.985V1.722h1.985V5.244h2.257V6.877Z" fill="#696969"/>
      <path d="M183.442,14.48V12.9h5.763V9.5h2V12.9h5.81V14.48Zm7.876-12.133v.912c0,2.657,2.768,4.466,5.1,4.978L195.5,9.822a8.2,8.2,0,0,1-5.266-3.906c-.816,1.937-3.138,3.394-5.25,3.922l-.912-1.633c2.448-.48,5.09-2.273,5.09-4.946V2.347Z" fill="#696969"/>
    </g>
  </g>
</svg>
