<svg xmlns="http://www.w3.org/2000/svg" width="110.219mm" height="13.463mm" viewBox="0 0 312.433 38.164">
  <g>
    <g style="isolation: isolate">
      <path d="M142.514,37.556V33.885H140.08V32.674h10.17v1.211h-2.458v3.671H146.3V33.885H144v3.671Zm2.639-5.541c-2.135,0-3.742-.972-3.742-2.627,0-1.583,1.571-2.614,3.742-2.614,2.219,0,3.754,1.031,3.754,2.614C148.907,31.043,147.3,32.015,145.153,32.015Zm0-3.983c-1.355,0-2.207.577-2.207,1.356s.852,1.391,2.207,1.391c1.332,0,2.207-.6,2.207-1.391S146.485,28.032,145.153,28.032Z" fill="#696969"/>
      <path d="M157.3,34.629a6.035,6.035,0,0,1-2.639-2.854,5.547,5.547,0,0,1-2.627,3.093l-.9-1.115a5.018,5.018,0,0,0,2.723-4.833v-.275h-2.22V27.433h5.974v1.212h-2.183v.263a4.736,4.736,0,0,0,2.7,4.57Zm1.7-8.191h1.487V37.255H159Z" fill="#696969"/>
      <path d="M166.478,37.615V33.753H162.16v-1.2h10.17v1.2h-4.353v3.862Zm1.583-10.95v.564c0,1.7,1.895,2.974,3.67,3.19l-.636,1.2a5.365,5.365,0,0,1-3.838-2.542,5.21,5.21,0,0,1-3.826,2.555l-.648-1.212c1.872-.264,3.659-1.474,3.659-3.19v-.564Z" fill="#696969"/>
    </g>
    <g>
      <g style="isolation: isolate">
        <path d="M177.747,11.674v4.987h-2.16V3.9h4.736a3.812,3.812,0,0,1,4.068,3.889,3.8,3.8,0,0,1-4.068,3.89ZM180,9.764A1.933,1.933,0,0,0,182.2,7.8a1.95,1.95,0,0,0-2.2-2h-2.251V9.764Z" fill="#696969"/>
        <path d="M186.1,16.661V3.624h2.088V16.661Z" fill="#696969"/>
        <path d="M192.957,11.637l2.251-.341c.5-.073.648-.325.648-.631,0-.739-.5-1.332-1.657-1.332a1.689,1.689,0,0,0-1.8,1.584l-1.909-.432a3.435,3.435,0,0,1,3.692-2.863c2.7,0,3.727,1.531,3.727,3.277v4.358a7.95,7.95,0,0,0,.108,1.4h-1.945a4.865,4.865,0,0,1-.09-1.116,3.06,3.06,0,0,1-2.7,1.387,2.75,2.75,0,0,1-2.971-2.648C190.31,12.718,191.463,11.853,192.957,11.637Zm2.9,1.387v-.4l-2.287.342c-.648.108-1.17.468-1.17,1.188a1.159,1.159,0,0,0,1.278,1.135A2,2,0,0,0,195.856,13.024Z" fill="#696969"/>
        <path d="M201.47,13.78a1.643,1.643,0,0,0,1.783,1.494c.864,0,1.314-.467,1.314-1.007,0-.469-.324-.829-1.026-.973l-1.3-.288a2.649,2.649,0,0,1-2.359-2.557,3.041,3.041,0,0,1,3.223-2.827,3.1,3.1,0,0,1,3.385,2.449l-1.765.5a1.507,1.507,0,0,0-1.62-1.315,1.141,1.141,0,0,0-1.26,1.009.962.962,0,0,0,.882.918l1.332.271c1.657.359,2.521,1.368,2.521,2.664,0,1.333-1.081,2.81-3.313,2.81-2.539,0-3.511-1.658-3.619-2.648Z" fill="#696969"/>
        <path d="M211.3,7.892h1.818V9.747H211.3v4.069c0,.775.342,1.1,1.116,1.1a4.609,4.609,0,0,0,.721-.072v1.728a3.288,3.288,0,0,1-1.279.2,2.419,2.419,0,0,1-2.629-2.612V9.747h-1.62V7.892h.45a1.243,1.243,0,0,0,1.35-1.368V5.209H211.3Z" fill="#696969"/>
        <path d="M216.284,3.445a1.367,1.367,0,0,1,1.368,1.368,1.36,1.36,0,1,1-1.368-1.368Zm-1.026,13.216V7.892h2.07v8.769Z" fill="#696969"/>
        <path d="M221.432,12.267a2.494,2.494,0,0,0,2.448,2.755,2.212,2.212,0,0,0,2.2-1.62l1.837.666a4.067,4.067,0,0,1-4.034,2.864,4.5,4.5,0,0,1-4.537-4.665,4.457,4.457,0,0,1,4.483-4.645,3.92,3.92,0,0,1,4.015,2.881l-1.872.684a2.063,2.063,0,0,0-2.125-1.639A2.456,2.456,0,0,0,221.432,12.267Z" fill="#696969"/>
        <path d="M230.791,3.445a1.368,1.368,0,0,1,1.369,1.368,1.36,1.36,0,1,1-1.369-1.368Zm-1.026,13.216V7.892h2.07v8.769Z" fill="#696969"/>
        <path d="M237.181,7.892H239V9.747h-1.819v4.069c0,.775.343,1.1,1.117,1.1a4.578,4.578,0,0,0,.72-.072v1.728a3.276,3.276,0,0,1-1.278.2,2.419,2.419,0,0,1-2.629-2.612V9.747h-1.62V7.892h.45a1.243,1.243,0,0,0,1.35-1.368V5.209h1.89Z" fill="#696969"/>
        <path d="M248.811,14.158a3.949,3.949,0,0,1-3.961,2.774,4.428,4.428,0,0,1-4.483-4.7,4.4,4.4,0,0,1,4.267-4.609c2.7,0,4.285,1.783,4.285,4.556a3.11,3.11,0,0,1-.054.666h-6.41a2.347,2.347,0,0,0,2.395,2.287,2.116,2.116,0,0,0,2.2-1.53Zm-2-2.845a1.965,1.965,0,0,0-2.161-1.944,2.105,2.105,0,0,0-2.143,1.944Z" fill="#696969"/>
      </g>
      <g>
        <g>
          <path d="M101.48,18.714a.081.081,0,0,1-.082.082h0A8.939,8.939,0,0,1,101.13.92q.133,0,.267,0a.083.083,0,0,1,.083.08V2.991a.08.08,0,0,1-.08.081,7.035,7.035,0,0,0-6.707,6.785,7.034,7.034,0,0,0,6.706,6.786.081.081,0,0,1,.08.081Z" fill="#696969"/>
          <path d="M157.2,18.714a.083.083,0,0,0,.082.083h0a8.939,8.939,0,0,0,0-17.878A.082.082,0,0,0,157.2,1V2.991a.081.081,0,0,0,.081.081,7.035,7.035,0,0,1,6.706,6.786,7.033,7.033,0,0,1-6.706,6.785.082.082,0,0,0-.081.081v1.99Z" fill="#696969"/>
        </g>
        <g style="isolation: isolate">
          <path d="M116.152,10.4a6.651,6.651,0,0,1-3.329-3.073,6.445,6.445,0,0,1-3.473,3.489L108.165,9.3A5.425,5.425,0,0,0,111.75,4.32V2.783h2.065V4.256a5.011,5.011,0,0,0,3.457,4.609Zm2.721,6.979V13.348h-7.715V11.731h9.716v5.65Zm0-6.435V6.961h-2.849V5.3h2.849V2.255h1.985v8.691Z" fill="#696969"/>
          <path d="M128.775,17.173V12.019h-5.762v-1.6h13.574v1.6h-5.811v5.154ZM130.888,2.56v.752c0,2.272,2.529,3.969,4.9,4.257l-.849,1.6a7.16,7.16,0,0,1-5.122-3.394c-.688,1.6-2.785,2.994-5.106,3.41l-.864-1.617c2.5-.352,4.881-1.968,4.881-4.257V2.56Z" fill="#696969"/>
          <path d="M138.245,3.167h7.923V4.8H143.3A4.5,4.5,0,0,0,146.7,8.9l-1.025,1.569a6.12,6.12,0,0,1-3.361-2.93,6.189,6.189,0,0,1-3.521,3.314l-1.1-1.537A4.939,4.939,0,0,0,141.254,4.8h-3.009Zm7.235,14.294c-2.945,0-4.8-1.232-4.8-3.153,0-1.937,1.857-3.2,4.8-3.2,2.977,0,4.818,1.264,4.818,3.2C150.3,16.229,148.457,17.461,145.48,17.461Zm0-4.737c-1.712,0-2.785.607-2.785,1.584,0,.928,1.073,1.537,2.785,1.537,1.761,0,2.817-.609,2.817-1.537C148.3,13.331,147.241,12.724,145.48,12.724Zm2.833-1.681V7.377h-2.481V5.761h2.481V2.255H150.3v8.788Z" fill="#696969"/>
        </g>
      </g>
      <g>
        <circle cx="73.349" cy="9.858" r="9.858" fill="#696969"/>
        <g style="isolation: isolate">
          <path d="M71.625,9.173l2.382-2.045H70.029V5.461h6.429V7.015L74.105,8.976a2.709,2.709,0,0,1,2.633,2.774c0,1.569-1.288,3.012-3.488,3.012a3.266,3.266,0,0,1-3.516-2.9L71.6,11.5a1.6,1.6,0,0,0,1.652,1.6,1.4,1.4,0,0,0,1.541-1.373,1.327,1.327,0,0,0-1.484-1.344,2.264,2.264,0,0,0-.827.139Z" fill="#fff"/>
        </g>
      </g>
    </g>
  </g>
</svg>
