<svg xmlns="http://www.w3.org/2000/svg" width="110.219mm" height="13.463mm" viewBox="0 0 312.433 38.164">
  <g>
    <g style="isolation: isolate">
      <path d="M140.583,33.115V27.454h1.476v1.727h2.375V27.442h1.475v5.673Zm3.851-2.759h-2.375v1.583h2.375Zm-2.279,7.436V34.063h1.487v2.53h5.781v1.2Zm6.98-6.752v3.778h-1.488V26.771h1.488v3.022h1.679V31.04Z" fill="#696969"/>
      <path d="M155.689,37.948V34.086h-4.317v-1.2h10.17v1.2h-4.354v3.862ZM157.272,27v.564c0,1.7,1.9,2.974,3.67,3.19l-.635,1.2a5.364,5.364,0,0,1-3.838-2.542,5.215,5.215,0,0,1-3.826,2.555L152,30.752c1.871-.264,3.658-1.475,3.658-3.19V27Z" fill="#696969"/>
      <path d="M162.795,27.454h5.937v1.224h-2.147a3.37,3.37,0,0,0,2.543,3.07l-.768,1.175a4.589,4.589,0,0,1-2.518-2.194,4.638,4.638,0,0,1-2.639,2.482l-.827-1.151a3.7,3.7,0,0,0,2.674-3.382h-2.255Zm5.422,10.71c-2.207,0-3.6-.924-3.6-2.362s1.391-2.4,3.6-2.4c2.23,0,3.61.949,3.61,2.4S170.447,38.164,168.217,38.164Zm0-3.55c-1.284,0-2.087.455-2.087,1.188,0,.7.8,1.151,2.087,1.151,1.319,0,2.11-.456,2.11-1.151C170.327,35.069,169.536,34.614,168.217,34.614Zm2.122-1.259V30.608H168.48V29.4h1.859V26.771h1.488v6.584Z" fill="#696969"/>
    </g>
    <g>
      <g>
        <g style="isolation: isolate">
          <path d="M203.02,13.036h-5.4l-1.188,3.205h-2.287l4.97-12.766h2.5l4.969,12.766h-2.359Zm-4.646-2h3.889l-1.944-5.222Z" fill="#696969"/>
        </g>
        <g style="isolation: isolate">
          <path d="M210.542,11.614l-.252.288-3.529-2.917,3.529-2.936.252.288L209.264,8.48h8.39l-1.26-2.143.252-.288,3.511,2.936L216.646,11.9l-.252-.288,1.26-2.125h-8.39Z" fill="#696969"/>
        </g>
        <g style="isolation: isolate">
          <path d="M226.077,3.475c2.449,0,3.889,1.441,3.889,3.439a2.843,2.843,0,0,1-1.89,2.755,3.056,3.056,0,0,1,2.286,3.043c0,2.052-1.584,3.529-3.961,3.529h-4.718V3.475Zm-.288,5.4a1.782,1.782,0,0,0,2.016-1.783c0-1.081-.756-1.783-2.07-1.783h-1.909V8.877Zm.234,5.527c1.3,0,2.142-.7,2.142-1.836A1.836,1.836,0,0,0,226.1,10.7h-2.269V14.4Z" fill="#696969"/>
        </g>
      </g>
      <g>
        <g>
          <path d="M120.006,18.714a.081.081,0,0,1-.082.082h0A8.939,8.939,0,0,1,119.656.92q.133,0,.267,0a.083.083,0,0,1,.083.08V2.991a.08.08,0,0,1-.08.081,7.035,7.035,0,0,0-6.707,6.785,7.034,7.034,0,0,0,6.706,6.786.081.081,0,0,1,.08.081Z" fill="#696969"/>
          <path d="M175.724,18.714a.083.083,0,0,0,.082.083h0a8.939,8.939,0,0,0,0-17.878.082.082,0,0,0-.083.082V2.991a.081.081,0,0,0,.081.081,7.034,7.034,0,0,1,6.706,6.786,7.033,7.033,0,0,1-6.706,6.785.082.082,0,0,0-.081.081v1.99Z" fill="#696969"/>
        </g>
        <g style="isolation: isolate">
          <path d="M126.923,10.723V3.167h1.969V5.473h3.169V3.151h1.969v7.572Zm5.138-3.682h-3.169V9.154h3.169Zm-3.041,9.924V11.987h1.985v3.377h7.715v1.6Zm9.316-9.012V13h-1.985V2.255h1.985V6.289h2.241V7.953Z" fill="#696969"/>
          <path d="M147.069,17.173V12.019h-5.762v-1.6h13.574v1.6H149.07v5.154ZM149.182,2.56v.752c0,2.272,2.529,3.969,4.9,4.257l-.848,1.6a7.16,7.16,0,0,1-5.122-3.394c-.688,1.6-2.785,2.994-5.106,3.41l-.864-1.617c2.5-.352,4.881-1.968,4.881-4.257V2.56Z" fill="#696969"/>
          <path d="M156.539,3.167h7.923V4.8H161.6a4.5,4.5,0,0,0,3.394,4.1l-1.025,1.569a6.12,6.12,0,0,1-3.361-2.93,6.188,6.188,0,0,1-3.522,3.314l-1.1-1.537A4.94,4.94,0,0,0,159.548,4.8h-3.009Zm7.235,14.294c-2.945,0-4.8-1.232-4.8-3.153,0-1.937,1.857-3.2,4.8-3.2,2.977,0,4.818,1.264,4.818,3.2C168.592,16.229,166.751,17.461,163.774,17.461Zm0-4.737c-1.713,0-2.785.607-2.785,1.584,0,.928,1.072,1.537,2.785,1.537,1.761,0,2.817-.609,2.817-1.537C166.591,13.331,165.535,12.724,163.774,12.724Zm2.833-1.681V7.377h-2.481V5.761h2.481V2.255h1.985v8.788Z" fill="#696969"/>
        </g>
      </g>
      <g>
        <circle cx="91.906" cy="9.858" r="9.858" fill="#696969"/>
        <g style="isolation: isolate">
          <path d="M91.076,14.552V8.472H88.891V7.17a2.32,2.32,0,0,0,2.437-1.709H93v9.091Z" fill="#fff"/>
        </g>
      </g>
    </g>
  </g>
</svg>
