<svg xmlns="http://www.w3.org/2000/svg" width="110.219mm" height="13.463mm" viewBox="0 0 312.433 38.164">
  <g>
    <g style="isolation: isolate">
      <path d="M146.34,27.2c-.071,3.179-2.182,5.073-5.073,5.817l-.731-1.175c2.05-.444,3.825-1.667,4.15-3.43H141.1V27.2Zm-3.646,10.614v-4.4h7.137v4.4Zm5.649-3.2h-4.15v2.026h4.15Zm0-8.023h1.5v6.272h-1.5Z" fill="#696969"/>
      <path d="M157.369,34.837a6.755,6.755,0,0,1-2.507-3,6.072,6.072,0,0,1-2.6,3.2l-.911-1.092a5.675,5.675,0,0,0,2.722-4.989V27.329H155.6v1.559a5.532,5.532,0,0,0,2.651,4.845ZM159.4,37.4V31.287H157.2V30H159.4V26.586h1.487V37.4Z" fill="#696969"/>
      <path d="M169.9,35.365c-.887.119-2.374.227-3.741.287-1.1.049-2.435.1-3.49.1l-.18-1.272c.935.012,2.387-.012,3.49-.048,1.487-.048,3-.156,3.826-.252Zm-7.124-5.65V28.564h6.669v1.151Zm3.383,4.042c-1.619,0-2.687-.755-2.687-1.871s1.163-1.871,2.687-1.871c1.571,0,2.7.768,2.7,1.883S167.821,33.757,166.154,33.757Zm-1.619-5.649V26.945h3.19v1.163Zm.347,3.778c0,.432.5.8,1.272.8s1.271-.372,1.271-.8-.492-.8-1.271-.8S164.882,31.443,164.882,31.886Zm5.493-5.3h1.5V37.511h-1.5Z" fill="#696969"/>
    </g>
    <g>
      <g style="isolation: isolate">
        <path d="M197.479,11.343v4.988h-2.16V3.565h4.735a3.812,3.812,0,0,1,4.069,3.889,3.8,3.8,0,0,1-4.069,3.889Zm2.251-1.909a1.933,1.933,0,0,0,2.2-1.962,1.95,1.95,0,0,0-2.2-2h-2.251V9.434Z" fill="#696969"/>
        <path d="M213.753,11.937a4.548,4.548,0,1,1-9.093,0,4.548,4.548,0,1,1,9.093,0Zm-2.106,0a2.466,2.466,0,1,0-4.9,0,2.47,2.47,0,1,0,4.9,0Z" fill="#696969"/>
        <path d="M220.9,9.632a4.551,4.551,0,0,0-.684-.053c-1.621,0-2.359.936-2.359,2.575v4.177h-2.088V7.562H217.8v1.4a2.653,2.653,0,0,1,2.539-1.512,2.99,2.99,0,0,1,.558.054Z" fill="#696969"/>
        <path d="M225.667,7.562h1.819V9.417h-1.819v4.069c0,.774.342,1.1,1.117,1.1a4.428,4.428,0,0,0,.72-.073v1.729a3.287,3.287,0,0,1-1.279.2,2.418,2.418,0,0,1-2.628-2.611V9.417h-1.621V7.562h.45a1.244,1.244,0,0,0,1.351-1.368V4.879h1.89Z" fill="#696969"/>
        <path d="M234.6,9.632a4.551,4.551,0,0,0-.684-.053c-1.621,0-2.359.936-2.359,2.575v4.177h-2.089V7.562H231.5v1.4a2.652,2.652,0,0,1,2.539-1.512,2.99,2.99,0,0,1,.558.054Z" fill="#696969"/>
        <path d="M238.464,11.307l2.251-.342c.5-.072.648-.324.648-.63,0-.739-.5-1.332-1.656-1.332a1.69,1.69,0,0,0-1.8,1.584L236,10.155a3.434,3.434,0,0,1,3.691-2.863c2.7,0,3.727,1.531,3.727,3.277v4.357a7.968,7.968,0,0,0,.108,1.4h-1.945a4.879,4.879,0,0,1-.09-1.117,3.06,3.06,0,0,1-2.7,1.387,2.75,2.75,0,0,1-2.971-2.647C235.818,12.387,236.97,11.523,238.464,11.307Zm2.9,1.387v-.4l-2.286.342c-.649.109-1.171.469-1.171,1.189a1.16,1.16,0,0,0,1.279,1.134A2,2,0,0,0,241.363,12.694Z" fill="#696969"/>
        <path d="M246.961,3.115a1.368,1.368,0,0,1,1.368,1.368,1.36,1.36,0,1,1-1.368-1.368Zm-1.027,13.216V7.562h2.071v8.769Z" fill="#696969"/>
        <path d="M253.351,7.562h1.819V9.417h-1.819v4.069c0,.774.342,1.1,1.116,1.1a4.414,4.414,0,0,0,.72-.073v1.729a3.285,3.285,0,0,1-1.278.2,2.418,2.418,0,0,1-2.629-2.611V9.417h-1.62V7.562h.45a1.243,1.243,0,0,0,1.35-1.368V4.879h1.891Z" fill="#696969"/>
      </g>
      <g>
        <g>
          <path d="M95.528,18.714a.081.081,0,0,1-.082.082h0A8.939,8.939,0,0,1,95.178.92q.133,0,.267,0a.083.083,0,0,1,.083.08V2.991a.08.08,0,0,1-.08.081,7.035,7.035,0,0,0-6.707,6.785,7.034,7.034,0,0,0,6.706,6.786.081.081,0,0,1,.08.081Z" fill="#696969"/>
          <path d="M175.246,18.714a.083.083,0,0,0,.082.083h0a8.939,8.939,0,0,0,0-17.878.082.082,0,0,0-.083.082V2.991a.081.081,0,0,0,.081.081,7.034,7.034,0,0,1,6.706,6.786,7.032,7.032,0,0,1-6.706,6.785.082.082,0,0,0-.081.081v1.99Z" fill="#696969"/>
        </g>
        <g style="isolation: isolate">
          <path d="M104.1,11.343v4.988h-2.161V3.565h4.736a3.812,3.812,0,0,1,4.069,3.889,3.8,3.8,0,0,1-4.069,3.889Zm2.251-1.909a1.933,1.933,0,0,0,2.2-1.962,1.95,1.95,0,0,0-2.2-2H104.1V9.434Z" fill="#696969"/>
          <path d="M120.369,11.937a4.548,4.548,0,1,1-9.093,0,4.548,4.548,0,1,1,9.093,0Zm-2.107,0a2.466,2.466,0,1,0-4.9,0,2.47,2.47,0,1,0,4.9,0Z" fill="#696969"/>
          <path d="M127.514,9.632a4.561,4.561,0,0,0-.684-.053c-1.621,0-2.359.936-2.359,2.575v4.177h-2.089V7.562h2.035v1.4a2.652,2.652,0,0,1,2.539-1.512,2.99,2.99,0,0,1,.558.054Z" fill="#696969"/>
          <path d="M132.283,7.562H134.1V9.417h-1.819v4.069c0,.774.342,1.1,1.116,1.1a4.414,4.414,0,0,0,.72-.073v1.729a3.285,3.285,0,0,1-1.278.2,2.418,2.418,0,0,1-2.629-2.611V9.417h-1.62V7.562h.45a1.243,1.243,0,0,0,1.35-1.368V4.879h1.891Z" fill="#696969"/>
          <path d="M135.666,11.992V10.136h5.077v1.856Z" fill="#696969"/>
          <path d="M148.033,9.632a4.551,4.551,0,0,0-.684-.053c-1.62,0-2.359.936-2.359,2.575v4.177H142.9V7.562h2.035v1.4a2.652,2.652,0,0,1,2.538-1.512,2.99,2.99,0,0,1,.558.054Z" fill="#696969"/>
          <path d="M151.9,11.307l2.25-.342c.505-.072.649-.324.649-.63C154.8,9.6,154.3,9,153.144,9a1.689,1.689,0,0,0-1.8,1.584l-1.909-.432a3.435,3.435,0,0,1,3.691-2.863c2.7,0,3.728,1.531,3.728,3.277v4.357a7.859,7.859,0,0,0,.108,1.4h-1.945a4.879,4.879,0,0,1-.09-1.117,3.06,3.06,0,0,1-2.7,1.387,2.751,2.751,0,0,1-2.971-2.647C149.255,12.387,150.407,11.523,151.9,11.307Zm2.9,1.387v-.4l-2.287.342c-.648.109-1.17.469-1.17,1.189a1.159,1.159,0,0,0,1.278,1.134A2,2,0,0,0,154.8,12.694Z" fill="#696969"/>
          <path d="M160.4,3.115a1.367,1.367,0,0,1,1.368,1.368A1.36,1.36,0,1,1,160.4,3.115Zm-1.026,13.216V7.562h2.07v8.769Z" fill="#696969"/>
          <path d="M166.788,7.562h1.819V9.417h-1.819v4.069c0,.774.342,1.1,1.116,1.1a4.444,4.444,0,0,0,.721-.073v1.729a3.287,3.287,0,0,1-1.279.2,2.418,2.418,0,0,1-2.628-2.611V9.417H163.1V7.562h.45A1.244,1.244,0,0,0,164.9,6.194V4.879h1.89Z" fill="#696969"/>
        </g>
      </g>
      <g>
        <circle cx="67.081" cy="9.858" r="9.858" fill="#696969"/>
        <g style="isolation: isolate">
          <path d="M62.624,14.551V8.472H60.439v-1.3A2.319,2.319,0,0,0,62.876,5.46h1.667v9.091Z" fill="#fff"/>
          <path d="M67.818,9.172,70.2,7.127H66.221V5.46H72.65V7.015L70.3,8.976a2.709,2.709,0,0,1,2.634,2.773c0,1.57-1.289,3.012-3.488,3.012a3.265,3.265,0,0,1-3.516-2.9L67.79,11.5a1.6,1.6,0,0,0,1.653,1.6,1.4,1.4,0,0,0,1.541-1.372A1.328,1.328,0,0,0,69.5,10.377a2.264,2.264,0,0,0-.827.14Z" fill="#fff"/>
        </g>
      </g>
    </g>
  </g>
</svg>
