<svg xmlns="http://www.w3.org/2000/svg" width="110.219mm" height="13.463mm" viewBox="0 0 312.433 38.164">
  <g>
    <g style="isolation: isolate">
      <path d="M140.583,32.4V27.073h1.476v1.559h2.362V27.073h1.488V32.4Zm7.064,5.434V34.761h-5.636V33.549h7.124v4.283Zm-3.226-8.012h-2.362V31.2h2.362Zm4.714.575V33h-1.5V26.5h1.5v2.675H150.8V30.4Z" fill="#696969"/>
      <path d="M157.285,34.749a6.75,6.75,0,0,1-2.507-3,6.068,6.068,0,0,1-2.6,3.2l-.911-1.092a5.675,5.675,0,0,0,2.722-4.989V27.241h1.535V28.8a5.532,5.532,0,0,0,2.651,4.845Zm2.026,2.566V31.2h-2.194V29.916h2.194V26.5H160.8V37.315Z" fill="#696969"/>
      <path d="M170.339,33.07V31.583h-2.674a3.048,3.048,0,0,1-2.231.876,2.7,2.7,0,0,1-2.926-2.652,2.759,2.759,0,0,1,2.926-2.7,3.022,3.022,0,0,1,2.075.768h2.83V26.5h1.488V33.07Zm-4.905-1.8a1.44,1.44,0,0,0,1.487-1.475,1.481,1.481,0,1,0-1.487,1.475Zm2.807,6.609c-2.183,0-3.551-.936-3.551-2.375s1.368-2.412,3.551-2.412,3.549.96,3.549,2.412S170.423,37.88,168.241,37.88Zm0-3.575c-1.248,0-2.052.468-2.052,1.2,0,.708.8,1.163,2.052,1.163,1.271,0,2.038-.455,2.038-1.163C170.279,34.773,169.512,34.305,168.241,34.305Zm.059-3.969h2.039v-1.2h-2.074a3.184,3.184,0,0,1,.084.671A3.61,3.61,0,0,1,168.3,30.336Z" fill="#696969"/>
    </g>
    <g>
      <g style="isolation: isolate">
        <path d="M181.628,13.13h-5.4l-1.188,3.205h-2.287l4.969-12.766h2.5l4.969,12.766h-2.358Zm-4.645-2h3.889L178.928,5.91Z" fill="#696969"/>
        <path d="M187.764,13.454a1.643,1.643,0,0,0,1.783,1.494c.864,0,1.314-.468,1.314-1.008,0-.468-.324-.828-1.026-.972l-1.3-.288a2.649,2.649,0,0,1-2.359-2.557A3.041,3.041,0,0,1,189.4,7.3a3.094,3.094,0,0,1,3.385,2.449l-1.765.5a1.507,1.507,0,0,0-1.62-1.315,1.141,1.141,0,0,0-1.26,1.009.962.962,0,0,0,.882.918l1.332.271c1.657.359,2.521,1.368,2.521,2.664,0,1.333-1.081,2.809-3.313,2.809-2.539,0-3.511-1.657-3.619-2.647Z" fill="#696969"/>
        <path d="M195.973,3.119a1.367,1.367,0,0,1,1.368,1.368,1.36,1.36,0,1,1-1.368-1.368Zm-1.027,13.216V7.566h2.071v8.769Z" fill="#696969"/>
        <path d="M201.822,11.311l2.251-.341c.5-.073.648-.325.648-.631,0-.739-.5-1.332-1.656-1.332a1.689,1.689,0,0,0-1.8,1.584l-1.908-.432A3.434,3.434,0,0,1,203.047,7.3c2.7,0,3.727,1.531,3.727,3.277v4.358a7.95,7.95,0,0,0,.108,1.4h-1.945a4.874,4.874,0,0,1-.09-1.116,3.059,3.059,0,0,1-2.7,1.386,2.75,2.75,0,0,1-2.972-2.647C199.175,12.392,200.328,11.527,201.822,11.311Zm2.9,1.387v-.4l-2.286.341c-.649.109-1.171.469-1.171,1.189a1.159,1.159,0,0,0,1.279,1.135A2,2,0,0,0,204.721,12.7Z" fill="#696969"/>
        <path d="M211.38,16.335h-2.088V7.566h2.034v1.17a2.912,2.912,0,0,1,2.593-1.422c2.143,0,3.169,1.548,3.169,3.475v5.546H215V11.149c0-1.08-.487-1.944-1.8-1.944a1.841,1.841,0,0,0-1.819,2.07Z" fill="#696969"/>
        <path d="M233.846,16.335l-.162-1.62a4.413,4.413,0,0,1-3.907,1.89c-3.331,0-6.284-2.449-6.284-6.662A6.358,6.358,0,0,1,229.921,3.3a5.751,5.751,0,0,1,5.762,3.889l-2.035.775A3.7,3.7,0,0,0,229.921,5.3c-2.07,0-4.231,1.476-4.231,4.645,0,3.115,2.016,4.681,4.213,4.681a3.366,3.366,0,0,0,3.655-2.862h-4.213V9.871h6.248v6.464Z" fill="#696969"/>
        <path d="M239.046,3.119a1.367,1.367,0,0,1,1.368,1.368,1.36,1.36,0,1,1-1.368-1.368ZM238.02,16.335V7.566h2.07v8.769Z" fill="#696969"/>
        <path d="M247.921,9.637a4.429,4.429,0,0,0-.684-.054c-1.621,0-2.359.936-2.359,2.575v4.177H242.79V7.566h2.034V8.971a2.654,2.654,0,0,1,2.539-1.513,2.882,2.882,0,0,1,.558.055Z" fill="#696969"/>
        <path d="M249.665,16.335V3.3h2.088V16.335Z" fill="#696969"/>
      </g>
      <g>
        <g>
          <path d="M98.523,18.719a.082.082,0,0,1-.082.082h0A8.939,8.939,0,0,1,98.172.925c.089,0,.179,0,.268,0a.082.082,0,0,1,.083.08V3a.082.082,0,0,1-.08.081,7.033,7.033,0,0,0-6.707,6.785,7.033,7.033,0,0,0,6.706,6.786.08.08,0,0,1,.08.081Z" fill="#696969"/>
          <path d="M154.241,18.719a.082.082,0,0,0,.082.082h0a8.939,8.939,0,0,0,0-17.878.077.077,0,0,0-.059.024.078.078,0,0,0-.024.058V3a.081.081,0,0,0,.081.081,7.035,7.035,0,0,1,6.706,6.786,7.035,7.035,0,0,1-6.706,6.785.081.081,0,0,0-.081.081v1.99Z" fill="#696969"/>
        </g>
        <g style="isolation: isolate">
          <path d="M105.44,10.142V3.036h1.968V5.117h3.154V3.036h1.984v7.106Zm9.427,7.251V13.3h-7.523V11.679h9.508v5.714ZM110.562,6.7h-3.154v1.84h3.154Zm6.29.768v3.474h-2V2.267h2V5.836h2.225V7.469Z" fill="#696969"/>
          <path d="M127.714,13.28a9.016,9.016,0,0,1-3.345-4,8.1,8.1,0,0,1-3.473,4.274L119.679,12.1a7.576,7.576,0,0,0,3.634-6.659V3.259h2.048V5.34a7.385,7.385,0,0,0,3.538,6.467ZM130.42,16.7V8.541h-2.93V6.829h2.93V2.267H132.4V16.7Z" fill="#696969"/>
          <path d="M145.124,11.038V9.054h-3.57a4.064,4.064,0,0,1-2.977,1.168,3.605,3.605,0,0,1-3.906-3.537,3.684,3.684,0,0,1,3.906-3.6,4.031,4.031,0,0,1,2.769,1.025h3.778V2.267h1.984v8.771Zm-6.547-2.4a1.923,1.923,0,0,0,1.985-1.969,1.978,1.978,0,0,0-3.954,0A1.882,1.882,0,0,0,138.577,8.638Zm3.745,8.819c-2.913,0-4.737-1.249-4.737-3.169,0-1.937,1.824-3.217,4.737-3.217s4.738,1.28,4.738,3.217C147.06,16.208,145.235,17.457,142.322,17.457Zm0-4.77c-1.664,0-2.737.625-2.737,1.6,0,.945,1.073,1.552,2.737,1.552,1.7,0,2.722-.607,2.722-1.552C145.044,13.312,144.019,12.687,142.322,12.687Zm.08-5.3h2.722v-1.6h-2.77a4.179,4.179,0,0,1,.112.9A5,5,0,0,1,142.4,7.389Z" fill="#696969"/>
        </g>
      </g>
      <g>
        <circle cx="70.515" cy="9.862" r="9.858" fill="#696969"/>
        <g style="isolation: isolate">
          <path d="M67.2,14.555V8.476H65.011v-1.3a2.32,2.32,0,0,0,2.437-1.709h1.667v9.09Z" fill="#fff"/>
          <path d="M72.74,14.555V8.476H70.555v-1.3a2.32,2.32,0,0,0,2.437-1.709h1.667v9.09Z" fill="#fff"/>
        </g>
      </g>
    </g>
  </g>
</svg>
