<svg xmlns="http://www.w3.org/2000/svg" width="110.219mm" height="13.463mm" viewBox="0 0 312.433 38.164">
  <g>
    <g style="isolation: isolate">
      <path d="M144.433,28.386a3.346,3.346,0,0,0,2.519,3.035l-.756,1.187a4.7,4.7,0,0,1-2.53-2.219,4.554,4.554,0,0,1-2.638,2.519l-.84-1.163a3.714,3.714,0,0,0,2.686-3.359h-2.23V27.151h5.9v1.235Zm1.332,9.44c-2.207,0-3.586-.936-3.586-2.387s1.379-2.4,3.586-2.4c2.23,0,3.6.949,3.6,2.4S148,37.826,145.765,37.826Zm0-3.575c-1.283,0-2.087.456-2.087,1.188s.8,1.175,2.087,1.175c1.319,0,2.111-.455,2.111-1.175S147.084,34.251,145.765,34.251Zm3.526-3.946v2.663H147.8V26.444h1.488v2.638h1.691v1.223Z" fill="#696969"/>
      <path d="M157.441,34.7a6.75,6.75,0,0,1-2.507-3,6.068,6.068,0,0,1-2.6,3.2l-.911-1.092a5.674,5.674,0,0,0,2.722-4.989V27.187h1.535v1.559a5.532,5.532,0,0,0,2.651,4.845Zm2.026,2.566V31.145h-2.194V29.862h2.194V26.444h1.487V37.261Z" fill="#696969"/>
      <path d="M166.885,28.483v.023a3.5,3.5,0,0,0,2.567,3.359l-.768,1.174a4.765,4.765,0,0,1-2.53-2.266,4.611,4.611,0,0,1-2.639,2.531l-.827-1.176a3.743,3.743,0,0,0,2.674-3.574v-.071h-2.254v-1.2h5.936v1.2Zm-2.1,8.982V33.736h1.488v2.53h5.948v1.2Zm5.709-2.926v-8.1h1.488v8.1Z" fill="#696969"/>
    </g>
    <g>
      <g style="isolation: isolate">
        <path d="M162.7,7.217V5.6h7.235V7.217Zm3.73,6.627a3.067,3.067,0,0,1-3.266-3.041,3.257,3.257,0,1,1,3.266,3.041Zm-2-9.076v-1.6h3.905v1.6Zm2,4.562a1.4,1.4,0,0,0-1.457,1.473,1.4,1.4,0,0,0,1.457,1.472,1.413,1.413,0,0,0,1.44-1.472A1.4,1.4,0,0,0,166.43,9.33Zm7.283,7.41V9.474H172.5V16.1h-1.905V2.543H172.5V7.858h1.217V2.3h1.9V16.74Z" fill="#696969"/>
        <path d="M183.263,17.221V12.307h-5.779V10.691h13.574v1.616h-5.811v4.914Zm.992-7.507c-2.849,0-4.994-1.28-4.994-3.489,0-2.114,2.1-3.49,4.994-3.49,2.961,0,5.01,1.376,5.01,3.49C189.265,8.434,187.12,9.714,184.255,9.714Zm0-5.314c-1.793,0-2.945.784-2.945,1.825,0,1.056,1.136,1.841,2.945,1.841,1.777,0,2.945-.785,2.945-1.841C187.2,5.184,186.032,4.4,184.255,4.4Z" fill="#696969"/>
        <path d="M192.2,15.06V13.476h5.762V10.082h2v3.394h5.811V15.06Zm7.875-12.133V3.84c0,2.656,2.769,4.466,5.106,4.977l-.928,1.585A8.189,8.189,0,0,1,198.991,6.5c-.816,1.938-3.138,3.394-5.25,3.922l-.913-1.633c2.449-.479,5.09-2.272,5.09-4.945V2.927Z" fill="#696969"/>
        <path d="M210.589,17.221a9.739,9.739,0,0,1-3.153-7.074V9.826a9.7,9.7,0,0,1,3.153-7.059h1.681a10.527,10.527,0,0,0-2.817,6.915v.48a11.05,11.05,0,0,0,2.817,7.059Z" fill="#696969"/>
        <path d="M219.951,7.105a2.845,2.845,0,0,0,1.584-2.417h-1.408V3.167h6.514a24.044,24.044,0,0,1-.192,3.489,1.567,1.567,0,0,1-1.776,1.537,8.73,8.73,0,0,1-1.217-.08l-.4-1.728a5.591,5.591,0,0,0,1.1.111c.448,0,.528-.079.608-.447a5.91,5.91,0,0,0,.129-1.361H223.28a4.68,4.68,0,0,1-2.017,3.586l1.3.288c-.079.368-.175.7-.272,1.056h.641V8.386h1.7V9.618H226.5v1.553h-1.873v1.5h2.306v1.553h-2.306V17.3h-1.7V14.228h-2.817V12.675h2.817v-1.5h-1.169a7.6,7.6,0,0,1-.7,1.393l-1.1-.753v3.7c0,1.265-.5,1.681-1.937,1.681a7.149,7.149,0,0,1-1.217-.112l-.32-1.649a6.9,6.9,0,0,0,1.409.16c.336,0,.5-.08.5-.48V13.459h-2.913a9.559,9.559,0,0,1-1.121,3.906l-1.328-1.249a8.868,8.868,0,0,0,.448-.992,5.779,5.779,0,0,0,.3-1.137,21.011,21.011,0,0,0,.3-4.321V8.018L212.94,6.881A9.117,9.117,0,0,0,215.005,2.5l1.7.3c-.08.288-.144.545-.224.8h1.761l1.12.784c-.368.8-.576,1.408-.864,2.016h1.457Zm-3.97-2.017a8.158,8.158,0,0,1-.624,1.312h1.36a10.655,10.655,0,0,0,.625-1.312Zm-.384,5.555c0,.5-.016.96-.032,1.376h.736V10.643Zm.016-1.393h.688V7.905h-.688Zm2.048-1.345V9.25h.721V7.905Zm0,4.114h.721V10.643h-.721Zm2.29-.993a9.518,9.518,0,0,0,.944-2.64l-.944-.945Z" fill="#696969"/>
        <path d="M240.753,17.285a31.332,31.332,0,0,1-5.954-.976,36.163,36.163,0,0,1-6.435,1.089l-.624-1.3a35.1,35.1,0,0,0,4.962-.544,13.329,13.329,0,0,1-1.777-.913,16.92,16.92,0,0,1-1.872.72L228.22,14.1a9.252,9.252,0,0,0,3.89-1.745.759.759,0,0,1-.192-.592V10.178h-2.049v1.329h-1.681V9.153h1.825V4.928h2.945c.08-.208.144-.432.208-.624h-4.61V3.087h12.165V4.3h-5.65a4.078,4.078,0,0,1-.208.624h4.37V9.153h1.856v2.354h-1.68V10.178h-4c.192.224.352.448.544.688l-1.312.433a4.7,4.7,0,0,0-.816-1.121h-.352v1.056c0,.241.144.321.527.336a2.575,2.575,0,0,0,.369.017h.224l.368-.048c.96-.032,1.073-.144,1.168-.352a1.548,1.548,0,0,0,.129-.464l.864.191-.048-.063,1.28-.561a9.495,9.495,0,0,1,1.393,1.953l-1.3.689a13.385,13.385,0,0,0-.865-1.442,2.446,2.446,0,0,1-.272.625c-.24.432-.673.608-2.641.608h-.865a4.769,4.769,0,0,1-.528.448h5.25l.961.688a10.229,10.229,0,0,1-2.561,1.666c1.424.223,2.977.351,4.642.448Zm-8.9-6.291a7.418,7.418,0,0,1-1.281,2.017l-1.312-.64a4.87,4.87,0,0,0,1.216-1.825Zm-.16-4.609h5.858V5.84h-5.858Zm0,1.376h5.858V7.233h-5.858Zm0,1.392h5.858V8.625h-5.858Zm.784,5.042a10.286,10.286,0,0,0,2.241.849A11.365,11.365,0,0,0,236.9,14.2Z" fill="#696969"/>
        <path d="M249.23,4.064a18.712,18.712,0,0,1-3.969.992V6.337h3.761V11.6h-3.777a11.411,11.411,0,0,1-1.281,5.762l-1.44-1.056c.992-1.777,1.04-3.266,1.04-5.746v-6.9a12.683,12.683,0,0,0,4.69-1.008Zm-3.969,3.857v2.145h2.113V7.921Zm10.612-3.857a20.866,20.866,0,0,1-4.482,1.12V7.81h4.818V9.394h-1.52v7.923h-1.713V9.394h-1.585c-.032,3.569-.5,5.955-2.048,8.019l-1.409-1.137c1.5-1.936,1.745-3.553,1.745-7.491V3.728a14.646,14.646,0,0,0,5.1-1.1Z" fill="#696969"/>
        <path d="M256.987,17.221a10.56,10.56,0,0,0,2.818-6.915v-.5a11.079,11.079,0,0,0-2.818-7.043h1.681a9.786,9.786,0,0,1,3.137,7.059v.321a9.763,9.763,0,0,1-3.137,7.074Z" fill="#696969"/>
      </g>
      <g>
        <g>
          <path d="M88.352,18.714a.082.082,0,0,1-.082.082h0A8.939,8.939,0,0,1,88,.92c.089,0,.178,0,.268,0a.083.083,0,0,1,.083.08V2.991a.082.082,0,0,1-.08.081,7.032,7.032,0,0,0-6.707,6.785,7.033,7.033,0,0,0,6.706,6.786.082.082,0,0,1,.08.081Z" fill="#696969"/>
          <path d="M144.069,18.715a.082.082,0,0,0,.082.082h0a8.939,8.939,0,0,0,0-17.878.082.082,0,0,0-.083.082V2.992a.081.081,0,0,0,.081.081,7.033,7.033,0,0,1,6.706,6.786,7.033,7.033,0,0,1-6.706,6.785.081.081,0,0,0-.081.081v1.99Z" fill="#696969"/>
        </g>
        <g style="isolation: isolate">
          <path d="M100.59,4.856A4.46,4.46,0,0,0,103.952,8.9l-1.009,1.585a6.263,6.263,0,0,1-3.377-2.961,6.082,6.082,0,0,1-3.522,3.362l-1.12-1.553A4.957,4.957,0,0,0,98.51,4.856H95.532V3.207h7.876V4.856Zm1.777,12.6c-2.945,0-4.786-1.249-4.786-3.185s1.841-3.2,4.786-3.2c2.977,0,4.8,1.265,4.8,3.2S105.344,17.453,102.367,17.453Zm0-4.77c-1.713,0-2.785.608-2.785,1.585,0,.961,1.072,1.568,2.785,1.568,1.761,0,2.817-.607,2.817-1.568C105.184,13.291,104.128,12.683,102.367,12.683Zm4.706-5.266v3.554h-1.985V2.263h1.985V5.784h2.257V7.417Z" fill="#696969"/>
          <path d="M120.624,12.987V9.466h-3.393a3.941,3.941,0,0,1-3.09,1.3,3.708,3.708,0,0,1-3.985-3.746,3.72,3.72,0,0,1,3.985-3.762,4.078,4.078,0,0,1,2.753.961h3.73V2.263h1.985V12.987Zm-6.483-3.9A1.96,1.96,0,0,0,116.126,7a1.951,1.951,0,0,0-1.985-2.049A1.929,1.929,0,0,0,112.173,7,1.939,1.939,0,0,0,114.141,9.082Zm-1.168,7.923V12.026h2v3.362h7.907v1.617Zm5.058-9.22h2.593V5.9h-2.673a3.714,3.714,0,0,1,.16,1.12A3.9,3.9,0,0,1,118.031,7.785Z" fill="#696969"/>
          <path d="M134.64,13.98c-1.185.16-3.169.3-4.994.383-1.472.065-3.249.129-4.658.129l-.24-1.7c1.248.017,3.185-.016,4.658-.063,1.985-.065,4-.208,5.106-.337Zm-9.508-7.539V4.9h8.9V6.441Zm4.514,5.394c-2.161,0-3.586-1.009-3.586-2.5,0-1.473,1.553-2.5,3.586-2.5,2.1,0,3.6,1.024,3.6,2.513C133.247,10.826,131.871,11.835,129.646,11.835ZM127.485,4.3V2.743h4.258V4.3Zm.465,5.042c0,.576.671,1.072,1.7,1.072,1.04,0,1.7-.5,1.7-1.072,0-.593-.657-1.072-1.7-1.072C128.621,8.266,127.95,8.745,127.95,9.338Zm7.33-7.075h2V16.845h-2Z" fill="#696969"/>
        </g>
      </g>
      <g>
        <circle cx="60.463" cy="9.858" r="9.858" fill="#696969"/>
        <g style="isolation: isolate">
          <path d="M57.031,12.1a2.394,2.394,0,0,1,1.611-2.213,2.207,2.207,0,0,1-1.429-2.031c0-1.528,1.358-2.606,3.249-2.606s3.25,1.078,3.25,2.606A2.207,2.207,0,0,1,62.3,9.887a2.388,2.388,0,0,1,1.6,2.213c0,1.568-1.358,2.661-3.432,2.661S57.031,13.668,57.031,12.1ZM62,11.9a1.557,1.557,0,0,0-3.067,0,1.353,1.353,0,0,0,1.526,1.26C61.471,13.164,62,12.548,62,11.9ZM61.807,8a1.347,1.347,0,1,0-1.345,1.191A1.224,1.224,0,0,0,61.807,8Z" fill="#fff"/>
        </g>
      </g>
    </g>
  </g>
</svg>
