<svg xmlns="http://www.w3.org/2000/svg" width="110.219mm" height="13.463mm" viewBox="0 0 312.433 38.164">
  <g>
    <g style="isolation: isolate">
      <path d="M140.944,27.121c-.071,3.179-2.182,5.074-5.073,5.818l-.731-1.176c2.051-.443,3.825-1.667,4.15-3.43H135.7V27.121ZM137.3,37.736v-4.4h7.137v4.4Zm5.649-3.2H138.8V36.56h4.15Zm0-8.024h1.5v6.273h-1.5Z" fill="#696969"/>
      <path d="M152.608,33.982a28.2,28.2,0,0,1-6.152.515V27.433h1.475v5.793a22.077,22.077,0,0,0,4.533-.42Zm2.243-2.339v5.685h-1.487V26.51h1.487V30.4h1.679v1.247Z" fill="#696969"/>
      <path d="M157.1,33.37V32.159h10.17V33.37Zm2.9.8v2.232h5.973v1.2H158.5V34.173Zm2.195-2.662c-2.147,0-3.646-.911-3.646-2.375,0-1.415,1.463-2.374,3.634-2.374,2.207,0,3.658.971,3.658,2.374C165.843,30.587,164.32,31.511,162.2,31.511Zm-.012-3.574c-1.3,0-2.135.5-2.135,1.212s.84,1.175,2.135,1.175,2.147-.468,2.147-1.175S163.48,27.937,162.185,27.937Z" fill="#696969"/>
    </g>
    <g>
      <g style="isolation: isolate">
        <path d="M202.137,12.442a37.529,37.529,0,0,1-8.211.689V3.7H195.9v7.732a29.657,29.657,0,0,0,6.05-.561Zm2.994-3.121v7.587h-1.985V2.471h1.985V7.657h2.24V9.321Z" fill="#696969"/>
        <path d="M217.322,5.656a9.359,9.359,0,0,0,4.5,2.53l-.8,1.551A12,12,0,0,1,217.9,8.2V9.434h-6.291V8.457a15.818,15.818,0,0,1-2.753,1.409l-.88-1.5a9.34,9.34,0,0,0,4.354-2.705h-3.49V4.119h4.434a8.5,8.5,0,0,0,.512-1.408l1.777.208a11.655,11.655,0,0,1-.384,1.2h5.794V5.656Zm-4.642,7.78a11.2,11.2,0,0,1-3.281,3.5l-1.265-1.281a9.061,9.061,0,0,0,3.057-2.977Zm3.1-1.185v3.106c0,1.36-.528,1.888-2.017,1.888a7.642,7.642,0,0,1-1.44-.1l-.433-1.681a11.691,11.691,0,0,0,1.441.16c.48,0,.624-.16.624-.479v-2.9h-4.978V10.634h11.829v1.617Zm1.745-4.322a8.994,8.994,0,0,1-2.209-2.273h-.9a8.4,8.4,0,0,1-2.1,2.273Zm2.849,8.788a14.215,14.215,0,0,1-3.426-3.218l1.441-.848a12.089,12.089,0,0,0,3.265,2.657Z" fill="#696969"/>
      </g>
      <g>
        <g>
          <path d="M120.063,18.714a.082.082,0,0,1-.082.082h0A8.939,8.939,0,0,1,119.712.92c.089,0,.179,0,.268,0a.082.082,0,0,1,.083.08V2.991a.082.082,0,0,1-.08.081,7.033,7.033,0,0,0-6.707,6.785,7.033,7.033,0,0,0,6.706,6.786.082.082,0,0,1,.08.081Z" fill="#696969"/>
          <path d="M175.781,18.715a.082.082,0,0,0,.082.082h0a8.939,8.939,0,0,0,0-17.878.082.082,0,0,0-.083.082V2.992a.081.081,0,0,0,.081.081,7.035,7.035,0,0,1,6.706,6.786,7.035,7.035,0,0,1-6.706,6.785.082.082,0,0,0-.082.081v1.99Z" fill="#696969"/>
        </g>
        <g style="isolation: isolate">
          <path d="M142.078,12.442a37.529,37.529,0,0,1-8.211.689V3.7h1.969v7.73a29.526,29.526,0,0,0,6.05-.56Zm2.993-3.121v7.588h-1.984V2.471h1.984V7.657h2.241V9.321Z" fill="#696969"/>
          <path d="M157.262,5.657a9.382,9.382,0,0,0,4.5,2.529l-.8,1.551A12.018,12.018,0,0,1,157.839,8.2V9.434h-6.291V8.458a15.747,15.747,0,0,1-2.753,1.408l-.88-1.5a9.355,9.355,0,0,0,4.353-2.7h-3.489V4.12h4.434a8.69,8.69,0,0,0,.512-1.408l1.777.207a12.007,12.007,0,0,1-.384,1.2h5.794V5.657Zm-4.641,7.779a11.2,11.2,0,0,1-3.281,3.5l-1.265-1.279a9.067,9.067,0,0,0,3.057-2.979Zm3.1-1.185v3.105c0,1.361-.527,1.889-2.016,1.889a7.653,7.653,0,0,1-1.441-.1l-.432-1.682a11.677,11.677,0,0,0,1.441.161c.48,0,.624-.161.624-.479v-2.9h-4.978V10.633h11.829v1.618Zm1.745-4.323a9,9,0,0,1-2.208-2.271h-.9a8.362,8.362,0,0,1-2.1,2.271Zm2.85,8.789a14.2,14.2,0,0,1-3.426-3.218l1.441-.848a12.071,12.071,0,0,0,3.265,2.656Z" fill="#696969"/>
        </g>
      </g>
      <g>
        <circle cx="91.689" cy="9.858" r="9.858" fill="#696969"/>
        <g style="isolation: isolate">
          <path d="M95.141,7.071a10.869,10.869,0,0,0-3.641,7.48h-2a11.215,11.215,0,0,1,3.418-7.424H88.236V5.46h6.905Z" fill="#fff"/>
        </g>
      </g>
    </g>
  </g>
</svg>
