<svg xmlns="http://www.w3.org/2000/svg" width="34.024mm" height="5.881mm" viewBox="0 0 96.446 16.67">
  <g>
    <g style="isolation: isolate">
      <path d="M26.731,12.082H21.545L20.483,15H17.855l4.9-12.766h2.881L30.494,15h-2.7ZM22.374,9.814H25.9L24.138,4.988Z" fill="#fff"/>
      <path d="M36.72,2.233c2.485,0,3.889,1.459,3.889,3.439a2.837,2.837,0,0,1-1.855,2.737,3.016,3.016,0,0,1,2.251,3.025c0,2.07-1.548,3.565-3.943,3.565H32.129V2.233Zm-.378,5.276a1.6,1.6,0,0,0,1.818-1.6c0-.972-.63-1.584-1.836-1.584H34.577V7.509Zm.252,5.419c1.206,0,1.927-.63,1.927-1.656a1.663,1.663,0,0,0-1.891-1.71H34.577v3.366Z" fill="#fff"/>
      <path d="M48.906,1.963a6.437,6.437,0,0,1,6.572,6.662,6.563,6.563,0,1,1-13.126,0A6.433,6.433,0,0,1,48.906,1.963Zm0,10.893a3.94,3.94,0,0,0,4-4.249,4,4,0,1,0-7.976,0A3.936,3.936,0,0,0,48.906,12.856Z" fill="#fff"/>
      <path d="M57.508,10.48V2.233h2.485V10.3a2.426,2.426,0,1,0,4.844,0V2.233h2.484V10.48a4.57,4.57,0,0,1-4.915,4.807A4.566,4.566,0,0,1,57.508,10.48Z" fill="#fff"/>
      <path d="M75.527,4.592V15h-2.5V4.592H68.991V2.233h10.57V4.592Z" fill="#fff"/>
    </g>
    <path d="M8.542,16.593a.076.076,0,0,1-.077.077A8.335,8.335,0,1,1,8.205,0h.258a.076.076,0,0,1,.079.075h0V1.933a.075.075,0,0,1-.075.075A6.558,6.558,0,0,0,2.213,8.335a6.559,6.559,0,0,0,6.253,6.327.075.075,0,0,1,.075.075Z" fill="#fff"/>
    <path d="M88.111,16.593a.077.077,0,0,0,.077.077,8.335,8.335,0,0,0,0-16.67.082.082,0,0,0-.055.022.08.08,0,0,0-.022.055V1.933a.076.076,0,0,0,.073.077h0a6.558,6.558,0,0,1,6.253,6.325,6.558,6.558,0,0,1-6.253,6.327.076.076,0,0,0-.075.075h0Z" fill="#fff"/>
  </g>
</svg>
