<svg xmlns="http://www.w3.org/2000/svg" width="34.024mm" height="5.88mm" viewBox="0 0 96.446 16.669">
  <g>
    <g style="isolation: isolate">
      <path d="M16.917,8.625a6.444,6.444,0,0,1,6.5-6.662,5.62,5.62,0,0,1,5.852,4.231l-2.341.738a3.338,3.338,0,0,0-3.511-2.574,3.932,3.932,0,0,0-3.925,4.267,3.936,3.936,0,0,0,3.961,4.213,3.546,3.546,0,0,0,3.583-2.611l2.323.7a5.807,5.807,0,0,1-5.906,4.339A6.375,6.375,0,0,1,16.917,8.625Z" fill="#fff"/>
      <path d="M35.224,10.083h-1.3V15h-2.5V2.233h4.988a3.83,3.83,0,0,1,4.069,3.925,3.622,3.622,0,0,1-2.719,3.619L40.5,15H37.727Zm.721-2.142a1.786,1.786,0,1,0,0-3.547H33.928V7.941Z" fill="#fff"/>
      <path d="M42.675,15V2.233h8V4.574H45.16V7.491h4.988V9.705H45.16v2.953h5.51V15Z" fill="#fff"/>
      <path d="M53.151,15V2.233h4.573a5.968,5.968,0,0,1,6.3,6.392A5.968,5.968,0,0,1,57.706,15Zm4.465-2.3c2.089,0,3.835-1.3,3.835-4.069s-1.728-4.087-3.817-4.087h-2v8.156Z" fill="#fff"/>
      <path d="M66.183,15V2.233H68.7V15Z" fill="#fff"/>
      <path d="M76.984,4.592V15h-2.5V4.592H70.448V2.233h10.57V4.592Z" fill="#fff"/>
    </g>
    <path d="M8.205,0a8.335,8.335,0,1,0,.26,16.667.076.076,0,0,0,.077-.076V14.736a.075.075,0,0,0-.075-.075A6.558,6.558,0,0,1,2.213,8.335,6.559,6.559,0,0,1,8.467,2.007a.074.074,0,0,0,.075-.075V.077h0A.076.076,0,0,0,8.463,0Q8.334,0,8.205,0Z" fill="#fff"/>
    <path d="M88.187,0a.082.082,0,0,0-.055.022.082.082,0,0,0-.022.056V1.932a.075.075,0,0,0,.073.077h0a6.557,6.557,0,0,1,6.253,6.325,6.557,6.557,0,0,1-6.253,6.326.076.076,0,0,0-.075.075h0v1.856a.077.077,0,0,0,.077.076,8.335,8.335,0,0,0,0-16.67Z" fill="#fff"/>
  </g>
</svg>
