<svg xmlns="http://www.w3.org/2000/svg" width="68.165mm" height="6.257mm" viewBox="0 0 193.223 17.737">
  <g style="isolation: isolate">
    <g style="isolation: isolate">
      <path d="M2.88,10.729v6.648H0V.36H6.312a5.082,5.082,0,0,1,5.424,5.184,5.069,5.069,0,0,1-5.424,5.185Zm3-2.544c1.823,0,2.928-1.008,2.928-2.617C8.809,3.936,7.7,2.9,5.881,2.9h-3V8.185Z" fill="#fff"/>
      <path d="M14.4,17.377V.36H24.912V3.048H17.279V7.561h6.913v2.616H17.279v4.512h7.633v2.688Z" fill="#fff"/>
      <path d="M33.384,10.657H31.271v6.72h-2.9V.36H34.9a5.024,5.024,0,0,1,5.329,5.161,4.8,4.8,0,0,1-3.841,4.848l3.841,7.008H36.96Zm.983-2.544c1.778,0,2.929-1.032,2.929-2.592A2.613,2.613,0,0,0,34.367,2.9h-3.1V8.113Z" fill="#fff"/>
      <path d="M51.888,5.16a3.14,3.14,0,0,0-3.336-2.616,2.688,2.688,0,0,0-2.929,2.448,2.205,2.205,0,0,0,1.992,2.185l2.448.5c3,.6,4.609,2.5,4.609,4.9,0,2.64-2.137,5.16-6.025,5.16-4.32,0-6.312-2.784-6.577-5.232l2.69-.768a3.657,3.657,0,0,0,3.887,3.408c2.041,0,3.1-1.032,3.1-2.352,0-1.1-.816-1.992-2.281-2.3l-2.4-.5c-2.592-.528-4.32-2.233-4.32-4.777C42.743,2.352,45.359,0,48.527,0,52.535,0,54.1,2.448,54.48,4.344Z" fill="#fff"/>
      <path d="M65.208,0a8.538,8.538,0,0,1,8.665,8.857,8.656,8.656,0,1,1-17.306,0A8.519,8.519,0,0,1,65.208,0Zm0,15c2.88,0,5.712-2.04,5.712-6.144s-2.832-6.145-5.712-6.145c-2.856,0-5.688,2.04-5.688,6.145S62.352,15,65.208,15Z" fill="#fff"/>
      <path d="M88.2,17.377,79.8,4.488V17.377h-2.88V.36h3.673L88.32,12.433V.36H91.2V17.377Z" fill="#fff"/>
      <path d="M105.312,13.105h-7.2l-1.584,4.272H93.479L100.1.36h3.335l6.625,17.017H106.92Zm-6.193-2.664H104.3L101.711,3.48Z" fill="#fff"/>
      <path d="M112.343,17.377V.36h2.88V14.641h7.8v2.736Z" fill="#fff"/>
      <path d="M138.287,3.072V17.377h-2.881V3.072h-5.519V.36h13.945V3.072Z" fill="#fff"/>
      <path d="M153.264,0a8.537,8.537,0,0,1,8.664,8.857,8.655,8.655,0,1,1-17.305,0A8.518,8.518,0,0,1,153.264,0Zm0,15c2.88,0,5.712-2.04,5.712-6.144s-2.832-6.145-5.712-6.145c-2.858,0-5.69,2.04-5.69,6.145S150.406,15,153.264,15Z" fill="#fff"/>
      <path d="M164.782,11.449V.36h2.857V11.281c0,2.4,1.32,3.72,3.48,3.72,2.184,0,3.481-1.32,3.481-3.72V.36h2.879V11.449c0,4.1-2.784,6.288-6.36,6.288C167.566,17.737,164.782,15.553,164.782,11.449Z" fill="#fff"/>
      <path d="M186.383,10.657h-2.112v6.72h-2.9V.36H187.9a5.022,5.022,0,0,1,5.328,5.161,4.8,4.8,0,0,1-3.84,4.848l3.84,7.008h-3.264Zm.984-2.544c1.776,0,2.928-1.032,2.928-2.592A2.613,2.613,0,0,0,187.367,2.9h-3.1V8.113Z" fill="#fff"/>
    </g>
  </g>
</svg>
