<svg xmlns="http://www.w3.org/2000/svg" width="58.211mm" height="4.129mm" viewBox="0 0 165.008 11.705">
  <g style="isolation: isolate">
    <g style="isolation: isolate">
      <path d="M2.41,0l.816.743a7.265,7.265,0,0,0-2.051,5.11,7.272,7.272,0,0,0,2.051,5.121l-.816.731A7.892,7.892,0,0,1,0,5.853,7.892,7.892,0,0,1,2.41,0Z" fill="#fff"/>
      <path d="M8.83,11.573l-2.7-3.142H8.219V.2H9.43V8.431h2.087Z" fill="#fff"/>
      <path d="M17.218,6.368V9.69H15.779v-8.5h3.155a2.54,2.54,0,0,1,2.71,2.591,2.533,2.533,0,0,1-2.71,2.59Zm1.5-1.271A1.288,1.288,0,0,0,20.181,3.79a1.3,1.3,0,0,0-1.463-1.332h-1.5V5.1Z" fill="#fff"/>
      <path d="M22.979,9.69v-8.5h1.439V8.323h3.9V9.69Z" fill="#fff"/>
      <path d="M29.639,9.69v-8.5h5.253V2.53H31.078V4.785h3.454V6.092H31.078V8.347h3.814V9.69Z" fill="#fff"/>
      <path d="M41.636,7.556h-3.6L37.246,9.69H35.724l3.309-8.5H40.7l3.311,8.5H42.439ZM38.542,6.224h2.59L39.837,2.746Z" fill="#fff"/>
      <path d="M49.364,3.586A1.569,1.569,0,0,0,47.7,2.278,1.344,1.344,0,0,0,46.234,3.5a1.1,1.1,0,0,0,.995,1.091l1.224.252a2.512,2.512,0,0,1,2.3,2.447A2.715,2.715,0,0,1,47.745,9.87a3.024,3.024,0,0,1-3.286-2.614L45.8,6.872a1.827,1.827,0,0,0,1.942,1.7c1.02,0,1.548-.515,1.548-1.175,0-.552-.408-1-1.14-1.151L46.954,6A2.416,2.416,0,0,1,44.8,3.61a2.774,2.774,0,0,1,2.891-2.6A2.747,2.747,0,0,1,50.66,3.178Z" fill="#fff"/>
      <path d="M52.259,9.69v-8.5h5.253V2.53H53.7V4.785h3.454V6.092H53.7V8.347h3.815V9.69Z" fill="#fff"/>
      <path d="M66.512,3.586a1.57,1.57,0,0,0-1.667-1.308A1.343,1.343,0,0,0,63.382,3.5a1.1,1.1,0,0,0,.995,1.091l1.224.252a2.511,2.511,0,0,1,2.3,2.447,2.714,2.714,0,0,1-3.01,2.578,3.024,3.024,0,0,1-3.287-2.614l1.344-.384a1.828,1.828,0,0,0,1.943,1.7c1.019,0,1.547-.515,1.547-1.175,0-.552-.408-1-1.139-1.151L64.1,6a2.417,2.417,0,0,1-2.16-2.387,2.774,2.774,0,0,1,2.891-2.6,2.748,2.748,0,0,1,2.975,2.171Z" fill="#fff"/>
      <path d="M68.854,5.445a4.261,4.261,0,0,1,4.282-4.438,3.7,3.7,0,0,1,3.826,2.759l-1.356.456a2.358,2.358,0,0,0-2.47-1.86A2.825,2.825,0,0,0,70.33,5.445a2.816,2.816,0,0,0,2.818,3.046A2.538,2.538,0,0,0,75.679,6.62L77,7.052a3.816,3.816,0,0,1-3.85,2.818A4.211,4.211,0,0,1,68.854,5.445Z" fill="#fff"/>
      <path d="M80.973,6.332H79.918V9.69H78.467v-8.5h3.262a2.511,2.511,0,0,1,2.663,2.579,2.4,2.4,0,0,1-1.919,2.422l1.919,3.5H82.76Zm.492-1.271a1.31,1.31,0,1,0,0-2.6H79.918v2.6Z" fill="#fff"/>
      <path d="M89.672,1.007A4.266,4.266,0,0,1,94,5.433a4.325,4.325,0,1,1-8.648,0A4.257,4.257,0,0,1,89.672,1.007Zm0,7.5a2.836,2.836,0,0,0,2.854-3.07,2.856,2.856,0,1,0-5.7,0A2.834,2.834,0,0,0,89.672,8.5Z" fill="#fff"/>
      <path d="M95.53,9.69v-8.5h1.44V8.323h3.9V9.69Z" fill="#fff"/>
      <path d="M102.19,9.69v-8.5h1.439V8.323h3.9V9.69Z" fill="#fff"/>
      <path d="M111.826,9.69v-8.5h3.01a3.969,3.969,0,0,1,4.138,4.27,3.961,3.961,0,0,1-4.15,4.233Zm2.95-1.319a2.618,2.618,0,0,0,2.7-2.914,2.628,2.628,0,0,0-2.687-2.951h-1.523V8.371Z" fill="#fff"/>
      <path d="M124.292,1.007a4.266,4.266,0,0,1,4.329,4.426,4.324,4.324,0,1,1-8.646,0A4.257,4.257,0,0,1,124.292,1.007Zm0,7.5a2.836,2.836,0,0,0,2.854-3.07,2.857,2.857,0,1,0-5.7,0A2.834,2.834,0,0,0,124.292,8.5Z" fill="#fff"/>
      <path d="M139.421,1.187h1.487l-2.387,8.5h-1.487l-2.063-6.428L132.908,9.69h-1.475l-2.411-8.5h1.511l1.7,6.213,1.992-6.213h1.5l2.027,6.261Z" fill="#fff"/>
      <path d="M147.727,9.69l-4.2-6.44V9.69H142.09v-8.5h1.835l3.862,6.033V1.187h1.44v8.5Z" fill="#fff"/>
      <path d="M155.853,11.573l-2.7-3.142h2.087V.2h1.211V8.431h2.087Z" fill="#fff"/>
      <path d="M162.6,11.705l-.816-.731a7.221,7.221,0,0,0,2.051-5.121,7.214,7.214,0,0,0-2.051-5.11L162.6,0a7.848,7.848,0,0,1,2.41,5.853A7.847,7.847,0,0,1,162.6,11.705Z" fill="#fff"/>
    </g>
  </g>
</svg>
