<svg xmlns="http://www.w3.org/2000/svg" width="35.441mm" height="6.003mm" viewBox="0 0 100.464 17.018">
  <g style="isolation: isolate">
    <g style="isolation: isolate">
      <path d="M12.648,0H15.7L9.265,17.018H6.336L0,0H3.12L7.872,13.249Z" fill="#fff"/>
      <path d="M22.992,10.3H20.88v6.721h-2.9V0H24.5a5.023,5.023,0,0,1,5.328,5.161,4.8,4.8,0,0,1-3.84,4.848l3.84,7.009H26.568Zm.984-2.544c1.776,0,2.928-1.032,2.928-2.592a2.613,2.613,0,0,0-2.928-2.617h-3.1V7.753Z" fill="#fff"/>
      <path d="M45.528,2.712V17.018H42.647V2.712h-5.52V0H51.072V2.712Z" fill="#fff"/>
      <path d="M60.5-.36A8.537,8.537,0,0,1,69.169,8.5a8.656,8.656,0,1,1-17.306,0A8.519,8.519,0,0,1,60.5-.36Zm0,15c2.881,0,5.713-2.041,5.713-6.145S63.385,2.353,60.5,2.353c-2.857,0-5.689,2.04-5.689,6.144S57.647,14.642,60.5,14.642Z" fill="#fff"/>
      <path d="M72.023,11.089V0H74.88V10.921c0,2.4,1.319,3.721,3.479,3.721,2.185,0,3.481-1.321,3.481-3.721V0h2.881V11.089c0,4.1-2.784,6.288-6.362,6.288C74.808,17.377,72.023,15.193,72.023,11.089Z" fill="#fff"/>
      <path d="M93.624,10.3H91.512v6.721H88.607V0h6.529a5.023,5.023,0,0,1,5.328,5.161,4.8,4.8,0,0,1-3.84,4.848l3.84,7.009H97.2Zm.983-2.544c1.777,0,2.929-1.032,2.929-2.592a2.613,2.613,0,0,0-2.929-2.617H91.512V7.753Z" fill="#fff"/>
    </g>
  </g>
</svg>
