<svg xmlns="http://www.w3.org/2000/svg" width="110.219mm" height="13.463mm" viewBox="0 0 312.433 38.164">
  <g>
    <g style="isolation: isolate">
      <path d="M146.346,27.117c-.072,3.179-2.182,5.074-5.073,5.818l-.732-1.176c2.051-.443,3.826-1.667,4.15-3.43H141.1V27.117ZM142.7,37.732v-4.4h7.136v4.4Zm5.649-3.2H144.2v2.026h4.15Zm0-8.024h1.5v6.273h-1.5Z" fill="#696969"/>
      <path d="M152,32.634V27.3h5.373v5.337Zm3.9-4.149h-2.422v2.95H155.9Zm-2.231,9.043V33.762h1.476v2.566h5.96v1.2Zm5.721-2.939V26.506h1.487v8.083Z" fill="#696969"/>
      <path d="M168.678,34.7a6.036,6.036,0,0,1-2.638-2.855,5.556,5.556,0,0,1-2.627,3.094l-.9-1.115a5.019,5.019,0,0,0,2.722-4.833v-.276h-2.219V27.5h5.973v1.212h-2.183v.264a4.734,4.734,0,0,0,2.7,4.569Zm1.7-8.192h1.488V37.324h-1.488Z" fill="#696969"/>
    </g>
    <g>
      <g style="isolation: isolate">
        <path d="M134.539,7.076a2.357,2.357,0,0,0-2.5-1.962,2.017,2.017,0,0,0-2.2,1.836,1.654,1.654,0,0,0,1.5,1.638l1.836.378c2.251.451,3.457,1.873,3.457,3.674,0,1.981-1.6,3.871-4.519,3.871-3.241,0-4.736-2.089-4.933-3.925l2.017-.577a2.743,2.743,0,0,0,2.916,2.557c1.531,0,2.323-.773,2.323-1.765,0-.828-.612-1.494-1.711-1.728l-1.8-.378a3.625,3.625,0,0,1-3.241-3.583,4.163,4.163,0,0,1,4.339-3.907c3.007,0,4.178,1.837,4.466,3.258Z" fill="#696969"/>
        <path d="M143.826,5.509V16.241h-2.16V5.509h-4.141V3.475h10.461V5.509Z" fill="#696969"/>
        <path d="M153.51,11.2h-1.585v5.042h-2.179V3.475h4.9a3.768,3.768,0,0,1,4,3.871,3.6,3.6,0,0,1-2.881,3.637l2.881,5.258h-2.449Zm.738-1.908a1.967,1.967,0,1,0,0-3.908h-2.323V9.291Z" fill="#696969"/>
        <path d="M168.415,13.036h-5.4l-1.188,3.205h-2.288l4.97-12.766h2.5l4.969,12.766h-2.359Zm-4.645-2h3.889l-1.945-5.222Z" fill="#696969"/>
        <path d="M182.15,16.241l-6.3-9.669v9.669h-2.161V3.475h2.755l5.8,9.057V3.475H184.4V16.241Z" fill="#696969"/>
        <path d="M197.036,16.241l-.162-1.62a4.414,4.414,0,0,1-3.907,1.89c-3.331,0-6.284-2.449-6.284-6.662a6.358,6.358,0,0,1,6.428-6.644,5.749,5.749,0,0,1,5.761,3.889l-2.034.775A3.7,3.7,0,0,0,193.111,5.2c-2.071,0-4.232,1.476-4.232,4.645,0,3.114,2.017,4.681,4.214,4.681a3.367,3.367,0,0,0,3.655-2.862h-4.214V9.777h6.249v6.464Z" fill="#696969"/>
        <path d="M201.389,16.241V3.475h7.887V5.492h-5.727V8.877h5.186v1.962h-5.186v3.385h5.727v2.017Z" fill="#696969"/>
        <path d="M216.328,16.241V3.475h2.161V14.188h5.852v2.053Z" fill="#696969"/>
        <path d="M231.522,3.205a6.4,6.4,0,0,1,6.5,6.644,6.493,6.493,0,1,1-12.982,0A6.39,6.39,0,0,1,231.522,3.205Zm0,11.254a4.258,4.258,0,0,0,4.285-4.61,4.288,4.288,0,1,0-8.553,0A4.256,4.256,0,0,0,231.522,14.459Z" fill="#696969"/>
        <path d="M246.012,3.205a6.4,6.4,0,0,1,6.5,6.644,6.493,6.493,0,1,1-12.982,0A6.389,6.389,0,0,1,246.012,3.205Zm0,11.254a4.259,4.259,0,0,0,4.285-4.61,4.288,4.288,0,1,0-8.553,0A4.256,4.256,0,0,0,246.012,14.459Z" fill="#696969"/>
        <path d="M258.647,10.713l-1.693,1.855v3.673h-2.161V3.475h2.161V9.6l5.492-6.122h2.844l-5.167,5.636,5.222,7.13h-2.719Z" fill="#696969"/>
        <path d="M267.123,16.241V3.475h7.887V5.492h-5.726V8.877h5.186v1.962h-5.186v3.385h5.726v2.017Z" fill="#696969"/>
        <path d="M281.363,11.2h-1.584v5.042H277.6V3.475h4.9a3.767,3.767,0,0,1,4,3.871,3.6,3.6,0,0,1-2.88,3.637l2.88,5.258h-2.448Zm.738-1.908a1.967,1.967,0,1,0,0-3.908h-2.322V9.291Z" fill="#696969"/>
        <path d="M295.242,7.076a2.356,2.356,0,0,0-2.5-1.962,2.017,2.017,0,0,0-2.2,1.836,1.653,1.653,0,0,0,1.494,1.638l1.837.378c2.25.451,3.457,1.873,3.457,3.674,0,1.981-1.6,3.871-4.519,3.871-3.241,0-4.735-2.089-4.934-3.925l2.017-.577a2.744,2.744,0,0,0,2.917,2.557c1.53,0,2.322-.773,2.322-1.765,0-.828-.611-1.494-1.71-1.728l-1.8-.378a3.626,3.626,0,0,1-3.241-3.583,4.163,4.163,0,0,1,4.34-3.907c3.007,0,4.177,1.837,4.465,3.258Z" fill="#696969"/>
      </g>
      <g>
        <path d="M53.389,18.714a.082.082,0,0,1-.082.082h0A8.939,8.939,0,1,1,53.038.92c.089,0,.178,0,.268,0a.083.083,0,0,1,.083.08V2.991a.082.082,0,0,1-.08.081A7.032,7.032,0,0,0,46.6,9.857a7.033,7.033,0,0,0,6.706,6.786.081.081,0,0,1,.08.081Z" fill="#696969"/>
        <path d="M109.106,18.715a.082.082,0,0,0,.082.082h0a8.939,8.939,0,0,0,0-17.878.082.082,0,0,0-.083.082V2.992a.081.081,0,0,0,.081.081,7.033,7.033,0,0,1,6.706,6.786,7.033,7.033,0,0,1-6.706,6.785.081.081,0,0,0-.081.081v1.99Z" fill="#696969"/>
      </g>
      <g style="isolation: isolate">
        <path d="M74.654,16.241v-9.4l-3.98,9.4H68.8L64.859,6.879v9.362H62.752V3.475h2.881l4.141,9.741,4.087-9.741H76.8V16.241Z" fill="#696969"/>
        <path d="M86.784,14.728a4.717,4.717,0,0,1-3.493,1.747,3.479,3.479,0,0,1-3.8-3.349c0-1.638.883-2.539,2.215-3.529l.126-.091-.216-.233a4.315,4.315,0,0,1-1.458-2.81,3.286,3.286,0,0,1,3.421-3.258,3.205,3.205,0,0,1,3.493,3.169,3.8,3.8,0,0,1-1.8,2.88l-.558.415,2.125,2.214,3.043-3.276v2.7l-1.747,1.927,2.881,3.007H88.224Zm-1.333-1.35.018-.018-2.358-2.5-.433.324a2.145,2.145,0,0,0-1.043,1.8,1.638,1.638,0,0,0,1.692,1.6A2.935,2.935,0,0,0,85.451,13.378ZM83.057,7.94l.36.4.738-.541a1.764,1.764,0,0,0,.864-1.459A1.37,1.37,0,0,0,83.6,4.969a1.335,1.335,0,0,0-1.386,1.368A2.475,2.475,0,0,0,83.057,7.94Z" fill="#696969"/>
        <path d="M91.425,11.559l2.107-.431v1.188a1.886,1.886,0,0,0,1.962,2.16,1.827,1.827,0,0,0,1.873-2.07V3.475h2.161v8.876a3.975,3.975,0,0,1-4.016,4.16,3.847,3.847,0,0,1-4.087-4.124Z" fill="#696969"/>
      </g>
      <g>
        <circle cx="24.938" cy="9.858" r="9.858" fill="#696969"/>
        <g style="isolation: isolate">
          <path d="M22.122,12.7a3.673,3.673,0,0,0,1.611.392,2.632,2.632,0,0,0,2.886-2.577,2.477,2.477,0,0,1-2.1.98A3,3,0,0,1,21.38,8.444,3.235,3.235,0,0,1,24.868,5.25c1.974,0,3.628,1.4,3.628,4.3,0,3.278-1.639,5.211-4.749,5.211a4.432,4.432,0,0,1-2.1-.5ZM24.8,6.889a1.5,1.5,0,0,0-1.555,1.5,1.48,1.48,0,0,0,1.555,1.5,1.5,1.5,0,1,0,0-3Z" fill="#fff"/>
        </g>
      </g>
    </g>
  </g>
</svg>
