<svg xmlns="http://www.w3.org/2000/svg" width="110.219mm" height="13.463mm" viewBox="0 0 312.433 38.164">
  <g>
    <g style="isolation: isolate">
      <path d="M146.34,27.333c-.071,3.179-2.182,5.073-5.073,5.817l-.731-1.176c2.05-.443,3.825-1.667,4.15-3.429H141.1V27.333Zm-3.646,10.614v-4.4h7.137v4.4Zm5.649-3.2h-4.15v2.026h4.15Zm0-8.024h1.5v6.273h-1.5Z" fill="#696969"/>
      <path d="M157.272,27.705a8.256,8.256,0,0,1-5.025,7.712l-.875-1.176a6.716,6.716,0,0,0,4.3-5.289h-3.67V27.705Zm2.987,4.161v5.673h-1.488V26.721h1.488v3.9h1.7v1.247Z" fill="#696969"/>
      <path d="M169.9,35.5c-.887.119-2.374.227-3.741.287-1.1.049-2.435.1-3.49.1l-.18-1.272c.935.012,2.387-.012,3.49-.048,1.487-.048,3-.156,3.826-.252Zm-7.124-5.65V28.7h6.669v1.151Zm3.383,4.042c-1.619,0-2.687-.756-2.687-1.871s1.163-1.871,2.687-1.871c1.571,0,2.7.768,2.7,1.883S167.821,33.893,166.154,33.893Zm-1.619-5.649V27.081h3.19v1.163Zm.347,3.778c0,.432.5.8,1.272.8s1.271-.372,1.271-.8-.492-.8-1.271-.8S164.882,31.579,164.882,32.022Zm5.493-5.3h1.5V37.647h-1.5Z" fill="#696969"/>
    </g>
    <g>
      <g style="isolation: isolate">
        <path d="M141,9.658a38.924,38.924,0,0,1-8.051.512V3.223h6.691v1.6H134.9V8.553a29.535,29.535,0,0,0,5.89-.464Zm-1.457,7.731c-2.9,0-4.721-1.248-4.721-3.169s1.824-3.2,4.721-3.2c2.914,0,4.739,1.28,4.739,3.2S142.454,17.389,139.54,17.389Zm0-4.754c-1.664,0-2.7.624-2.7,1.585,0,.945,1.041,1.569,2.7,1.569,1.681,0,2.722-.624,2.722-1.569C142.262,13.259,141.221,12.635,139.54,12.635Zm4.675-5.2v3.506h-2V2.231h2V5.8h2.224V7.433Z" fill="#696969"/>
        <path d="M155.269,10.842a7.428,7.428,0,0,1-3.457-3.249,6.741,6.741,0,0,1-3.506,3.618L147.138,9.69a5.6,5.6,0,0,0,3.617-5.138V2.984h2.065V4.472a5.3,5.3,0,0,0,3.538,4.818Zm-5.17,6.1V12h1.985V15.34h7.987v1.6Zm7.667-3.922V2.231h1.985V13.019Z" fill="#696969"/>
        <path d="M161.906,10.283v-1.6H175.48v1.6Zm1.857,7.122V13.516h7.795v-.848h-7.779V11.115h9.748v3.857h-7.779v.817h8.259v1.616Zm4.962-9.331c-2.9,0-4.882-1.057-4.882-2.9,0-1.76,1.92-2.881,4.866-2.881,2.977,0,4.866,1.121,4.866,2.881C173.575,7,171.59,8.074,168.725,8.074Zm-.016-4.226c-1.761,0-2.833.592-2.833,1.328,0,.785,1.072,1.361,2.833,1.361s2.833-.576,2.833-1.361C171.542,4.44,170.47,3.848,168.709,3.848Z" fill="#696969"/>
        <path d="M186.884,17.086V11.05h-5.778V9.434h9.316a22.211,22.211,0,0,0,.4-4.849h-7.939V2.935h9.923a31.121,31.121,0,0,1-.512,6.5h2.386V11.05h-5.811v6.036Z" fill="#696969"/>
        <path d="M203.685,10.379a6.719,6.719,0,0,1-3.361-3.042,6.347,6.347,0,0,1-3.49,3.442L195.65,9.258a5.341,5.341,0,0,0,3.6-4.914V2.824h2.065V4.28a4.982,4.982,0,0,0,3.474,4.561Zm-.112,7.058c-2.913,0-4.722-1.248-4.722-3.169,0-1.936,1.809-3.218,4.722-3.218,2.929,0,4.754,1.282,4.754,3.218C208.327,16.189,206.5,17.437,203.573,17.437Zm0-4.769c-1.664,0-2.705.624-2.705,1.6,0,.944,1.041,1.553,2.705,1.553,1.713,0,2.737-.609,2.737-1.553C206.31,13.292,205.286,12.668,203.573,12.668Zm2.769-1.713v-4.1h-2.817V5.241h2.817V2.231h1.985v8.724Z" fill="#696969"/>
        <path d="M210.482,7.082V5.5h8.691V7.082Zm4.433,6.994c-2.048,0-3.585-1.248-3.585-3.169,0-1.841,1.537-3.138,3.585-3.138,2,.032,3.586,1.265,3.586,3.138C218.5,12.8,216.949,14.076,214.915,14.076Zm-2.224-9.54v-1.6h4.433v1.6Zm2.224,4.818a1.564,1.564,0,1,0,1.665,1.553A1.53,1.53,0,0,0,214.915,9.354Zm7.38.24v7.075H220.31V2.231H222.3V7.946h2.224V9.594Z" fill="#696969"/>
        <path d="M225.265,11.147V9.53h13.574v1.617Zm3.874,1.185v3.024h7.939v1.633h-9.924V12.332Zm.1-9.748V6.329h7.795V7.946h-9.78V2.584Z" fill="#696969"/>
        <path d="M244.466,14.988V13.356h5.778v-3.01h-3.938V3.192h9.909v7.154h-3.986v3.01h5.81v1.632Zm9.764-10.18h-5.939V8.746h5.939Z" fill="#696969"/>
        <path d="M259.185,11.291V9.674h13.574v1.617Zm3.906,1.088V15.34h7.939v1.618h-9.94V12.379ZM261.138,8.41v-5.6h9.716V4.44h-7.731V6.809h7.827v1.6Z" fill="#696969"/>
        <path d="M286.1,3.24c-.112,4.258-2.817,6.994-6.643,8.163l-.992-1.585c2.881-.688,5.106-2.657,5.474-4.945h-4.754V3.24Zm.865,8.6c0,2.032,2.129,3.617,4.593,4.065l-.912,1.584a7.317,7.317,0,0,1-4.722-3.2,6.936,6.936,0,0,1-4.77,3.2l-.881-1.584c2.577-.385,4.643-2.049,4.643-4.065V11.1h2.049Zm2,.208V7.673h-3.01V6.008h3.01V2.231h1.984v9.813Z" fill="#696969"/>
      </g>
      <g>
        <path d="M65.243,10.17V3.064h1.969V5.145h3.153V3.064h1.984V10.17Zm9.428,7.251v-4.1H67.147V11.707h9.508v5.714ZM70.365,6.729H67.212v1.84h3.153Zm6.29.768v3.474h-2V2.3h2V5.864H78.88V7.5ZM87.47,11.114a7.049,7.049,0,0,1-3.361-3.2,6.542,6.542,0,0,1-3.442,3.6L79.5,9.979a5.612,5.612,0,0,0,3.553-5.122V3.048h2.081V4.792a5.292,5.292,0,0,0,3.441,4.786Zm-4.754,5.923V12.059H84.7V15.42h7.8v1.617ZM90.207,13.1V7.257H87.358V5.641h2.849V2.3h1.985V13.1Zm4.075-5.954V5.561h8.692V7.146Zm4.434,6.994c-2.049,0-3.585-1.248-3.585-3.169,0-1.841,1.536-3.138,3.585-3.138,2,.032,3.585,1.265,3.585,3.138C102.3,12.859,100.749,14.14,98.716,14.14ZM96.491,4.6V3h4.434V4.6Zm2.225,4.818a1.564,1.564,0,1,0,1.665,1.553A1.53,1.53,0,0,0,98.716,9.418Zm7.379.24v7.075h-1.984V2.3H106.1V8.01h2.225V9.658Z" fill="#696969"/>
        <g>
          <path d="M59.03,18.714a.081.081,0,0,1-.082.082h0A8.939,8.939,0,0,1,58.68.92q.133,0,.267,0A.083.083,0,0,1,59.03,1V2.991a.08.08,0,0,1-.08.081,7.035,7.035,0,0,0-6.707,6.785,7.034,7.034,0,0,0,6.706,6.786.081.081,0,0,1,.08.081Z" fill="#696969"/>
          <path d="M114.748,18.714a.083.083,0,0,0,.082.083h0a8.939,8.939,0,0,0,0-17.878.082.082,0,0,0-.083.082V2.991a.081.081,0,0,0,.081.081,7.035,7.035,0,0,1,6.706,6.786,7.033,7.033,0,0,1-6.706,6.785.082.082,0,0,0-.081.081v1.99Z" fill="#696969"/>
        </g>
      </g>
      <g>
        <circle cx="30.709" cy="9.858" r="9.858" fill="#696969"/>
        <g style="isolation: isolate">
          <path d="M33.128,7.24a3.871,3.871,0,0,0-1.5-.323,2.85,2.85,0,0,0-3.012,2.606,2.571,2.571,0,0,1,2.158-1.009,2.912,2.912,0,0,1,3.137,3.054A3.266,3.266,0,0,1,30.4,14.761c-1.99,0-3.684-1.429-3.684-4.174,0-3.263,2.045-5.337,5.042-5.337a3.962,3.962,0,0,1,1.9.42Zm-2.745,5.9a1.521,1.521,0,1,0-1.6-1.526A1.536,1.536,0,0,0,30.383,13.136Z" fill="#fff"/>
        </g>
      </g>
    </g>
  </g>
</svg>
