<svg xmlns="http://www.w3.org/2000/svg" width="110.219mm" height="13.463mm" viewBox="0 0 312.433 38.164">
  <g>
    <g style="isolation: isolate">
      <path d="M144.439,28.459a3.346,3.346,0,0,0,2.518,3.035l-.754,1.187a4.7,4.7,0,0,1-2.532-2.219,4.55,4.55,0,0,1-2.637,2.519l-.84-1.164a3.711,3.711,0,0,0,2.686-3.358h-2.23V27.224h5.9v1.235Zm1.332,9.439c-2.207,0-3.586-.935-3.586-2.386s1.379-2.4,3.586-2.4c2.23,0,3.6.949,3.6,2.4S148,37.9,145.771,37.9Zm0-3.574c-1.283,0-2.087.456-2.087,1.188s.8,1.175,2.087,1.175c1.319,0,2.11-.456,2.11-1.175S147.09,34.324,145.771,34.324Zm3.525-3.946v2.663h-1.487V26.517H149.3v2.638h1.692v1.223Z" fill="#696969"/>
      <path d="M153.308,31.59v1.835a14.758,14.758,0,0,0,3.3-.24l.143,1.175a22.469,22.469,0,0,1-4.928.276V27.548h4.425v1.211h-2.939v1.619h2.8V31.59Zm6.417,5.744v-5.66h-1.008v5.181h-1.4V26.7h1.4V30.45h1.008V26.517h1.44V37.334Z" fill="#696969"/>
      <path d="M168.39,27.284c-.071,3.275-2.171,5.253-5.025,6.116l-.732-1.174a5.1,5.1,0,0,0,4.138-3.706h-3.609V27.284Zm-3.525,10.279V33.832h1.5v2.519h5.852v1.212Zm5.636-2.987V30.882h-2.254V29.647H170.5v-3.13h1.488v8.059Z" fill="#696969"/>
    </g>
    <g>
      <g style="isolation: isolate">
        <path d="M112.116,3.469h6.9V5.087h-4.93v6.354a28.32,28.32,0,0,0,6.034-.416l.208,1.616a37.8,37.8,0,0,1-8.211.465Zm11.221,5.6v7.635h-1.985V2.269h1.985V7.423h2.24V9.072Z" fill="#696969"/>
        <path d="M130.79,3.261a3.721,3.721,0,1,1,0,7.411,3.719,3.719,0,1,1,0-7.411Zm0,5.731a1.942,1.942,0,0,0,2.049-2.017,2.033,2.033,0,1,0-4.066,0A1.925,1.925,0,0,0,130.79,8.992Zm-1.6,7.987V11.953h2v3.426h7.987v1.6Zm7.667-3.922V2.269h1.985V13.057Z" fill="#696969"/>
        <path d="M148.887,10.417a6.721,6.721,0,0,1-3.361-3.041,6.351,6.351,0,0,1-3.49,3.441L140.852,9.3a5.342,5.342,0,0,0,3.6-4.915V2.862h2.065V4.318a4.983,4.983,0,0,0,3.474,4.562Zm-.112,7.058c-2.913,0-4.722-1.248-4.722-3.169s1.809-3.217,4.722-3.217c2.929,0,4.754,1.281,4.754,3.217S151.7,17.475,148.775,17.475Zm0-4.769c-1.665,0-2.705.624-2.705,1.6,0,.945,1.04,1.553,2.705,1.553,1.713,0,2.737-.608,2.737-1.553C151.512,13.33,150.488,12.706,148.775,12.706Zm2.769-1.713V6.9h-2.817V5.279h2.817V2.269h1.985v8.724Z" fill="#696969"/>
        <path d="M160.756,3.469h6.9V5.087h-4.93v6.354a28.334,28.334,0,0,0,6.035-.416l.208,1.616a37.811,37.811,0,0,1-8.212.465Zm11.221,5.6v7.635h-1.985V2.269h1.985V7.423h2.241V9.072Z" fill="#696969"/>
        <path d="M179.43,3.261a3.721,3.721,0,1,1,0,7.411,3.719,3.719,0,1,1,0-7.411Zm0,5.731a1.941,1.941,0,0,0,2.048-2.017,2.033,2.033,0,1,0-4.066,0A1.925,1.925,0,0,0,179.43,8.992Zm-1.6,7.987V11.953h2v3.426h7.988v1.6Zm7.667-3.922V2.269h1.985V13.057Z" fill="#696969"/>
        <path d="M197.527,10.417a6.719,6.719,0,0,1-3.362-3.041,6.346,6.346,0,0,1-3.489,3.441L189.492,9.3a5.344,5.344,0,0,0,3.6-4.915V2.862h2.065V4.318a4.984,4.984,0,0,0,3.473,4.562Zm-.113,7.058c-2.913,0-4.721-1.248-4.721-3.169s1.808-3.217,4.721-3.217c2.93,0,4.754,1.281,4.754,3.217S200.344,17.475,197.414,17.475Zm0-4.769c-1.664,0-2.7.624-2.7,1.6,0,.945,1.041,1.553,2.7,1.553,1.713,0,2.738-.608,2.738-1.553C200.152,13.33,199.127,12.706,197.414,12.706Zm2.769-1.713V6.9h-2.816V5.279h2.816V2.269h1.985v8.724Z" fill="#696969"/>
        <path d="M212.533,17.187a9.739,9.739,0,0,1-3.153-7.074v-.32a9.7,9.7,0,0,1,3.153-7.06h1.681A10.527,10.527,0,0,0,211.4,9.648v.481a11.048,11.048,0,0,0,2.817,7.058Z" fill="#696969"/>
        <path d="M227.208,4.911a20.767,20.767,0,0,1-6.114,4.481,26.366,26.366,0,0,1-5.219,1.905l-.928-1.6a20.94,20.94,0,0,0,5.026-1.6,19.1,19.1,0,0,0-1.712-1.343,17.118,17.118,0,0,1-1.7.832l-1.136-1.425a18.121,18.121,0,0,0,6.034-3.842l1.584.9-.816.768h3.825Zm1.6,6.306c-2.7,3.33-7.651,5.346-12.533,6.163L215.3,15.7a28.449,28.449,0,0,0,5.763-1.329,15.186,15.186,0,0,0-1.729-1.361c-.688.288-1.409.577-2.193.833l-1.024-1.585a16.9,16.9,0,0,0,7.267-3.9l1.536.945a12.427,12.427,0,0,1-.96.879h3.665Zm-8.6-5.667c-.144.113-.288.208-.432.305a19.424,19.424,0,0,1,1.825,1.408,23.839,23.839,0,0,0,2.513-1.713Zm1.537,6.211a5.694,5.694,0,0,1-.688.4,18.347,18.347,0,0,1,1.889,1.44,14.994,14.994,0,0,0,2.816-1.841Z" fill="#696969"/>
        <path d="M241.16,17.139v-.656H232v.8h-1.648V3.133h12.485V17.139ZM232,14.978h9.156V4.638H232Zm5.379-7.858h3.3V8.64h-3.2a7.088,7.088,0,0,0,3.618,4.705l-1.088,1.425a8.947,8.947,0,0,1-3.362-3.873,8.135,8.135,0,0,1-3.6,4.033l-.993-1.376a6.3,6.3,0,0,0,3.554-4.914h-3.121V7.12h3.185V4.974h1.713Z" fill="#696969"/>
        <path d="M246.308,5.886a20.309,20.309,0,0,1-.576,4.643L244.371,9.9a16.805,16.805,0,0,0,.529-4.337Zm6.163-2.368q-.12,1.106-.288,2.16h1.024V2.494h1.745V5.678h2.881v1.6h-2.881v3.01h2.785v1.6h-2.785v3.346h3.3V16.8h-8.74V15.235h3.7V11.889H250.39v-1.6h2.817V7.279h-1.361A14.689,14.689,0,0,1,250.838,10l-1.52-.832a8.427,8.427,0,0,0,.56-1.217l-.833.416a15.482,15.482,0,0,0-.7-2.562V17.284h-1.713V2.494h1.713V5.455l1.008-.5a21.965,21.965,0,0,1,.8,2.256,18.387,18.387,0,0,0,.592-3.937Z" fill="#696969"/>
        <path d="M275.848,4.911a20.754,20.754,0,0,1-6.114,4.481,26.366,26.366,0,0,1-5.219,1.905l-.927-1.6a20.918,20.918,0,0,0,5.025-1.6A19.1,19.1,0,0,0,266.9,6.752a17.011,17.011,0,0,1-1.7.832l-1.136-1.425A18.111,18.111,0,0,0,270.1,2.317l1.584.9-.815.768H274.7Zm1.6,6.306c-2.7,3.33-7.651,5.346-12.533,6.163l-.977-1.681A28.433,28.433,0,0,0,269.7,14.37a15.186,15.186,0,0,0-1.729-1.361c-.688.288-1.409.577-2.193.833l-1.024-1.585a16.885,16.885,0,0,0,7.267-3.9l1.536.945a12.07,12.07,0,0,1-.96.879h3.665Zm-8.6-5.667c-.143.113-.288.208-.431.305a19.411,19.411,0,0,1,1.824,1.408A23.957,23.957,0,0,0,272.76,5.55Zm1.537,6.211a5.694,5.694,0,0,1-.688.4,18.347,18.347,0,0,1,1.889,1.44,15,15,0,0,0,2.817-1.841Z" fill="#696969"/>
        <path d="M285.863,5.758c0,.4-.017.8-.048,1.169a12.776,12.776,0,0,0,6.338,8.324l-1.1,1.808a15.529,15.529,0,0,1-5.891-6.978l-.031.128a12.755,12.755,0,0,1-5.8,7.106l-1.025-1.633a10.658,10.658,0,0,0,5.715-9.891V2.765h1.841Z" fill="#696969"/>
        <path d="M294.948,5.886a20.309,20.309,0,0,1-.576,4.643l-1.36-.625a16.9,16.9,0,0,0,.528-4.337Zm6.163-2.368q-.12,1.106-.288,2.16h1.024V2.494h1.745V5.678h2.88v1.6h-2.88v3.01h2.785v1.6h-2.785v3.346h3.3V16.8h-8.74V15.235h3.7V11.889H299.03v-1.6h2.817V7.279h-1.361A14.689,14.689,0,0,1,299.478,10l-1.52-.832a8.531,8.531,0,0,0,.559-1.217l-.832.416a15.581,15.581,0,0,0-.7-2.562V17.284h-1.713V2.494h1.713V5.455l1.008-.5a22.205,22.205,0,0,1,.8,2.256,18.387,18.387,0,0,0,.592-3.937Z" fill="#696969"/>
        <path d="M307.571,17.187a10.559,10.559,0,0,0,2.817-6.915v-.5a11.078,11.078,0,0,0-2.817-7.043h1.681a9.788,9.788,0,0,1,3.137,7.06v.32a9.763,9.763,0,0,1-3.137,7.074Z" fill="#696969"/>
      </g>
      <g>
        <g>
          <path d="M38.138,18.729a.082.082,0,0,1-.082.082h0A8.939,8.939,0,0,1,37.788.935q.134,0,.267,0a.082.082,0,0,1,.083.08V3.006a.081.081,0,0,1-.08.081,7.034,7.034,0,0,0-6.707,6.785,7.035,7.035,0,0,0,6.706,6.786.08.08,0,0,1,.08.081Z" fill="#696969"/>
          <path d="M93.857,18.729a.082.082,0,0,0,.081.082h0a8.939,8.939,0,0,0,0-17.878.082.082,0,0,0-.083.082V3.006a.081.081,0,0,0,.081.081,7.035,7.035,0,0,1,6.706,6.786,7.035,7.035,0,0,1-6.706,6.785.082.082,0,0,0-.082.081v1.99Z" fill="#696969"/>
        </g>
        <g style="isolation: isolate">
          <path d="M48.529,3.606c2.448,0,4,2.017,4,4.93,0,2.9-1.553,4.9-4,4.9-2.417,0-3.954-2-3.954-4.9C44.575,5.623,46.112,3.606,48.529,3.606Zm0,8.163c1.2,0,2.065-1.217,2.065-3.25,0-2.016-.865-3.249-2.065-3.249-1.153,0-1.985,1.233-1.985,3.249C46.544,10.552,47.376,11.769,48.529,11.769Zm6.178-9.124h1.985V17.083H54.707Z" fill="#696969"/>
          <path d="M63.5,5.671v.32c0,3.217,1.1,5.154,2.834,6.162L65.217,13.61a6.98,6.98,0,0,1-2.673-3.426,6.916,6.916,0,0,1-2.785,3.73l-1.2-1.361c1.969-1.344,2.994-3.233,2.994-6.514V5.671H59.071V4.054h6.8V5.671Zm3.378,10.788V9.047H64.945V7.4h1.937V2.9h1.873V16.459ZM69.875,2.645h1.888V17.1H69.875Z" fill="#696969"/>
          <path d="M80.433,3.349c3.09,0,5.171,1.633,5.171,3.922,0,2.049-1.649,3.569-4.194,3.874V13.8H87.2v1.6H73.631V13.8h5.794V11.129c-2.545-.321-4.178-1.825-4.178-3.858C75.247,4.982,77.328,3.349,80.433,3.349Zm0,6.211c1.873,0,3.154-.912,3.154-2.273S82.306,5,80.433,5s-3.169.927-3.169,2.288S78.561,9.56,80.433,9.56Z" fill="#696969"/>
        </g>
      </g>
      <g>
        <circle cx="9.879" cy="9.872" r="9.858" fill="#696969"/>
        <g style="isolation: isolate">
          <path d="M5.429,14.5V8.42H3.244v-1.3A2.32,2.32,0,0,0,5.681,5.408H7.348V14.5Z" fill="#fff"/>
          <path d="M9.138,8.868a3.419,3.419,0,0,1-.071-.631A3.069,3.069,0,0,1,12.387,5.2a3.006,3.006,0,0,1,3.278,2.928A3.264,3.264,0,0,1,13.9,10.941l-1.751,1.065a1.846,1.846,0,0,0-.784.826h4.356V14.5H9a4.149,4.149,0,0,1,2.143-3.88l1.5-.9a1.774,1.774,0,0,0,1.078-1.57,1.242,1.242,0,0,0-1.373-1.246A1.371,1.371,0,0,0,10.9,8.42a2,2,0,0,0,.07.5Z" fill="#fff"/>
        </g>
      </g>
    </g>
  </g>
</svg>
