<svg xmlns="http://www.w3.org/2000/svg" width="110.219mm" height="13.463mm" viewBox="0 0 312.433 38.164">
  <g>
    <g style="isolation: isolate">
      <path d="M147.863,34.959c-.935.132-2.35.264-3.574.324-1.175.06-2.554.1-3.61.1l-.191-1.271c.911.011,2.038.011,3.046-.012V32.405h1.5v1.63c1.019-.047,2.015-.119,2.734-.227Zm-2.746-5.18a2.908,2.908,0,0,0,2.5,1.822c-.145.24-.528.947-.66,1.187a4.323,4.323,0,0,1-2.651-1.775,4.363,4.363,0,0,1-2.77,2.052c-.144-.241-.54-.936-.7-1.164a3.2,3.2,0,0,0,2.615-2.122H141.2V28.591h6.057v1.188Zm-2.495-1.8V26.792h3.31v1.187Zm5.757-1.559h1.5V37.238h-1.5Z" fill="#696969"/>
      <path d="M159.443,34.455V31.817H156.9a2.951,2.951,0,0,1-2.315.971,2.818,2.818,0,1,1,0-5.625,3.055,3.055,0,0,1,2.063.72h2.794V26.42h1.487v8.035Zm-4.857-2.925a1.549,1.549,0,0,0,0-3.1,1.549,1.549,0,0,0,0,3.1Zm-.876,5.936v-3.73h1.5v2.518h5.925v1.212Zm3.79-6.908h1.943V29.143h-2a2.787,2.787,0,0,1,.12.839A2.925,2.925,0,0,1,157.5,30.558Z" fill="#696969"/>
      <path d="M168.732,34.612a6.042,6.042,0,0,1-2.639-2.855,5.55,5.55,0,0,1-2.626,3.094l-.9-1.115A5.019,5.019,0,0,0,165.29,28.9v-.276h-2.219V27.415h5.973v1.212h-2.183v.264a4.734,4.734,0,0,0,2.7,4.569Zm1.7-8.192h1.488V37.238h-1.488Z" fill="#696969"/>
    </g>
    <g>
      <g style="isolation: isolate">
        <path d="M165.869,7.166a2.357,2.357,0,0,0-2.5-1.962,2.016,2.016,0,0,0-2.2,1.836,1.654,1.654,0,0,0,1.495,1.638l1.836.378c2.251.45,3.457,1.873,3.457,3.674,0,1.981-1.6,3.871-4.519,3.871-3.241,0-4.736-2.089-4.934-3.926l2.017-.576a2.744,2.744,0,0,0,2.917,2.557c1.53,0,2.322-.774,2.322-1.765,0-.828-.612-1.494-1.71-1.728l-1.8-.378A3.626,3.626,0,0,1,159.008,7.2a4.163,4.163,0,0,1,4.34-3.907c3.007,0,4.177,1.836,4.465,3.258Z" fill="#696969"/>
        <path d="M176.849,7.562l2.07,6.067,1.747-6.067h2.125l-2.809,8.769h-2.089l-2.179-6.3-2.124,6.3h-2.143L168.6,7.562h2.233l1.782,6.067,2.071-6.067Z" fill="#696969"/>
        <path d="M191.915,13.828a3.95,3.95,0,0,1-3.961,2.773,4.428,4.428,0,0,1-4.484-4.7,4.4,4.4,0,0,1,4.268-4.609c2.7,0,4.285,1.783,4.285,4.555a3.093,3.093,0,0,1-.054.666h-6.41a2.347,2.347,0,0,0,2.4,2.287,2.115,2.115,0,0,0,2.2-1.53Zm-2-2.845a1.965,1.965,0,0,0-2.161-1.944,2.1,2.1,0,0,0-2.143,1.944Z" fill="#696969"/>
        <path d="M201.779,13.828a3.951,3.951,0,0,1-3.962,2.773,4.428,4.428,0,0,1-4.483-4.7A4.4,4.4,0,0,1,197.6,7.292c2.7,0,4.285,1.783,4.285,4.555a3.093,3.093,0,0,1-.054.666h-6.41a2.347,2.347,0,0,0,2.394,2.287,2.115,2.115,0,0,0,2.2-1.53Zm-2-2.845a1.964,1.964,0,0,0-2.16-1.944,2.1,2.1,0,0,0-2.143,1.944Z" fill="#696969"/>
        <path d="M206.529,7.562h1.819V9.417h-1.819v4.069c0,.774.342,1.1,1.117,1.1a4.412,4.412,0,0,0,.719-.073v1.729a3.285,3.285,0,0,1-1.278.2,2.418,2.418,0,0,1-2.628-2.611V9.417h-1.621V7.562h.45a1.243,1.243,0,0,0,1.35-1.368V4.879h1.891Z" fill="#696969"/>
        <path d="M227,16.331v-9.4l-3.98,9.4h-1.872L217.2,6.968v9.363H215.1V3.565h2.881l4.141,9.741,4.087-9.741h2.935V16.331Z" fill="#696969"/>
        <path d="M233.042,3.115a1.367,1.367,0,0,1,1.368,1.368,1.36,1.36,0,1,1-1.368-1.368Zm-1.026,13.216V7.562h2.07v8.769Z" fill="#696969"/>
        <path d="M241.917,9.632a4.551,4.551,0,0,0-.684-.053c-1.621,0-2.359.936-2.359,2.575v4.177h-2.088V7.562h2.034v1.4a2.653,2.653,0,0,1,2.539-1.512,2.99,2.99,0,0,1,.558.054Z" fill="#696969"/>
        <path d="M248.793,9.632a4.551,4.551,0,0,0-.684-.053c-1.621,0-2.359.936-2.359,2.575v4.177h-2.088V7.562H245.7v1.4a2.653,2.653,0,0,1,2.539-1.512,2.99,2.99,0,0,1,.558.054Z" fill="#696969"/>
        <path d="M258.856,11.937a4.548,4.548,0,1,1-9.093,0,4.548,4.548,0,1,1,9.093,0Zm-2.106,0a2.466,2.466,0,1,0-4.9,0,2.47,2.47,0,1,0,4.9,0Z" fill="#696969"/>
        <path d="M266,9.632a4.551,4.551,0,0,0-.684-.053c-1.621,0-2.359.936-2.359,2.575v4.177H260.87V7.562H262.9v1.4a2.653,2.653,0,0,1,2.539-1.512,2.99,2.99,0,0,1,.558.054Z" fill="#696969"/>
      </g>
      <g>
        <g>
          <path d="M84.294,18.714a.082.082,0,0,1-.082.082h0A8.939,8.939,0,1,1,83.944.92q.133,0,.267,0a.083.083,0,0,1,.083.08V2.991a.08.08,0,0,1-.08.081,7.035,7.035,0,0,0-6.707,6.785,7.034,7.034,0,0,0,6.706,6.786.081.081,0,0,1,.08.081Z" fill="#696969"/>
          <path d="M140.012,18.714a.083.083,0,0,0,.082.083h0a8.939,8.939,0,0,0,0-17.878.082.082,0,0,0-.083.082V2.991a.081.081,0,0,0,.081.081A7.035,7.035,0,0,1,146.8,9.858a7.033,7.033,0,0,1-6.706,6.785.081.081,0,0,0-.081.081v1.99Z" fill="#696969"/>
        </g>
        <g style="isolation: isolate">
          <path d="M100.927,13.883c-1.249.177-3.138.353-4.77.433-1.569.08-3.41.128-4.818.128l-.256-1.7c1.216.015,2.721.015,4.065-.017V10.474h2v2.177c1.361-.064,2.689-.16,3.65-.3ZM97.261,6.969a3.882,3.882,0,0,0,3.33,2.433c-.192.32-.7,1.265-.881,1.585a5.782,5.782,0,0,1-3.537-2.369,5.829,5.829,0,0,1-3.7,2.737c-.193-.32-.721-1.249-.929-1.553,1.7-.384,3.169-1.377,3.49-2.833h-3.01V5.384h8.084V6.969Zm-3.329-2.4V2.983H98.35V4.568Zm7.683-2.081h2V16.924h-2Z" fill="#696969"/>
          <path d="M116.368,13.212V9.69h-3.394a3.939,3.939,0,0,1-3.089,1.3A3.708,3.708,0,0,1,105.9,7.241a3.72,3.72,0,0,1,3.986-3.762,4.08,4.08,0,0,1,2.753.961h3.73V2.487h1.984V13.212Zm-6.483-3.906a1.961,1.961,0,0,0,1.985-2.081,1.952,1.952,0,0,0-1.985-2.049,1.929,1.929,0,0,0-1.969,2.049A1.939,1.939,0,0,0,109.885,9.306Zm-1.169,7.923V12.251h2v3.361h7.907v1.617Zm5.058-9.22h2.594V6.121h-2.674a3.683,3.683,0,0,1,.16,1.12A3.9,3.9,0,0,1,113.774,8.009Z" fill="#696969"/>
          <path d="M128.75,13.42a8.056,8.056,0,0,1-3.521-3.81,7.42,7.42,0,0,1-3.5,4.13l-1.2-1.489A6.7,6.7,0,0,0,124.156,5.8V5.432H121.2V3.816h7.971V5.432h-2.913v.353a6.319,6.319,0,0,0,3.6,6.1Zm2.273-10.933h1.985V16.924h-1.985Z" fill="#696969"/>
        </g>
      </g>
      <g>
        <circle cx="56.267" cy="9.858" r="9.858" fill="#696969"/>
        <g style="isolation: isolate">
          <path d="M52.933,8.921a3.345,3.345,0,0,1-.071-.631,3.068,3.068,0,0,1,3.32-3.039A3.005,3.005,0,0,1,59.46,8.179,3.266,3.266,0,0,1,57.7,10.994l-1.751,1.064a1.853,1.853,0,0,0-.784.827h4.356v1.667H52.793a4.148,4.148,0,0,1,2.143-3.88l1.5-.9a1.773,1.773,0,0,0,1.078-1.569A1.242,1.242,0,0,0,56.14,6.96,1.372,1.372,0,0,0,54.7,8.472a1.991,1.991,0,0,0,.071.5Z" fill="#fff"/>
        </g>
      </g>
    </g>
  </g>
</svg>
