<svg xmlns="http://www.w3.org/2000/svg" width="110.219mm" height="13.463mm" viewBox="0 0 312.433 38.164">
  <g>
    <g style="isolation: isolate">
      <path d="M142.514,37.754V34.083H140.08V32.872h10.17v1.211h-2.458v3.671H146.3V34.083H144v3.671Zm2.639-5.541c-2.135,0-3.742-.972-3.742-2.627,0-1.583,1.571-2.615,3.742-2.615,2.219,0,3.754,1.032,3.754,2.615C148.907,31.241,147.3,32.213,145.153,32.213Zm0-3.983c-1.355,0-2.207.576-2.207,1.356s.852,1.391,2.207,1.391c1.332,0,2.207-.6,2.207-1.391S146.485,28.23,145.153,28.23Z" fill="#696969"/>
      <path d="M157.3,34.827a6.038,6.038,0,0,1-2.639-2.855,5.552,5.552,0,0,1-2.627,3.094l-.9-1.115a5.018,5.018,0,0,0,2.723-4.833v-.276h-2.22V27.63h5.974v1.212h-2.183v.264a4.734,4.734,0,0,0,2.7,4.569Zm1.7-8.192h1.487V37.453H159Z" fill="#696969"/>
      <path d="M166.478,37.813V33.951H162.16v-1.2h10.17v1.2h-4.353v3.862Zm1.583-10.95v.563c0,1.7,1.895,2.975,3.67,3.191l-.636,1.2a5.368,5.368,0,0,1-3.838-2.542,5.215,5.215,0,0,1-3.826,2.555l-.648-1.212c1.872-.264,3.659-1.475,3.659-3.191v-.563Z" fill="#696969"/>
    </g>
    <g>
      <g style="isolation: isolate">
        <path d="M170.951,16.315V3.549h7.887V5.566h-5.726V8.951H178.3v1.962h-5.186V14.3h5.726v2.017Z" fill="#696969"/>
        <path d="M181.068,16.315V7.546h2V8.662a2.993,2.993,0,0,1,2.593-1.368,2.75,2.75,0,0,1,2.629,1.548,3.076,3.076,0,0,1,2.845-1.548,3.011,3.011,0,0,1,3.1,3.331v5.69h-2.016V10.967a1.6,1.6,0,0,0-1.693-1.8,1.823,1.823,0,0,0-1.818,1.946v5.2h-2.053V10.967a1.6,1.6,0,0,0-1.692-1.8,1.794,1.794,0,0,0-1.819,1.946v5.2Z" fill="#696969"/>
        <path d="M196.782,19.736V7.546H198.8V8.735a3.149,3.149,0,0,1,2.791-1.387c2.592,0,4.051,1.981,4.051,4.573,0,2.629-1.6,4.61-4.123,4.61a3.17,3.17,0,0,1-2.665-1.206v4.411ZM201.193,9.2a2.437,2.437,0,0,0-2.359,2.718c0,1.675.99,2.755,2.359,2.755,1.386,0,2.359-1.08,2.359-2.755A2.417,2.417,0,0,0,201.193,9.2Z" fill="#696969"/>
        <path d="M210.246,7.546h1.819V9.4h-1.819V13.47c0,.775.342,1.1,1.116,1.1a4.457,4.457,0,0,0,.721-.073v1.729a3.3,3.3,0,0,1-1.279.2,2.417,2.417,0,0,1-2.628-2.611V9.4h-1.621V7.546h.45a1.243,1.243,0,0,0,1.35-1.368V4.864h1.891Z" fill="#696969"/>
        <path d="M215.231,3.1A1.367,1.367,0,0,1,216.6,4.467,1.359,1.359,0,1,1,215.231,3.1Zm-1.026,13.216V7.546h2.07v8.769Z" fill="#696969"/>
        <path d="M221.063,16.315h-2.088V7.546h2.035v1.17A2.911,2.911,0,0,1,223.6,7.294c2.143,0,3.169,1.548,3.169,3.475v5.546h-2.089V11.129c0-1.08-.486-1.944-1.8-1.944a1.841,1.841,0,0,0-1.819,2.07Z" fill="#696969"/>
        <path d="M237.067,13.812a3.95,3.95,0,0,1-3.961,2.773,4.428,4.428,0,0,1-4.484-4.7,4.4,4.4,0,0,1,4.268-4.609c2.7,0,4.285,1.783,4.285,4.555a3.093,3.093,0,0,1-.054.666h-6.41a2.348,2.348,0,0,0,2.395,2.288,2.116,2.116,0,0,0,2.2-1.531Zm-2-2.845a1.965,1.965,0,0,0-2.161-1.944,2.105,2.105,0,0,0-2.143,1.944Z" fill="#696969"/>
        <path d="M240.215,13.434A1.642,1.642,0,0,0,242,14.928c.865,0,1.315-.468,1.315-1.008,0-.468-.324-.828-1.027-.972l-1.3-.288A2.65,2.65,0,0,1,238.63,10.1a3.041,3.041,0,0,1,3.223-2.827,3.094,3.094,0,0,1,3.385,2.449l-1.764.5a1.507,1.507,0,0,0-1.621-1.315,1.141,1.141,0,0,0-1.26,1.009.963.963,0,0,0,.882.918l1.332.271c1.657.359,2.521,1.368,2.521,2.664,0,1.333-1.08,2.809-3.313,2.809-2.539,0-3.511-1.657-3.619-2.647Z" fill="#696969"/>
        <path d="M248.44,13.434a1.643,1.643,0,0,0,1.783,1.494c.864,0,1.314-.468,1.314-1.008,0-.468-.324-.828-1.026-.972l-1.3-.288a2.649,2.649,0,0,1-2.359-2.557,3.041,3.041,0,0,1,3.223-2.827,3.094,3.094,0,0,1,3.385,2.449l-1.764.5a1.508,1.508,0,0,0-1.621-1.315,1.141,1.141,0,0,0-1.26,1.009.962.962,0,0,0,.882.918l1.332.271c1.657.359,2.521,1.368,2.521,2.664,0,1.333-1.081,2.809-3.313,2.809-2.539,0-3.511-1.657-3.619-2.647Z" fill="#696969"/>
      </g>
      <g>
        <g>
          <path d="M97.123,18.724a.082.082,0,0,1-.082.082h0A8.939,8.939,0,1,1,96.773.93q.133,0,.267,0a.082.082,0,0,1,.083.08V3a.081.081,0,0,1-.08.081,7.034,7.034,0,0,0-6.707,6.785,7.034,7.034,0,0,0,6.706,6.786.082.082,0,0,1,.08.081Z" fill="#696969"/>
          <path d="M152.841,18.724a.082.082,0,0,0,.082.082h0a8.939,8.939,0,0,0,0-17.878.082.082,0,0,0-.083.082V3a.081.081,0,0,0,.081.081,7.034,7.034,0,0,1,6.706,6.786,7.034,7.034,0,0,1-6.706,6.785.081.081,0,0,0-.081.081v1.99Z" fill="#696969"/>
        </g>
        <g style="isolation: isolate">
          <path d="M110.994,3.193c-.1,4.242-2.913,6.77-6.77,7.763l-.977-1.569c2.738-.592,5.106-2.225,5.538-4.577H104V3.193Zm-4.865,14.166V11.484h9.523v5.875Zm7.539-4.275h-5.539v2.705h5.539Zm0-10.708h2v8.371h-2Z" fill="#696969"/>
          <path d="M122.145,3.337c2.449,0,4,2.017,4,4.93,0,2.9-1.553,4.9-4,4.9-2.417,0-3.953-2-3.953-4.9C118.192,5.354,119.728,3.337,122.145,3.337Zm0,8.163c1.2,0,2.065-1.216,2.065-3.25,0-2.016-.864-3.249-2.065-3.249-1.152,0-1.985,1.233-1.985,3.249C120.16,10.284,120.993,11.5,122.145,11.5Zm6.179-9.124h1.984V16.814h-1.984Z" fill="#696969"/>
          <path d="M141.267,12.348a37.6,37.6,0,0,1-8.212.689V3.609h1.969V11.34a29.6,29.6,0,0,0,6.051-.56Zm2.993-3.121v7.587h-1.985V2.376h1.985V7.563H146.5V9.227Z" fill="#696969"/>
        </g>
      </g>
      <g>
        <circle cx="68.714" cy="9.868" r="9.858" fill="#696969"/>
        <g style="isolation: isolate">
          <path d="M64.749,10.6,68.574,5.47h2.381v5.491h1.5v1.653h-1.5v1.947H69.05V12.614h-4.3Zm4.3-3.11-2.592,3.474H69.05Z" fill="#fff"/>
        </g>
      </g>
    </g>
  </g>
</svg>
